<svg xmlns="http://www.w3.org/2000/svg" viewBox="0 0 484.9 136.98"><title>backpacking-cambodia-logo</title><path d="M406.37,3.1a2.1,2.1,0,0,1-.74,1.33,2.53,2.53,0,0,1-1.47.51,13.88,13.88,0,0,1-2.8-.19c-.94-.15-1.87-.29-2.8-.4l-.84,4.76q-1.07,6.06-1.75,12.15t-.92,12.27l0,.75a3,3,0,0,1,0,.73,1.09,1.09,0,0,1-.45.79,1.3,1.3,0,0,1-.9.12,7.36,7.36,0,0,1-1.05-.3,3,3,0,0,1-.94-.5,1.42,1.42,0,0,1-.51-.7,3.39,3.39,0,0,1-.06-.84,33.52,33.52,0,0,1,.24-3.48c.14-1.15.26-2.3.39-3.45q.35-3.7.8-7.37T393.65,12c.24-1.33.48-2.65.73-4s.49-2.65.73-4l-3.05-.24c-1-.08-2-.21-3-.39a.92.92,0,0,1-.56-.29.66.66,0,0,1-.13-.58,1.66,1.66,0,0,1,.78-1.21,3.32,3.32,0,0,1,1.44-.43,17.1,17.1,0,0,1,2.57.1c.85.09,1.72.16,2.58.22,0-.16.07-.32.11-.47A1.17,1.17,0,0,1,396,.31a.76.76,0,0,1,.31-.25.79.79,0,0,1,.5,0,3.13,3.13,0,0,1,1.13.47,2.26,2.26,0,0,1,.81.91l4.06.28,1.19,0a7.48,7.48,0,0,1,1.16.12,4.37,4.37,0,0,1,.52.12,1,1,0,0,1,.42.21.92.92,0,0,1,.26.37A1.13,1.13,0,0,1,406.37,3.1Z" style="fill:#ff693c"/><path d="M413.61,37.15a.8.8,0,0,1-.44.64,1.32,1.32,0,0,1-.8.08,2.62,2.62,0,0,1-.59-.17c-.21-.07-.4-.15-.58-.23a2.56,2.56,0,0,1-.72-.5,1.51,1.51,0,0,1-.33-.57,1.71,1.71,0,0,1-.08-.64c0-.23,0-.49.08-.76a1.8,1.8,0,0,0,0-.22,1.23,1.23,0,0,1,0-.19c.12-.93.24-1.87.37-2.84s.27-1.91.43-2.82c.09-.47.17-.93.26-1.4s.18-.92.28-1.38.19-.93.28-1.38.18-.92.26-1.38c0-.1,0-.19,0-.28s0-.18,0-.28a10.81,10.81,0,0,0-1.45,1.84,22.84,22.84,0,0,0-1.24,2.16c-.38.75-.72,1.51-1,2.27s-.59,1.5-.82,2.2l-.17.49c-.17.55-.36,1.11-.54,1.68a13.11,13.11,0,0,0-.43,1.72,3.07,3.07,0,0,0,0,.81c0,.14,0,.27,0,.39a2.57,2.57,0,0,1,0,.45.9.9,0,0,1-.43.73,1.23,1.23,0,0,1-.8.07,4.86,4.86,0,0,1-.63-.16,3.71,3.71,0,0,1-.65-.27,3.12,3.12,0,0,1-.56-.39,1.27,1.27,0,0,1-.38-.51,7.07,7.07,0,0,1,0-1.71c.07-.91.19-2,.35-3.38s.36-2.85.59-4.52.47-3.39.72-5.14.51-3.5.77-5.22.51-3.31.74-4.76l.6-3.77c.18-1.07.3-1.82.38-2.25a2.8,2.8,0,0,1,.28-.86c.14-.25.41-.33.83-.26a2.69,2.69,0,0,1,1.17.52A1.77,1.77,0,0,1,410.07,6a3.68,3.68,0,0,1,0,.8q-.07.69-.21,1.77c-.1.72-.21,1.54-.34,2.47s-.27,1.89-.41,2.88l-.42,3c-.15,1-.28,1.94-.4,2.81l-.51,3.58a13.91,13.91,0,0,1,1-1.43A7.91,7.91,0,0,1,410,20.57a5.31,5.31,0,0,1,1.47-.88,3,3,0,0,1,1.65-.16,2.39,2.39,0,0,1,1.56.85,3.41,3.41,0,0,1,.66,1.53,6.47,6.47,0,0,1,.07,1.82c-.07.63-.14,1.21-.23,1.72l-.18.94c-.06.3-.13.6-.2.9s-.14.63-.2.95l-.18.94c-.2,1.11-.37,2.25-.53,3.42a25.7,25.7,0,0,0-.24,3.49v.34a2,2,0,0,1,0,.35C413.64,36.91,413.63,37,413.61,37.15Z" style="fill:#ff693c"/><path d="M418.85,39.81a4.48,4.48,0,0,1-.77-.24,2.82,2.82,0,0,1-.74-.45,2.29,2.29,0,0,1-.52-.65,1.23,1.23,0,0,1-.12-.83q.12-.68.3-1.32c.11-.44.24-.86.36-1.29v0l.43-1.59c.15-.57.3-1.19.46-1.88s.3-1.38.45-2.09.3-1.4.43-2.09.26-1.32.36-1.89c.06-.34.12-.68.17-1s.11-.69.17-1,.09-.65.16-1,.13-.73.19-1.05a2.26,2.26,0,0,1,.27-.81c.13-.2.4-.26.82-.19a2.74,2.74,0,0,1,1.11.5,1.68,1.68,0,0,1,.71,1h0a3,3,0,0,1,0,.89c0,.4-.06.75-.1,1.06.34-.37.73-.76,1.16-1.16a9.83,9.83,0,0,1,1.34-1.09,6.45,6.45,0,0,1,1.45-.75,2.87,2.87,0,0,1,1.51-.13,2.21,2.21,0,0,1,1.45.78,2.94,2.94,0,0,1,.54,1.39,5.45,5.45,0,0,1,0,1.66q-.12.86-.24,1.56l0,.19c0,.19-.07.38-.11.56a1.52,1.52,0,0,1-.19.49.78.78,0,0,1-.35.32,1,1,0,0,1-.59,0,3.38,3.38,0,0,1-.8-.26,3.59,3.59,0,0,1-.75-.46,2.44,2.44,0,0,1-.54-.66,1.22,1.22,0,0,1-.15-.8l.06-.39c0-.13.06-.25.1-.38a2.62,2.62,0,0,1,.06-.3c0-.12.05-.23.08-.34a7.59,7.59,0,0,0-1.7,1.66,21.25,21.25,0,0,0-1.48,2.21c-.46.8-.88,1.6-1.26,2.42s-.7,1.56-1,2.22l0,.07c-.13.49-.25,1-.35,1.45s-.21,1-.31,1.48-.24,1.16-.37,1.75-.28,1.16-.44,1.71a1.3,1.3,0,0,1-.4.66A1,1,0,0,1,418.85,39.81Z" style="fill:#ff693c"/><path d="M442,33.32a26.44,26.44,0,0,1-1.08,4.11,11.72,11.72,0,0,1-2.13,3.68,8.46,8.46,0,0,1-1,.93,6.47,6.47,0,0,1-1.11.77,4.62,4.62,0,0,1-1.25.48,3.5,3.5,0,0,1-1.33,0,3.35,3.35,0,0,1-1.75-.81A4.7,4.7,0,0,1,431.23,41a7.71,7.71,0,0,1-.61-2,13.54,13.54,0,0,1-.21-2.2,18.61,18.61,0,0,1,.08-2.13c.06-.68.13-1.28.22-1.79s.24-1.21.41-1.89.38-1.37.63-2.07a17.43,17.43,0,0,1,.86-2.05A10.39,10.39,0,0,1,433.74,25a7.91,7.91,0,0,1,1.44-1.45,5.49,5.49,0,0,1,1.77-.9v0a3.33,3.33,0,0,1,1.61-.14,1.25,1.25,0,0,1,.71.34.79.79,0,0,1,.12.73,3.42,3.42,0,0,1,1.91,1.65,7.68,7.68,0,0,1,.84,2.62,14.25,14.25,0,0,1,.11,2.92C442.18,31.77,442.08,32.62,442,33.32Zm-4.37-7a1.2,1.2,0,0,1-.72-.45,7.68,7.68,0,0,0-1.05,1.47,13.44,13.44,0,0,0-.82,1.76,17.63,17.63,0,0,0-.59,1.87c-.16.63-.29,1.23-.39,1.79s-.16,1.06-.24,1.8a18.63,18.63,0,0,0-.11,2.25,10.8,10.8,0,0,0,.21,2.17,3.18,3.18,0,0,0,.72,1.59,3.34,3.34,0,0,0,1.48-1.16,9.11,9.11,0,0,0,1.15-1.95,13.25,13.25,0,0,0,.8-2.21c.21-.76.36-1.41.46-2s.14-.93.2-1.58.1-1.32.11-2a13.31,13.31,0,0,0-.14-1.94,3.37,3.37,0,0,0-.53-1.44A1.68,1.68,0,0,1,437.59,26.35Z" style="fill:#ff693c"/><path d="M456.1,29.62a2.38,2.38,0,0,1-.13.49c-.07.17-.13.33-.18.47l-.19.47a1.93,1.93,0,0,0-.12.44c-.27,1.49-.5,3-.71,4.5a34.92,34.92,0,0,0-.33,4.59c0,.59,0,1.17,0,1.73s0,1.14.09,1.73l0,.15v0c0,.13.05.25.07.38a1,1,0,0,1,0,.38.72.72,0,0,1-.2.41,1.09,1.09,0,0,1-.38.21,1.25,1.25,0,0,1-.44,0l-.42-.05a3.47,3.47,0,0,1-1.23-.4,2,2,0,0,1-.67-.64,1.86,1.86,0,0,1-.28-.85,7,7,0,0,1-.05-1.06v-.44a3.68,3.68,0,0,1,0-.74c0-.13,0-.2,0-.19s0,0,0-.19c-.3.37-.63.75-1,1.15a9.13,9.13,0,0,1-1.23,1.1,6.17,6.17,0,0,1-1.39.77,2.65,2.65,0,0,1-1.47.15,2,2,0,0,1-1.48-.91,4,4,0,0,1-.57-1.67,8.32,8.32,0,0,1,0-1.93c.08-.65.17-1.22.25-1.7q.49-2.74,1.14-5.4t1.35-5.34s0-.12.05-.2a.86.86,0,0,0,0-.18l.16-.62a1.91,1.91,0,0,1,.22-.53v0a1.07,1.07,0,0,1,.37-.5.81.81,0,0,1,.6-.07,2,2,0,0,1,.69.26,2.49,2.49,0,0,1,.59.47,2,2,0,0,1,.37.63,1.35,1.35,0,0,1,.06.72c0,.13,0,.29-.08.46a3,3,0,0,1-.11.45c0,.12,0,.26-.08.42s-.07.31-.09.42c-.4,1.52-.76,3-1.09,4.53s-.64,3-.91,4.59c-.08.43-.15.86-.22,1.3a8.2,8.2,0,0,0-.1,1.32,9.52,9.52,0,0,0,1.83-2.34,26.7,26.7,0,0,0,1.56-3.17c.48-1.14.9-2.27,1.27-3.4s.68-2.14.92-3a1.36,1.36,0,0,1,0-.17,1.36,1.36,0,0,0,0-.17c.05-.17.09-.33.14-.49a1,1,0,0,1,.25-.43c0-.14.06-.29.1-.45a1.36,1.36,0,0,1,.2-.42.8.8,0,0,1,.33-.28.94.94,0,0,1,.54,0,2,2,0,0,1,1.41.86,2.29,2.29,0,0,1,.34,1.61,1.27,1.27,0,0,1,.11.4A1.14,1.14,0,0,1,456.1,29.62Z" style="fill:#ff693c"/><path d="M470.59,42.39a1.5,1.5,0,0,1-.23.54,7.29,7.29,0,0,1-.45.61c-.18.21-.37.42-.58.63s-.39.4-.57.57l-.45.44-.47.56-.41.53c0,.32-.08.67-.11,1s-.06.73-.09,1.08q-.18,2.52-.42,5.13c-.17,1.74-.4,3.43-.69,5.08a16.17,16.17,0,0,1-.69,2.65,7.74,7.74,0,0,1-1.24,2.31,4.94,4.94,0,0,1-1.94,1.5,4.71,4.71,0,0,1-2.76.23,4,4,0,0,1-1.81-.74,3.46,3.46,0,0,1-1-1.31,4.67,4.67,0,0,1-.4-1.72,8.53,8.53,0,0,1,.11-1.94,18,18,0,0,1,1.16-3.86A30.29,30.29,0,0,1,459.39,52a37.8,37.8,0,0,1,2.35-3.52c.84-1.13,1.68-2.21,2.52-3.23a.43.43,0,0,0,0-.11,1.1,1.1,0,0,0,0-.21c-.27.35-.58.7-.91,1.06a6,6,0,0,1-1.09.94,4.77,4.77,0,0,1-1.22.6,2.7,2.7,0,0,1-1.36.08,2.78,2.78,0,0,1-1.6-.77,3.5,3.5,0,0,1-.86-1.42,5.75,5.75,0,0,1-.27-1.73,8.43,8.43,0,0,1,.13-1.71,15,15,0,0,1,.42-1.79c.18-.58.36-1.14.56-1.69.32-.86.69-1.8,1.13-2.81a30.16,30.16,0,0,1,1.47-3A23.09,23.09,0,0,1,462.5,30a9.61,9.61,0,0,1,2.13-2l.22-.14a5.85,5.85,0,0,1,.83-.48,1.38,1.38,0,0,1,.89-.16.81.81,0,0,1,.45.23,1.6,1.6,0,0,1,.28.43,2,2,0,0,1,.14.54,2.26,2.26,0,0,1,0,.52,1.24,1.24,0,0,1-.33.58h.05a2,2,0,0,1,1.73,1.7,1.51,1.51,0,0,1,.3.64,2.1,2.1,0,0,1,0,.75,4.19,4.19,0,0,1-.1.42,3.73,3.73,0,0,1-.14.4,4,4,0,0,0-.15.4,2.7,2.7,0,0,0-.09.36c-.06.36-.13.82-.21,1.37s-.16,1.12-.23,1.72-.14,1.19-.2,1.76-.11,1.08-.15,1.5a1.86,1.86,0,0,1,.46-.31.91.91,0,0,1,.57-.08,1.29,1.29,0,0,1,.58.3,2.91,2.91,0,0,1,.56.6,3.31,3.31,0,0,1,.4.7A1.15,1.15,0,0,1,470.59,42.39ZM463,57.31c.19-1.09.35-2.11.47-3.08s.22-2,.32-3.1c-.41.64-.83,1.33-1.27,2.07s-.84,1.5-1.21,2.27-.69,1.54-1,2.32a12,12,0,0,0-.62,2.24l0,.17a8.59,8.59,0,0,0-.14,1.2,1.77,1.77,0,0,0,.27,1.13l.27,0a1.13,1.13,0,0,0,.86-.19,2.7,2.7,0,0,0,.69-.73,5.62,5.62,0,0,0,.53-1.07c.15-.4.28-.81.39-1.22s.19-.8.27-1.17S463,57.54,463,57.31Zm2.7-26c0-.09,0-.2.06-.31a2.19,2.19,0,0,1,.13-.35l-.21.19-.43.34a4.38,4.38,0,0,0-.39.36,9.62,9.62,0,0,0-1.51,2.17,29,29,0,0,0-1.32,2.92c-.39,1-.73,2-1,3s-.49,1.88-.62,2.62c-.07.37-.12.74-.17,1.11a3.08,3.08,0,0,0,.05,1.13,3.76,3.76,0,0,0,.69-.69c.19-.25.38-.52.56-.8a17.09,17.09,0,0,0,1.4-2.58c.44-1,.84-2,1.19-3.11s.67-2.15.94-3.2S465.56,32.16,465.73,31.31Z" style="fill:#ff693c"/><path d="M483.07,49.39a.8.8,0,0,1-.44.65,1.41,1.41,0,0,1-.8.08,3.28,3.28,0,0,1-.59-.17,5,5,0,0,1-.58-.24,2.37,2.37,0,0,1-.72-.49,1.51,1.51,0,0,1-.33-.57,1.55,1.55,0,0,1-.07-.65,7.22,7.22,0,0,1,.07-.75,2,2,0,0,0,0-.22c0-.07,0-.13,0-.2.12-.92.24-1.86.37-2.83s.27-1.91.43-2.83c.09-.46.17-.92.26-1.39s.19-.92.28-1.39.2-.92.28-1.37.18-.92.26-1.38c0-.1,0-.19,0-.28s0-.19,0-.28a10.72,10.72,0,0,0-1.45,1.83,21.82,21.82,0,0,0-1.24,2.17c-.38.75-.72,1.51-1,2.27s-.58,1.5-.82,2.2l-.16.49c-.18.55-.37,1.1-.55,1.68a14.91,14.91,0,0,0-.43,1.72,3.07,3.07,0,0,0,0,.81c0,.14,0,.27,0,.39a2,2,0,0,1,0,.45.92.92,0,0,1-.43.73,1.29,1.29,0,0,1-.8.07,4.86,4.86,0,0,1-.63-.16,3.75,3.75,0,0,1-.65-.28,3.07,3.07,0,0,1-.56-.38,1.42,1.42,0,0,1-.38-.51,7.3,7.3,0,0,1,0-1.71c.07-.92.18-2,.34-3.39s.36-2.85.59-4.52.47-3.38.72-5.14.51-3.49.77-5.22.51-3.3.74-4.75.43-2.7.61-3.77.29-1.82.37-2.25a2.72,2.72,0,0,1,.28-.86c.14-.25.41-.34.83-.26a2.62,2.62,0,0,1,1.17.51,1.82,1.82,0,0,1,.68,1.08,3.69,3.69,0,0,1,0,.8q-.08.69-.21,1.77c-.1.72-.21,1.54-.34,2.47s-.27,1.89-.41,2.88l-.42,3c-.15,1-.28,1.94-.4,2.81l-.51,3.58a17.26,17.26,0,0,1,1-1.44,8.25,8.25,0,0,1,1.26-1.31,5.31,5.31,0,0,1,1.47-.88,3,3,0,0,1,1.65-.16,2.39,2.39,0,0,1,1.56.85,3.41,3.41,0,0,1,.66,1.53,6.45,6.45,0,0,1,.07,1.82c-.07.63-.14,1.2-.23,1.72l-.18.93c-.06.31-.13.61-.2.91s-.14.63-.2.94l-.18,1c-.2,1.11-.37,2.25-.53,3.42a27.41,27.41,0,0,0-.24,3.49v.34a2,2,0,0,1,0,.35A3.6,3.6,0,0,1,483.07,49.39Z" style="fill:#ff693c"/><path d="M23.15,27.21c3.25.65,6.3,3.6,6.3,8.65,0,6.75-5.4,9.7-14.4,9.7-4.9,0-13.85-.4-14.1-.6S.3,11.26.45,10.86s9.6-.6,10.6-.6c8,0,16,1.7,16,9.5,0,4-1.55,5.75-3.85,7.15Zm-12.1-3.6a6.7,6.7,0,0,0,1,.05c2.7,0,4.15-.95,4.15-2.75s-2.35-2.4-3.95-2.4a7.58,7.58,0,0,0-1.15.1C11.05,19.36,11.05,23.61,11.05,23.61Zm.5,13.25a15.83,15.83,0,0,0,2,.15c3.1,0,4.25-1.2,4.25-2.9,0-2-1.75-2.85-4.5-2.85-.55,0-1.15,0-1.75.1C11.55,32.11,11.55,36.86,11.55,36.86Z" style="fill:#ff693c"/><path d="M53.15,39.16c-.55.05-7.55-.1-8.6-.15-.25,1.1-1.65,6.45-1.95,6.65s-10.8-.55-11.6-.95c.9-3.4,10.15-34,10.6-34.35s12.9-.6,14.15-.35c.15.05,10,28.15,11.15,34.7-1.35.6-11.35,1.1-11.5,1A69.09,69.09,0,0,1,53.15,39.16ZM48.9,20.21c-.7,2.5-2.35,9-2.85,10.5.9-.05,4.4-.05,6.05,0-.6-1.8-2.2-8.15-2.9-10.55C49.1,20.16,49,20.21,48.9,20.21Z" style="fill:#ff693c"/><path d="M87.25,36a11.43,11.43,0,0,0,7.25-2.75c1.35.9,4.1,6,5.1,8.05-2.35,2.8-7.55,5.1-13.55,5.1C73.8,46.41,68.2,38,68.2,27.51c0-10.25,7.5-17.8,19.35-17.8,6.1,0,10.45,1.75,12,3.35,0,1.2-2.55,8-4.1,9.25A17.24,17.24,0,0,0,87.75,20a7.71,7.71,0,0,0-7.9,8C79.85,34.51,84.3,36,87.25,36Z" style="fill:#ff693c"/><path d="M115,10.31c.35.15-.25,13.4-.25,13.4s9.6-13.55,10.1-13.55,9.3,2.45,9.35,3.15-8.5,13-8.5,13c2.35,3.4,9.15,16.5,9,16.9s-8.35,3.35-10.35,3c-.4,0-6-10.95-6.65-12.35-.45.55-2.75,3.45-2.75,3.45l.1,8.15c-1,.25-10.3.45-10.7.15s-1.25-34.3-.5-35.05S114.65,10.16,115,10.31Z" style="fill:#ff693c"/><path d="M138.75,45.41c-.25-3-.4-30.3.1-34.85,3.35-.3,9.2-.5,12.9-.5,10.1,0,15.45,4.9,15.45,12.7,0,9.45-4.85,13.3-15.35,13.3H150.6c0,4.6,0,8.6-.3,9.15C150.1,45.61,138.8,45.81,138.75,45.41Zm13.8-18.8c2.3,0,4-.9,4-3.1,0-2.45-2.1-3.3-4.45-3.3a11.17,11.17,0,0,0-1.8.1c.05,1.9,0,4.3,0,6.2C150.85,26.56,151.85,26.61,152.55,26.61Z" style="fill:#ff693c"/><path d="M189.05,39.16c-.55.05-7.55-.1-8.6-.15-.25,1.1-1.65,6.45-1.95,6.65s-10.8-.55-11.6-.95c.9-3.4,10.15-34,10.6-34.35s12.9-.6,14.15-.35c.15.05,10,28.15,11.15,34.7-1.35.6-11.35,1.1-11.5,1A69.09,69.09,0,0,1,189.05,39.16ZM184.8,20.21c-.7,2.5-2.35,9-2.85,10.5.9-.05,4.4-.05,6.05,0-.6-1.8-2.2-8.15-2.9-10.55C185,20.16,184.9,20.21,184.8,20.21Z" style="fill:#ff693c"/><path d="M223.15,36a11.43,11.43,0,0,0,7.25-2.75c1.35.9,4.1,6,5.1,8.05-2.35,2.8-7.55,5.1-13.55,5.1-12.25,0-17.85-8.45-17.85-18.9,0-10.25,7.5-17.8,19.35-17.8,6.1,0,10.45,1.75,12,3.35-.05,1.2-2.55,8-4.1,9.25a17.24,17.24,0,0,0-7.65-2.3,7.71,7.71,0,0,0-7.9,8C215.75,34.51,220.2,36,223.15,36Z" style="fill:#ff693c"/><path d="M250.9,10.31c.35.15-.25,13.4-.25,13.4s9.6-13.55,10.1-13.55,9.3,2.45,9.35,3.15-8.5,13-8.5,13c2.35,3.4,9.15,16.5,9,16.9s-8.35,3.35-10.35,3c-.4,0-6-10.95-6.65-12.35-.45.55-2.75,3.45-2.75,3.45l.1,8.15c-1.05.25-10.3.45-10.7.15s-1.25-34.3-.5-35.05S250.55,10.16,250.9,10.31Z" style="fill:#ff693c"/><path d="M285.8,10.46c.4.3.35,32.85-.1,34.75-.25,1-11,.6-11.05.2-.25-3-.4-30.3.1-34.85C276.85,10.11,285.4,10.16,285.8,10.46Z" style="fill:#ff693c"/><path d="M313.75,45.46c-1.05-1.3-5.8-9.65-10.45-16.85,0,6.5.35,13.35.2,16.3-2.1.45-10.75.5-10.8,0-.3-2-.45-31.45,0-34.15.15-1,10.05-1,10.25-.7.7,1.1,6.8,10.75,10.7,18.35.05-7.35-.25-15.65,0-17.8,2.1-.45,10.35-.3,10.75,0s.05,32.15-.4,34.05C323.75,45.71,314.45,45.86,313.75,45.46Z" style="fill:#ff693c"/><path d="M348.5,36.66a11.84,11.84,0,0,0,3.2-.55c-.05-.65-.1-2.85-.1-2.85s-3.75.1-4.5.15c-.3-.4-.45-7.15-.1-7.7,1.5-.35,14.25-.75,14.65-.4s.2,16.9.05,17c-2.35,1.95-8.4,4.1-14.4,4.1-12.25,0-17.85-8.45-17.85-18.9,0-10.25,7-17.8,18.85-17.8,6.1,0,10.45,2,11.95,3.65-.05,1.2-3.5,7.6-4.6,8.75a15.07,15.07,0,0,0-7.15-2c-4.35,0-7.55,3.1-7.55,7.85C341,34.51,344.55,36.66,348.5,36.66Z" style="fill:#ff693c"/><path d="M33.15,118.89c6.78,0,10.79-3.48,12.61-4.79,2.35,1.57,7.14,10.44,8.88,14C50.55,133,41.5,137,31.06,137,9.74,137,0,122.28,0,104.1c0-17.84,13.05-31,33.67-31,10.61,0,18.18,3,20.79,5.83C54.37,81,50,92.79,47.33,95.05c-3.13-1.74-8.44-4-13.31-4a13.42,13.42,0,0,0-13.75,13.83C20.27,116.28,28,118.89,33.15,118.89Z" style="fill:#ff693c"/><path d="M96.13,124.37c-1,.09-13.14-.17-15-.26-.44,1.91-2.87,11.22-3.4,11.57S59,134.72,57.59,134C59.16,128.11,75.25,74.78,76,74.26s22.45-1.05,24.62-.61c.27.09,17.4,49,19.41,60.38-2.35,1-19.75,1.91-20,1.82S96.74,126.72,96.13,124.37Zm-7.4-33c-1.21,4.35-4.08,15.66-5,18.27,1.56-.09,7.65-.09,10.52,0-1-3.14-3.82-14.18-5-18.36C89.08,91.31,88.91,91.4,88.73,91.4Z" style="fill:#ff693c"/><path d="M161.46,109.41c3-13,7.83-33.5,9.66-35.15,1-1,16.79-1,18.53-.52.78.43,8.61,57,8.35,59.68-1.22,1.74-17.83,3.22-18,2.52-.43-2.35-1.65-19.75-3-32.36h-.34c-2.79,11.13-6.18,26.62-8.18,31.58-1.65.43-14.53.43-15.23-.26-.69-1-5.48-21.84-7.74-31.67-.09,0-.26-.09-.35-.09-1.39,10.79-2.69,27.58-3.65,32.36-3.66.27-18-1.47-18-2.34-.09-3.57,8.35-54.2,9.66-58.81.52-1.74,15.66-1.22,17.83-.79,1.74,3.13,7,22.88,9.92,35.85Z" style="fill:#ff693c"/><path d="M245.41,103.58c5.66,1.13,11,6.26,11,15,0,11.74-9.39,16.87-25.05,16.87-8.53,0-24.1-.69-24.54-1s-1.13-58.64-.87-59.33,16.71-1,18.45-1c13.83,0,27.75,3,27.75,16.53,0,7-2.7,10-6.7,12.44Zm-21-6.27a11.28,11.28,0,0,0,1.74.09c4.69,0,7.22-1.65,7.22-4.79s-4.09-4.17-6.88-4.17a14.37,14.37,0,0,0-2,.17C224.36,89.92,224.36,97.31,224.36,97.31Zm.87,23.06a28.14,28.14,0,0,0,3.56.26c5.4,0,7.4-2.09,7.4-5,0-3.48-3.05-5-7.83-5-1,0-2,.09-3.05.18C225.23,112.1,225.23,120.37,225.23,120.37Z" style="fill:#ff693c"/><path d="M323.44,105.75c0,15.49-9.91,30.89-31,30.89-18.88,0-31.14-12.44-31.14-32.8,0-15.66,10.44-30.89,30.88-30.89C310.92,73,323.44,85.39,323.44,105.75Zm-31.06-15.4c-6.87,0-11.13,5.4-11.13,14.53,0,8.27,4.44,14.1,10.79,14.1,7.13,0,10.87-5.31,10.87-14.53C302.91,94.18,298.21,90.35,292.38,90.35Z" style="fill:#ff693c"/><path d="M332.66,74.43c2-.52,13.83-.69,20.79-.69,20.62,0,33.24,13.05,33.24,30.88,0,18.18-9.92,31.32-34,31.32-7.48,0-18.7-.61-20.62-1.22C331.62,129.5,331.79,82.35,332.66,74.43Zm21.23,17.14c-1.05,0-2.35,0-3.22.09.09,8,0,18.62-.09,26.62a29.54,29.54,0,0,0,4.18.26c5.13,0,12.09-1.74,12.09-13.14C366.85,97.14,361.46,91.57,353.89,91.57Z" style="fill:#ff693c"/><path d="M415,74.43c.7.52.61,57.16-.17,60.47-.44,1.82-19.14,1-19.23.34-.43-5.22-.69-52.72.18-60.63C399.47,73.82,414.35,73.91,415,74.43Z" style="fill:#ff693c"/><path d="M461,124.37c-1,.09-13.14-.17-15-.26-.43,1.91-2.87,11.22-3.39,11.57s-18.79-1-20.18-1.65c1.56-5.92,17.66-59.25,18.44-59.77s22.44-1.05,24.62-.61c.26.09,17.4,49,19.4,60.38-2.35,1-19.75,1.91-20,1.82S461.58,126.72,461,124.37Zm-7.4-33c-1.22,4.35-4.09,15.66-5,18.27,1.57-.09,7.66-.09,10.53,0-1-3.14-3.83-14.18-5-18.36C453.93,91.31,453.75,91.4,453.58,91.4Z" style="fill:#ff693c"/></svg>