<svg xmlns="http://www.w3.org/2000/svg" viewBox="0 0 486.97 140.09"><title>backpacking-thailand-logo</title><path d="M24.22,27.21c3.25.65,6.3,3.6,6.3,8.65,0,6.75-5.4,9.7-14.4,9.7-4.9,0-13.85-.4-14.1-.6s-.65-33.7-.5-34.1,9.6-.6,10.6-.6c8,0,16,1.7,16,9.5,0,4-1.55,5.75-3.85,7.15Zm-12.1-3.6a6.7,6.7,0,0,0,1,.05c2.7,0,4.15-.95,4.15-2.75s-2.35-2.4-3.95-2.4a7.58,7.58,0,0,0-1.15.1C12.12,19.36,12.12,23.61,12.12,23.61Zm.5,13.25a15.83,15.83,0,0,0,2.05.15c3.1,0,4.25-1.2,4.25-2.9,0-2-1.75-2.85-4.5-2.85-.55,0-1.15,0-1.75.1C12.62,32.11,12.62,36.86,12.62,36.86Z" style="fill:#e89c22"/><path d="M54.22,39.16c-.55.05-7.55-.1-8.6-.15-.25,1.1-1.65,6.45-1.95,6.65s-10.8-.55-11.6-.95c.9-3.4,10.15-34,10.6-34.35s12.9-.6,14.15-.35c.15.05,10,28.15,11.16,34.7-1.36.6-11.36,1.1-11.51,1A69.09,69.09,0,0,1,54.22,39.16ZM50,20.21c-.7,2.5-2.35,9-2.85,10.5.9-.05,4.4-.05,6.05,0-.6-1.8-2.2-8.15-2.9-10.55C50.17,20.16,50.07,20.21,50,20.21Z" style="fill:#e89c22"/><path d="M88.32,36a11.43,11.43,0,0,0,7.25-2.75c1.35.9,4.11,6,5.11,8.05-2.35,2.8-7.56,5.1-13.56,5.1-12.25,0-17.85-8.45-17.85-18.9,0-10.25,7.5-17.8,19.35-17.8,6.1,0,10.46,1.75,12,3.35-.06,1.2-2.56,8-4.1,9.25A17.33,17.33,0,0,0,88.82,20a7.71,7.71,0,0,0-7.9,8C80.92,34.51,85.37,36,88.32,36Z" style="fill:#e89c22"/><path d="M116.07,10.31c.35.15-.25,13.4-.25,13.4s9.6-13.55,10.1-13.55,9.31,2.45,9.36,3.15-8.51,13-8.51,13c2.35,3.4,9.16,16.5,9.06,16.9s-8.36,3.35-10.36,3c-.4,0-6-10.95-6.65-12.35-.45.55-2.75,3.45-2.75,3.45l.1,8.15c-1,.25-10.3.45-10.7.15s-1.25-34.3-.5-35.05S115.72,10.16,116.07,10.31Z" style="fill:#e89c22"/><path d="M139.82,45.41c-.25-3-.4-30.3.1-34.85,3.35-.3,9.2-.5,12.9-.5,10.1,0,15.45,4.9,15.45,12.7,0,9.45-4.85,13.3-15.35,13.3h-1.25c0,4.6,0,8.6-.3,9.15C151.17,45.61,139.87,45.81,139.82,45.41Zm13.8-18.8c2.3,0,4-.9,4-3.1,0-2.45-2.1-3.3-4.45-3.3a11.17,11.17,0,0,0-1.8.1c.05,1.9,0,4.3,0,6.2C151.92,26.56,152.92,26.61,153.62,26.61Z" style="fill:#e89c22"/><path d="M190.12,39.16c-.55.05-7.55-.1-8.6-.15-.25,1.1-1.65,6.45-2,6.65s-10.8-.55-11.6-.95c.9-3.4,10.15-34,10.6-34.35s12.9-.6,14.15-.35c.15.05,10,28.15,11.15,34.7-1.35.6-11.35,1.1-11.5,1A69.09,69.09,0,0,1,190.12,39.16Zm-4.25-18.95c-.7,2.5-2.35,9-2.85,10.5.9-.05,4.4-.05,6,0-.6-1.8-2.2-8.15-2.9-10.55C186.07,20.16,186,20.21,185.87,20.21Z" style="fill:#e89c22"/><path d="M224.22,36a11.43,11.43,0,0,0,7.25-2.75c1.36.9,4.11,6,5.11,8.05-2.36,2.8-7.56,5.1-13.56,5.1-12.25,0-17.85-8.45-17.85-18.9,0-10.25,7.5-17.8,19.35-17.8,6.1,0,10.45,1.75,11.95,3.35-.05,1.2-2.55,8-4.1,9.25a17.24,17.24,0,0,0-7.65-2.3,7.71,7.71,0,0,0-7.9,8C216.82,34.51,221.27,36,224.22,36Z" style="fill:#e89c22"/><path d="M252,10.31c.35.15-.25,13.4-.25,13.4s9.6-13.55,10.1-13.55,9.3,2.45,9.35,3.15-8.5,13-8.5,13c2.35,3.4,9.16,16.5,9.05,16.9s-8.35,3.35-10.35,3c-.4,0-6-10.95-6.65-12.35-.45.55-2.75,3.45-2.75,3.45l.1,8.15c-1,.25-10.3.45-10.7.15s-1.25-34.3-.5-35.05S251.62,10.16,252,10.31Z" style="fill:#e89c22"/><path d="M286.87,10.46c.4.3.35,32.85-.1,34.75-.25,1-11,.6-11,.2-.25-3-.4-30.3.1-34.85C277.92,10.11,286.47,10.16,286.87,10.46Z" style="fill:#e89c22"/><path d="M314.82,45.46c-1.05-1.3-5.8-9.65-10.45-16.85,0,6.5.35,13.35.2,16.3-2.1.45-10.75.5-10.8,0-.3-2-.45-31.45,0-34.15.15-1,10.05-1,10.25-.7.7,1.1,6.8,10.75,10.7,18.35,0-7.35-.25-15.65,0-17.8,2.1-.45,10.36-.3,10.75,0s0,32.15-.39,34.05C324.83,45.71,315.52,45.86,314.82,45.46Z" style="fill:#e89c22"/><path d="M349.57,36.66a11.84,11.84,0,0,0,3.2-.55c0-.65-.1-2.85-.1-2.85s-3.75.1-4.5.15c-.3-.4-.45-7.15-.1-7.7,1.5-.35,14.25-.75,14.65-.4s.2,16.9,0,17c-2.35,1.95-8.4,4.1-14.4,4.1-12.25,0-17.85-8.45-17.85-18.9,0-10.25,7-17.8,18.85-17.8,6.1,0,10.45,2,11.95,3.65-.05,1.2-3.5,7.6-4.6,8.75a15.07,15.07,0,0,0-7.15-2c-4.35,0-7.55,3.1-7.55,7.85C342,34.51,345.62,36.66,349.57,36.66Z" style="fill:#e89c22"/><path d="M.25,74.91c.47-.74,47.58-1.85,50.63-1,1.57.28,1.3,17.31.65,17.4-1.67.28-7.87.55-15.37.83.1,18.79.28,45.63-.18,46.28s-20,1.2-20.09.46c-.37-3.79-.55-29.06-.37-46.92C8.67,92,3,91.94.72,91.66,0,88-.21,75.56.25,74.91Z" style="fill:#e89c22"/><path d="M99.38,139.23c-.19-2.12-.38-11.29-.47-21.93-5.55,0-11.66-.09-17.12-.19,0,9.26-.09,17.87-.28,22.22-3.89.83-20.64,1.11-20.73.18-.56-3.79-1.39-60.25-.56-65.25.28-1.94,20.27-1,20.64-.37s.56,11.66.74,24.62c5.56-.09,11.67-.09,17.31,0,.09-10.74.28-20.55.65-23.79,3.89-.83,19.81-.74,20.55-.18s.65,60.81-.19,64.32C119.46,140.81,99.47,140,99.38,139.23Z" style="fill:#e89c22"/><path d="M169.06,127.66c-1,.1-14-.18-15.92-.27-.46,2-3,11.94-3.61,12.31s-20-1-21.47-1.76c1.67-6.3,18.79-63,19.62-63.59s23.88-1.11,26.2-.65c.27.1,18.51,52.11,20.64,64.24-2.5,1.11-21,2-21.29,1.94S169.71,130.16,169.06,127.66ZM161.2,92.59c-1.3,4.62-4.35,16.66-5.28,19.43,1.67-.09,8.15-.09,11.2,0-1.11-3.33-4.07-15.08-5.37-19.53C161.57,92.49,161.38,92.59,161.2,92.59Z" style="fill:#e89c22"/><path d="M222.93,74.54c.74.55.65,60.81-.19,64.32-.46,1.95-20.36,1.11-20.45.37-.47-5.55-.74-56.09.18-64.51C206.36,73.89,222.19,74,222.93,74.54Z" style="fill:#e89c22"/><path d="M279.85,138.77c-.19.65-40,.37-44.15-.18-.56-6.21-.56-63.22.18-64.24.47-.65,20-1.2,20.09-.46.27,3.79.18,40.26-.19,47,8-.28,20.27-.37,23.7,0C280.12,124.89,280.49,136.64,279.85,138.77Z" style="fill:#e89c22"/><path d="M324.64,127.66c-1,.1-14-.18-15.92-.27-.46,2-3.06,11.94-3.61,12.31s-20-1-21.47-1.76c1.66-6.3,18.79-63,19.62-63.59s23.88-1.11,26.19-.65c.28.1,18.51,52.11,20.64,64.24-2.5,1.11-21,2-21.29,1.94S325.29,130.16,324.64,127.66Zm-7.87-35.07c-1.29,4.62-4.35,16.66-5.27,19.43,1.66-.09,8.14-.09,11.2,0-1.12-3.33-4.08-15.08-5.37-19.53C317.14,92.49,317,92.59,316.77,92.59Z" style="fill:#e89c22"/><path d="M396.74,139.33c-1.95-2.41-10.74-17.87-19.35-31.19,0,12,.65,24.71.37,30.17-3.89.83-19.9.92-20,0-.56-3.8-.83-58.22,0-63.22.28-1.94,18.6-1.94,19-1.29,1.3,2,12.59,19.9,19.81,34,.09-13.6-.46-29,0-32.95,3.89-.83,19.16-.55,19.9,0s.09,59.52-.74,63C415.25,139.79,398,140.07,396.74,139.33Z" style="fill:#e89c22"/><path d="M429.5,74.54c2.12-.56,14.71-.74,22.12-.74,21.93,0,35.35,13.88,35.35,32.85C487,126,476.42,140,450.78,140c-8,0-19.9-.64-21.93-1.29C428.38,133.12,428.57,83,429.5,74.54Zm22.58,18.23c-1.11,0-2.5,0-3.43.09.1,8.52,0,19.81-.09,28.33a31.73,31.73,0,0,0,4.44.27c5.47,0,12.87-1.85,12.87-14C465.87,98.69,460.13,92.77,452.08,92.77Z" style="fill:#e89c22"/><path d="M408.44,3.1a2.1,2.1,0,0,1-.74,1.33,2.5,2.5,0,0,1-1.47.51,13.93,13.93,0,0,1-2.8-.19c-.94-.15-1.87-.29-2.79-.4l-.84,4.76q-1.08,6.06-1.76,12.15t-.91,12.27q0,.38,0,.75a3,3,0,0,1-.05.73,1.05,1.05,0,0,1-.45.79,1.3,1.3,0,0,1-.9.12,7.75,7.75,0,0,1-1.05-.3,3,3,0,0,1-.94-.5,1.56,1.56,0,0,1-.51-.7,3.39,3.39,0,0,1-.06-.84q0-1.76.24-3.48t.39-3.45c.24-2.47.5-4.93.8-7.37s.66-4.88,1.09-7.32c.24-1.33.48-2.65.73-4s.49-2.65.73-4l-3-.24c-1-.08-2-.21-3.05-.39a.89.89,0,0,1-.55-.29.63.63,0,0,1-.14-.58,1.64,1.64,0,0,1,.79-1.21,3.24,3.24,0,0,1,1.43-.43,17,17,0,0,1,2.57.1c.86.09,1.72.16,2.59.22a3.56,3.56,0,0,1,.1-.47,1.76,1.76,0,0,1,.18-.39.76.76,0,0,1,.31-.25.79.79,0,0,1,.5,0A3.13,3.13,0,0,1,400,.49a2.26,2.26,0,0,1,.81.91l4.07.28,1.18,0a7.74,7.74,0,0,1,1.17.12l.51.12a1,1,0,0,1,.42.21.83.83,0,0,1,.26.37A1.13,1.13,0,0,1,408.44,3.1Z" style="fill:#e89c22"/><path d="M415.68,37.15a.79.79,0,0,1-.43.64,1.37,1.37,0,0,1-.81.08,2.78,2.78,0,0,1-.59-.17l-.58-.23a2.56,2.56,0,0,1-.72-.5,1.51,1.51,0,0,1-.33-.57,1.71,1.71,0,0,1-.07-.64c0-.23,0-.49.07-.76a1.8,1.8,0,0,0,0-.22,1.25,1.25,0,0,1,0-.19c.11-.93.23-1.87.36-2.84s.27-1.91.44-2.82c.08-.47.16-.93.25-1.4s.19-.92.29-1.38.19-.93.28-1.38.17-.92.25-1.38c0-.1,0-.19,0-.28a2.53,2.53,0,0,0,0-.28,11.33,11.33,0,0,0-1.45,1.84,22.84,22.84,0,0,0-1.24,2.16c-.38.75-.72,1.51-1,2.27s-.58,1.5-.82,2.2l-.16.49c-.18.55-.36,1.11-.55,1.68a13.06,13.06,0,0,0-.42,1.72,2.69,2.69,0,0,0,0,.81c0,.14,0,.27,0,.39a1.87,1.87,0,0,1,0,.45.92.92,0,0,1-.42.73,1.26,1.26,0,0,1-.81.07,4.86,4.86,0,0,1-.63-.16,3.32,3.32,0,0,1-.64-.27,2.87,2.87,0,0,1-.57-.39,1.27,1.27,0,0,1-.38-.51,7.3,7.3,0,0,1,0-1.71c.07-.91.18-2,.35-3.38s.35-2.85.58-4.52.47-3.39.72-5.14.51-3.5.77-5.22.51-3.31.74-4.76.43-2.7.61-3.77.29-1.82.37-2.25a2.81,2.81,0,0,1,.29-.86c.13-.25.41-.33.82-.26a2.68,2.68,0,0,1,1.18.52A1.76,1.76,0,0,1,412.14,6a3.68,3.68,0,0,1,0,.8q-.08.69-.21,1.77c-.09.72-.21,1.54-.34,2.47s-.26,1.89-.4,2.88-.29,2-.43,3-.28,1.94-.4,2.81l-.51,3.58a15.67,15.67,0,0,1,1-1.43,8.81,8.81,0,0,1,1.26-1.32,5.31,5.31,0,0,1,1.47-.88,3,3,0,0,1,1.65-.16,2.39,2.39,0,0,1,1.56.85,3.41,3.41,0,0,1,.66,1.53,6.47,6.47,0,0,1,.07,1.82c-.07.63-.14,1.21-.23,1.72l-.18.94c-.06.3-.13.6-.2.9s-.14.63-.2.95l-.18.94c-.19,1.11-.37,2.25-.53,3.42a29.38,29.38,0,0,0-.24,3.49v.34a2,2,0,0,1,0,.35C415.71,36.91,415.7,37,415.68,37.15Z" style="fill:#e89c22"/><path d="M420.92,39.81a4.14,4.14,0,0,1-.76-.24,2.67,2.67,0,0,1-.74-.45,2.17,2.17,0,0,1-.53-.65,1.29,1.29,0,0,1-.12-.83q.12-.68.3-1.32l.36-1.29v0l.42-1.59c.16-.57.31-1.19.46-1.88s.31-1.38.46-2.09.29-1.4.43-2.09l.36-1.89c.05-.34.11-.68.16-1s.11-.69.18-1,.09-.65.15-1,.13-.73.19-1.05a2.26,2.26,0,0,1,.28-.81c.12-.2.39-.26.81-.19a2.83,2.83,0,0,1,1.12.5,1.66,1.66,0,0,1,.7,1h0a3,3,0,0,1,0,.89c0,.4-.06.75-.1,1.06.35-.37.73-.76,1.16-1.16a9.83,9.83,0,0,1,1.34-1.09,6.67,6.67,0,0,1,1.45-.75,2.88,2.88,0,0,1,1.51-.13,2.18,2.18,0,0,1,1.45.78,3.06,3.06,0,0,1,.55,1.39,6.17,6.17,0,0,1,0,1.66c-.09.57-.17,1.09-.25,1.56l0,.19c0,.19-.07.38-.11.56a1.78,1.78,0,0,1-.18.49.8.8,0,0,1-.36.32,1,1,0,0,1-.59,0,3.38,3.38,0,0,1-.8-.26,3.29,3.29,0,0,1-.74-.46,2.31,2.31,0,0,1-.55-.66,1.29,1.29,0,0,1-.15-.8c0-.13,0-.26.07-.39a2.62,2.62,0,0,1,.09-.38,2.62,2.62,0,0,1,.06-.3c0-.12.06-.23.08-.34a7.59,7.59,0,0,0-1.7,1.66,21.25,21.25,0,0,0-1.48,2.21c-.46.8-.88,1.6-1.26,2.42s-.7,1.56-1,2.22v.07c-.14.49-.26,1-.36,1.45s-.2,1-.31,1.48-.24,1.16-.37,1.75-.27,1.16-.44,1.71a1.24,1.24,0,0,1-.4.66A1,1,0,0,1,420.92,39.81Z" style="fill:#e89c22"/><path d="M444,33.32A24.38,24.38,0,0,1,443,37.43a11.89,11.89,0,0,1-2.12,3.68,8.46,8.46,0,0,1-1,.93,6.55,6.55,0,0,1-1.12.77,4.62,4.62,0,0,1-1.25.48,3.5,3.5,0,0,1-1.33,0,3.39,3.39,0,0,1-1.75-.81A4.85,4.85,0,0,1,433.3,41a7.71,7.71,0,0,1-.61-2,13.54,13.54,0,0,1-.21-2.2,18.61,18.61,0,0,1,.08-2.13c.06-.68.14-1.28.23-1.79s.23-1.21.4-1.89.38-1.37.63-2.07a19.31,19.31,0,0,1,.86-2.05A10.39,10.39,0,0,1,435.81,25a7.91,7.91,0,0,1,1.44-1.45,5.49,5.49,0,0,1,1.77-.9v0a3.34,3.34,0,0,1,1.61-.14,1.22,1.22,0,0,1,.71.34.79.79,0,0,1,.12.73,3.42,3.42,0,0,1,1.91,1.65,7.47,7.47,0,0,1,.84,2.62,14.25,14.25,0,0,1,.11,2.92A23.49,23.49,0,0,1,444,33.32Zm-4.37-7a1.23,1.23,0,0,1-.72-.45,7.68,7.68,0,0,0-1.05,1.47,14.88,14.88,0,0,0-.82,1.76c-.23.61-.42,1.24-.59,1.87s-.29,1.23-.39,1.79-.16,1.06-.24,1.8a18.63,18.63,0,0,0-.11,2.25A12.48,12.48,0,0,0,436,39a3.18,3.18,0,0,0,.73,1.59,3.39,3.39,0,0,0,1.48-1.16,10,10,0,0,0,1.15-1.95,14.17,14.17,0,0,0,.79-2.21c.21-.76.36-1.41.46-2s.14-.93.2-1.58.1-1.32.11-2a12,12,0,0,0-.14-1.94,3.37,3.37,0,0,0-.53-1.44A1.68,1.68,0,0,1,439.66,26.35Z" style="fill:#e89c22"/><path d="M458.18,29.62a3.32,3.32,0,0,1-.14.49c-.06.17-.12.33-.18.47s-.13.33-.18.47a2,2,0,0,0-.13.44c-.26,1.49-.5,3-.71,4.5a34.92,34.92,0,0,0-.32,4.59c0,.59,0,1.17,0,1.73s.05,1.14.09,1.73l0,.15v0c0,.13.05.25.07.38a1.21,1.21,0,0,1,0,.38.68.68,0,0,1-.21.41,1,1,0,0,1-.37.21,1.29,1.29,0,0,1-.44,0l-.43-.05a3.47,3.47,0,0,1-1.23-.4,2.06,2.06,0,0,1-.67-.64,2,2,0,0,1-.28-.85,8.67,8.67,0,0,1-.05-1.06v-.44a3.68,3.68,0,0,1,0-.74c0-.13,0-.2,0-.19a.79.79,0,0,1,0-.19c-.29.37-.63.75-1,1.15a8.56,8.56,0,0,1-1.23,1.1,6.17,6.17,0,0,1-1.39.77,2.62,2.62,0,0,1-1.46.15,2,2,0,0,1-1.49-.91,3.81,3.81,0,0,1-.56-1.67,8.31,8.31,0,0,1,0-1.93c.09-.65.17-1.22.26-1.7q.48-2.74,1.13-5.4t1.35-5.34s0-.12.05-.2l.05-.18c0-.23.1-.43.15-.62a2.27,2.27,0,0,1,.22-.53v0a1.14,1.14,0,0,1,.37-.5.81.81,0,0,1,.6-.07,2.13,2.13,0,0,1,.7.26,2.44,2.44,0,0,1,.58.47,1.84,1.84,0,0,1,.37.63,1.26,1.26,0,0,1,.06.72c0,.13,0,.29-.08.46s-.07.33-.1.45-.05.26-.09.42-.07.31-.09.42c-.4,1.52-.76,3-1.09,4.53s-.64,3-.91,4.59c-.08.43-.15.86-.22,1.3a7.2,7.2,0,0,0-.09,1.32,9.75,9.75,0,0,0,1.82-2.34,28.35,28.35,0,0,0,1.57-3.17c.47-1.14.89-2.27,1.26-3.4s.68-2.14.92-3a1.36,1.36,0,0,1,0-.17.59.59,0,0,0,0-.17c.05-.17.1-.33.14-.49a1.1,1.1,0,0,1,.25-.43c0-.14.06-.29.1-.45a1.63,1.63,0,0,1,.2-.42.77.77,0,0,1,.34-.28.93.93,0,0,1,.54,0,2,2,0,0,1,1.41.86,2.29,2.29,0,0,1,.33,1.61,1.64,1.64,0,0,1,.12.4A1.42,1.42,0,0,1,458.18,29.62Z" style="fill:#e89c22"/><path d="M472.66,42.39a1.35,1.35,0,0,1-.23.54,5.58,5.58,0,0,1-.45.61q-.27.32-.57.63l-.57.57-.45.44-.48.56-.41.53c0,.32-.08.67-.11,1s-.06.73-.09,1.08c-.11,1.68-.26,3.39-.42,5.13s-.4,3.43-.69,5.08a16.17,16.17,0,0,1-.69,2.65,7.72,7.72,0,0,1-1.23,2.31,5.09,5.09,0,0,1-1.94,1.5,4.74,4.74,0,0,1-2.77.23,3.89,3.89,0,0,1-1.8-.74,3.39,3.39,0,0,1-1.05-1.31,4.67,4.67,0,0,1-.4-1.72,8,8,0,0,1,.12-1.94,17.91,17.91,0,0,1,1.15-3.86A31.76,31.76,0,0,1,461.46,52a37.8,37.8,0,0,1,2.35-3.52c.84-1.13,1.68-2.21,2.53-3.23,0,0,0-.07,0-.11a.91.91,0,0,0,0-.21c-.28.35-.59.7-.92,1.06a6.27,6.27,0,0,1-1.08.94,5,5,0,0,1-1.23.6,2.7,2.7,0,0,1-1.36.08,2.78,2.78,0,0,1-1.6-.77,3.48,3.48,0,0,1-.85-1.42,5.75,5.75,0,0,1-.28-1.73,8.43,8.43,0,0,1,.13-1.71,17.28,17.28,0,0,1,.42-1.79c.18-.58.37-1.14.56-1.69.32-.86.7-1.8,1.13-2.81a30.26,30.26,0,0,1,1.48-3,21.85,21.85,0,0,1,1.8-2.7,9.61,9.61,0,0,1,2.13-2l.22-.14a5.85,5.85,0,0,1,.83-.48,1.39,1.39,0,0,1,.89-.16.81.81,0,0,1,.45.23,1.39,1.39,0,0,1,.28.43,2,2,0,0,1,.14.54,1.51,1.51,0,0,1,0,.52,1.24,1.24,0,0,1-.33.58h.05a2,2,0,0,1,1.73,1.7,1.51,1.51,0,0,1,.3.64,1.89,1.89,0,0,1,0,.75,2.53,2.53,0,0,1-.1.42,3.73,3.73,0,0,1-.14.4,4,4,0,0,0-.15.4,2.61,2.61,0,0,0-.08.36c-.07.36-.14.82-.22,1.37s-.16,1.12-.23,1.72-.14,1.19-.2,1.76-.11,1.08-.15,1.5a2.06,2.06,0,0,1,.46-.31.91.91,0,0,1,.57-.08,1.29,1.29,0,0,1,.58.3,3.25,3.25,0,0,1,1,1.3A1.07,1.07,0,0,1,472.66,42.39ZM465.1,57.31c.19-1.09.35-2.11.47-3.08s.22-2,.32-3.1c-.41.64-.83,1.33-1.27,2.07s-.84,1.5-1.2,2.27a24.37,24.37,0,0,0-1,2.32,12,12,0,0,0-.62,2.24l0,.17a10.42,10.42,0,0,0-.14,1.2,1.77,1.77,0,0,0,.27,1.13l.27,0a1.12,1.12,0,0,0,.86-.19,2.7,2.7,0,0,0,.69-.73,5.62,5.62,0,0,0,.53-1.07,9.1,9.1,0,0,0,.39-1.22q.16-.61.27-1.17C465,57.83,465.06,57.54,465.1,57.31Zm2.7-26c0-.09,0-.2.07-.31a1.46,1.46,0,0,1,.12-.35l-.21.19c-.15.12-.29.24-.43.34a4.27,4.27,0,0,0-.38.36,9.32,9.32,0,0,0-1.52,2.17,29,29,0,0,0-1.32,2.92c-.39,1-.73,2-1,3s-.49,1.88-.62,2.62c-.07.37-.12.74-.17,1.11a3.32,3.32,0,0,0,.05,1.13,3.22,3.22,0,0,0,.69-.69c.19-.25.38-.52.56-.8a17.09,17.09,0,0,0,1.4-2.58c.44-1,.84-2,1.19-3.11s.67-2.15.94-3.2S467.63,32.16,467.8,31.31Z" style="fill:#e89c22"/><path d="M485.14,49.39a.79.79,0,0,1-.43.65,1.45,1.45,0,0,1-.81.08,3.53,3.53,0,0,1-.59-.17,5,5,0,0,1-.58-.24,2.37,2.37,0,0,1-.72-.49,1.51,1.51,0,0,1-.33-.57,1.74,1.74,0,0,1-.07-.65c0-.23,0-.48.07-.75a2,2,0,0,0,0-.22,1.38,1.38,0,0,1,0-.2c.11-.92.23-1.86.36-2.83s.28-1.91.44-2.83c.08-.46.16-.92.25-1.39s.19-.92.29-1.39.19-.92.28-1.37.17-.92.25-1.38c0-.1,0-.19,0-.28a2.62,2.62,0,0,0,0-.28,11.24,11.24,0,0,0-1.45,1.83A21.82,21.82,0,0,0,481,39.08c-.38.75-.72,1.51-1,2.27s-.58,1.5-.82,2.2L479,44l-.55,1.68a13.06,13.06,0,0,0-.42,1.72,2.69,2.69,0,0,0,0,.81c0,.14,0,.27,0,.39a2.92,2.92,0,0,1-.05.45.94.94,0,0,1-.42.73,1.34,1.34,0,0,1-.81.07,4.86,4.86,0,0,1-.63-.16,3.35,3.35,0,0,1-.64-.28,3.14,3.14,0,0,1-.57-.38,1.42,1.42,0,0,1-.38-.51,7.3,7.3,0,0,1,0-1.71c.07-.92.18-2,.35-3.39s.35-2.85.58-4.52.47-3.38.72-5.14.51-3.49.77-5.22.51-3.3.74-4.75.44-2.7.61-3.77.29-1.82.37-2.25a2.72,2.72,0,0,1,.29-.86c.13-.25.41-.34.82-.26a2.66,2.66,0,0,1,1.18.51,1.81,1.81,0,0,1,.67,1.08,3.07,3.07,0,0,1,0,.8q-.07.69-.21,1.77c-.09.72-.21,1.54-.34,2.47s-.26,1.89-.4,2.88-.29,2-.43,3-.28,1.94-.4,2.81l-.5,3.58a17,17,0,0,1,1-1.44,9.24,9.24,0,0,1,1.26-1.31,5.31,5.31,0,0,1,1.47-.88,3,3,0,0,1,1.65-.16,2.39,2.39,0,0,1,1.56.85,3.41,3.41,0,0,1,.66,1.53,6.45,6.45,0,0,1,.07,1.82c-.06.63-.14,1.2-.23,1.72l-.18.93c-.06.31-.13.61-.2.91s-.14.63-.2.94l-.18,1c-.19,1.11-.37,2.25-.53,3.42a29.38,29.38,0,0,0-.24,3.49v.34a2,2,0,0,1,0,.35A3.6,3.6,0,0,1,485.14,49.39Z" style="fill:#e89c22"/></svg>