<svg xmlns="http://www.w3.org/2000/svg" viewBox="0 0 487 149.61"><title>backpacking-vietnam-logo</title><path d="M408.47,3.1a2.1,2.1,0,0,1-.74,1.33,2.55,2.55,0,0,1-1.47.51,13.88,13.88,0,0,1-2.8-.19c-.94-.15-1.87-.29-2.8-.4l-.84,4.76q-1.06,6.06-1.75,12.15t-.92,12.27l0,.75a3,3,0,0,1,0,.73,1.09,1.09,0,0,1-.45.79,1.3,1.3,0,0,1-.9.12,7.36,7.36,0,0,1-1.05-.3,3.12,3.12,0,0,1-.94-.5,1.42,1.42,0,0,1-.51-.7,3.39,3.39,0,0,1-.06-.84,33.52,33.52,0,0,1,.24-3.48c.14-1.15.26-2.3.39-3.45q.34-3.7.8-7.37T395.75,12l.72-4c.25-1.31.5-2.65.74-4l-3-.24c-1-.08-2-.21-3-.39a.92.92,0,0,1-.56-.29.66.66,0,0,1-.13-.58,1.66,1.66,0,0,1,.78-1.21,3.32,3.32,0,0,1,1.44-.43,16.92,16.92,0,0,1,2.56.1c.86.09,1.73.16,2.59.22,0-.16.07-.32.11-.47a1.17,1.17,0,0,1,.18-.39.76.76,0,0,1,.31-.25.79.79,0,0,1,.5,0A3.13,3.13,0,0,1,400,.49a2.17,2.17,0,0,1,.8.91l4.07.28,1.18,0a7.48,7.48,0,0,1,1.17.12,4.37,4.37,0,0,1,.52.12,1,1,0,0,1,.42.21.88.88,0,0,1,.26.36A1.18,1.18,0,0,1,408.47,3.1Z" style="fill:#2dcdff"/><path d="M415.71,37.15a.8.8,0,0,1-.44.64,1.32,1.32,0,0,1-.8.08,2.62,2.62,0,0,1-.59-.17c-.21-.07-.4-.15-.58-.23a2.56,2.56,0,0,1-.72-.5,1.51,1.51,0,0,1-.33-.57,1.71,1.71,0,0,1-.08-.64c0-.23,0-.48.08-.76a1.8,1.8,0,0,0,0-.22,1.11,1.11,0,0,1,0-.19c.12-.93.24-1.87.37-2.84s.27-1.91.43-2.82c.08-.47.17-.93.26-1.4s.18-.92.28-1.38.19-.93.28-1.38.18-.91.26-1.38c0-.1,0-.19,0-.28s0-.18,0-.28a10.81,10.81,0,0,0-1.45,1.84,22.84,22.84,0,0,0-1.24,2.16c-.38.75-.73,1.51-1,2.27s-.59,1.5-.83,2.2l-.16.49q-.27.83-.54,1.68a13.11,13.11,0,0,0-.43,1.72,3.07,3.07,0,0,0,0,.81c0,.14,0,.27,0,.39a2.57,2.57,0,0,1,0,.45.9.9,0,0,1-.43.73,1.23,1.23,0,0,1-.8.07,4.86,4.86,0,0,1-.63-.16,3.71,3.71,0,0,1-.65-.27,3.12,3.12,0,0,1-.56-.39,1.27,1.27,0,0,1-.38-.51,7.07,7.07,0,0,1,0-1.71c.07-.91.19-2,.35-3.38s.36-2.85.59-4.52.47-3.39.72-5.15.51-3.49.77-5.21.51-3.31.74-4.76l.6-3.77c.18-1.07.3-1.82.38-2.25a2.8,2.8,0,0,1,.28-.86c.14-.25.41-.33.83-.26a2.69,2.69,0,0,1,1.17.52A1.77,1.77,0,0,1,412.17,6a3.68,3.68,0,0,1,0,.8q-.08.69-.21,1.77c-.1.72-.21,1.54-.34,2.47s-.27,1.89-.41,2.88l-.42,3c-.15,1-.28,1.93-.4,2.8l-.51,3.58a15.16,15.16,0,0,1,1-1.44,8.25,8.25,0,0,1,1.26-1.31,5.17,5.17,0,0,1,1.47-.88,3,3,0,0,1,1.65-.16,2.41,2.41,0,0,1,1.56.85,3.41,3.41,0,0,1,.66,1.53,6.12,6.12,0,0,1,.06,1.82c-.06.63-.13,1.21-.22,1.72q-.09.48-.18.93c-.06.31-.13.61-.2.91s-.14.63-.2.95-.12.62-.18.94c-.2,1.11-.37,2.25-.53,3.42a25.7,25.7,0,0,0-.24,3.49v.34c0,.1,0,.22,0,.35S415.73,37,415.71,37.15Z" style="fill:#2dcdff"/><path d="M421,39.81a3.75,3.75,0,0,1-.77-.24,2.82,2.82,0,0,1-.74-.45,2.13,2.13,0,0,1-.52-.65,1.23,1.23,0,0,1-.12-.83q.12-.68.3-1.32c.11-.44.23-.86.36-1.29v0l.43-1.59c.15-.57.3-1.19.46-1.88s.3-1.38.45-2.09.3-1.4.43-2.09.26-1.32.36-1.89c.06-.34.12-.68.17-1s.11-.69.17-1,.09-.65.16-1,.13-.73.18-1.05a2.47,2.47,0,0,1,.28-.81c.13-.2.4-.26.82-.19a2.74,2.74,0,0,1,1.11.5,1.65,1.65,0,0,1,.71,1h0a3,3,0,0,1,0,.89c0,.4-.07.75-.1,1.06.34-.37.73-.76,1.16-1.16a9.83,9.83,0,0,1,1.34-1.09,6.45,6.45,0,0,1,1.45-.75,2.87,2.87,0,0,1,1.51-.13,2.21,2.21,0,0,1,1.45.78,2.94,2.94,0,0,1,.54,1.39,5.45,5.45,0,0,1,0,1.66q-.12.86-.24,1.56l0,.19c0,.19-.07.38-.11.56a1.52,1.52,0,0,1-.19.49.78.78,0,0,1-.35.32,1,1,0,0,1-.59,0,3.38,3.38,0,0,1-.8-.26,3.59,3.59,0,0,1-.75-.46,2.56,2.56,0,0,1-.54-.65,1.26,1.26,0,0,1-.15-.81l.06-.39c0-.13.06-.25.1-.38a2.62,2.62,0,0,1,.06-.3c0-.12,0-.23.07-.34a8,8,0,0,0-1.69,1.65,22.53,22.53,0,0,0-1.48,2.22c-.46.8-.88,1.6-1.26,2.42s-.7,1.56-1,2.22l0,.07c-.13.49-.25,1-.35,1.45s-.21,1-.31,1.48-.24,1.16-.37,1.75-.28,1.16-.44,1.71a1.3,1.3,0,0,1-.4.66A1,1,0,0,1,421,39.81Z" style="fill:#2dcdff"/><path d="M444.06,33.32A26.74,26.74,0,0,1,443,37.43a11.72,11.72,0,0,1-2.13,3.68,8.46,8.46,0,0,1-1,.93,6.89,6.89,0,0,1-1.11.77,4.75,4.75,0,0,1-1.25.48,3.5,3.5,0,0,1-1.33,0,3.35,3.35,0,0,1-1.75-.81A4.7,4.7,0,0,1,433.33,41a8.12,8.12,0,0,1-.62-2,14.74,14.74,0,0,1-.2-2.19,21.35,21.35,0,0,1,.07-2.14c.07-.68.14-1.28.23-1.79s.24-1.21.41-1.89.38-1.37.63-2.07a17.43,17.43,0,0,1,.86-2.05A10.39,10.39,0,0,1,435.84,25a7.67,7.67,0,0,1,1.44-1.46,5.46,5.46,0,0,1,1.77-.89v0a3.33,3.33,0,0,1,1.61-.14,1.25,1.25,0,0,1,.71.34.79.79,0,0,1,.12.73,3.42,3.42,0,0,1,1.91,1.65,7.68,7.68,0,0,1,.84,2.62,13.58,13.58,0,0,1,.1,2.92A24,24,0,0,1,444.06,33.32Zm-4.37-7a1.2,1.2,0,0,1-.72-.45,7.27,7.27,0,0,0-1.05,1.47,13.44,13.44,0,0,0-.82,1.76,16.93,16.93,0,0,0-.59,1.87c-.16.63-.29,1.23-.39,1.79s-.16,1.07-.24,1.8a18.63,18.63,0,0,0-.11,2.25A10.8,10.8,0,0,0,436,39a3.22,3.22,0,0,0,.72,1.59,3.34,3.34,0,0,0,1.48-1.16,9.82,9.82,0,0,0,1.15-1.95,14.2,14.2,0,0,0,.8-2.21c.21-.76.36-1.41.46-2s.14-.93.2-1.58.1-1.31.11-2a13.56,13.56,0,0,0-.14-1.95,3.32,3.32,0,0,0-.53-1.43A1.68,1.68,0,0,1,439.69,26.35Z" style="fill:#2dcdff"/><path d="M458.2,29.62a2.38,2.38,0,0,1-.13.49c-.07.17-.13.33-.18.47l-.19.47a1.93,1.93,0,0,0-.12.44c-.27,1.49-.5,3-.71,4.5a34.92,34.92,0,0,0-.33,4.59c0,.59,0,1.17,0,1.73s0,1.14.09,1.73l0,.15v0c0,.13,0,.25.07.38a1,1,0,0,1,0,.38.72.72,0,0,1-.2.41,1.09,1.09,0,0,1-.38.21,1.27,1.27,0,0,1-.44,0l-.42-.05a3.69,3.69,0,0,1-1.23-.4,2,2,0,0,1-.67-.64,1.86,1.86,0,0,1-.28-.86,6.91,6.91,0,0,1-.05-1v-.44a3.68,3.68,0,0,1,0-.74c0-.13,0-.2,0-.19s0,0,0-.19c-.3.36-.63.75-1,1.15a9.13,9.13,0,0,1-1.23,1.1,6.17,6.17,0,0,1-1.39.77,2.65,2.65,0,0,1-1.47.15,2.07,2.07,0,0,1-1.49-.91,3.94,3.94,0,0,1-.56-1.67,8.32,8.32,0,0,1,0-1.93c.08-.65.17-1.22.25-1.7q.49-2.74,1.14-5.41t1.35-5.34l0-.18a1.08,1.08,0,0,0,0-.19l.16-.62a1.91,1.91,0,0,1,.22-.53v0a1.07,1.07,0,0,1,.37-.5.75.75,0,0,1,.59-.07,2.05,2.05,0,0,1,.7.26,2.49,2.49,0,0,1,.59.47,2,2,0,0,1,.37.63,1.46,1.46,0,0,1,.06.72c0,.13-.05.29-.08.46a3,3,0,0,1-.11.45c0,.12,0,.26-.08.42s-.07.31-.09.42c-.4,1.52-.76,3-1.09,4.53s-.64,3-.91,4.59c-.08.43-.15.86-.22,1.3a8.2,8.2,0,0,0-.1,1.32A9.52,9.52,0,0,0,451,38.37a27.48,27.48,0,0,0,1.56-3.17c.48-1.14.9-2.27,1.27-3.4s.68-2.14.92-3a1.36,1.36,0,0,1,0-.17,1.36,1.36,0,0,0,0-.17c0-.17.09-.33.14-.49a1,1,0,0,1,.25-.43c0-.14.06-.29.1-.45a1.36,1.36,0,0,1,.2-.42.8.8,0,0,1,.33-.28.94.94,0,0,1,.54,0,2,2,0,0,1,1.41.86,2.33,2.33,0,0,1,.34,1.6,1.4,1.4,0,0,1,.11.41A1.14,1.14,0,0,1,458.2,29.62Z" style="fill:#2dcdff"/><path d="M472.69,42.38a1.47,1.47,0,0,1-.23.55,5.74,5.74,0,0,1-.46.61,8.11,8.11,0,0,1-.57.63q-.3.31-.57.57l-.45.44-.47.56-.41.53c0,.32-.08.67-.11,1s-.06.73-.09,1.08q-.18,2.52-.42,5.13c-.17,1.74-.4,3.43-.69,5.08a16.44,16.44,0,0,1-.69,2.65,7.87,7.87,0,0,1-1.24,2.31,4.94,4.94,0,0,1-1.94,1.5,4.71,4.71,0,0,1-2.76.23,4,4,0,0,1-1.81-.74,3.46,3.46,0,0,1-1-1.31,4.67,4.67,0,0,1-.4-1.72,8.49,8.49,0,0,1,.11-1.94,18,18,0,0,1,1.16-3.86A30.29,30.29,0,0,1,461.49,52a41.32,41.32,0,0,1,2.34-3.52c.85-1.13,1.69-2.21,2.53-3.23a.43.43,0,0,0,0-.11,1.1,1.1,0,0,0,0-.21c-.27.35-.58.7-.91,1.06a6,6,0,0,1-1.09.94,4.77,4.77,0,0,1-1.22.6,2.82,2.82,0,0,1-1.36.09,2.85,2.85,0,0,1-1.6-.78,3.5,3.5,0,0,1-.86-1.42,5.75,5.75,0,0,1-.27-1.73,8.43,8.43,0,0,1,.13-1.71,15,15,0,0,1,.42-1.79c.18-.58.36-1.14.56-1.69.32-.86.69-1.8,1.13-2.81a30.16,30.16,0,0,1,1.47-3A21,21,0,0,1,464.6,30a9.44,9.44,0,0,1,2.13-2l.22-.14a5.85,5.85,0,0,1,.83-.48,1.37,1.37,0,0,1,.89-.16.81.81,0,0,1,.45.23,1.45,1.45,0,0,1,.28.43,2.38,2.38,0,0,1,.14.54,2.26,2.26,0,0,1,0,.52,1.31,1.31,0,0,1-.33.59h.05a2,2,0,0,1,1.73,1.7,1.51,1.51,0,0,1,.3.64,2.1,2.1,0,0,1,0,.75,4,4,0,0,1-.1.41,3.26,3.26,0,0,1-.14.41,4,4,0,0,0-.15.4,2.58,2.58,0,0,0-.09.35q-.09.56-.21,1.38c-.08.55-.16,1.12-.23,1.72s-.14,1.19-.2,1.76-.11,1.08-.15,1.5a1.86,1.86,0,0,1,.46-.31.85.85,0,0,1,.57-.08,1.29,1.29,0,0,1,.58.3,2.91,2.91,0,0,1,.56.6,3.08,3.08,0,0,1,.4.7A1.13,1.13,0,0,1,472.69,42.38Zm-7.56,14.93c.19-1.09.34-2.11.46-3.08s.23-2,.33-3.1c-.41.64-.84,1.33-1.27,2.07s-.84,1.5-1.21,2.27-.69,1.54-1,2.32a12.74,12.74,0,0,0-.61,2.24l0,.17a8.59,8.59,0,0,0-.14,1.2,1.77,1.77,0,0,0,.27,1.13l.26,0a1.15,1.15,0,0,0,.87-.19,2.53,2.53,0,0,0,.68-.73,5.1,5.1,0,0,0,.54-1.07c.15-.4.28-.81.39-1.22s.19-.8.27-1.17S465.09,57.54,465.13,57.31Zm2.7-26c0-.09,0-.2.06-.31a2.19,2.19,0,0,1,.13-.35l-.21.19-.43.35a3.16,3.16,0,0,0-.39.35,9.62,9.62,0,0,0-1.51,2.17,29,29,0,0,0-1.32,2.92c-.39,1-.74,2-1,3.06s-.49,1.87-.62,2.61c-.07.37-.12.74-.17,1.11a3.08,3.08,0,0,0,0,1.13,3.76,3.76,0,0,0,.69-.69c.19-.25.38-.52.56-.8a17.09,17.09,0,0,0,1.4-2.58c.44-1,.83-2,1.19-3.11s.67-2.15.94-3.2S467.66,32.16,467.83,31.31Z" style="fill:#2dcdff"/><path d="M485.17,49.39a.8.8,0,0,1-.44.65,1.41,1.41,0,0,1-.8.08,3.28,3.28,0,0,1-.59-.17l-.58-.24a2.21,2.21,0,0,1-.72-.5,1.41,1.41,0,0,1-.33-.56,1.74,1.74,0,0,1-.08-.65c0-.22,0-.48.08-.75a2,2,0,0,0,0-.22c0-.07,0-.13,0-.2.12-.92.24-1.86.37-2.83s.27-1.91.43-2.83c.09-.46.17-.92.26-1.39s.19-.92.28-1.39.2-.92.28-1.37.18-.92.26-1.38c0-.1,0-.19,0-.28s0-.19,0-.28a10.72,10.72,0,0,0-1.45,1.83A21.82,21.82,0,0,0,481,39.08c-.38.75-.72,1.51-1,2.27s-.58,1.5-.82,2.2L479,44c-.18.55-.36,1.1-.54,1.68a14.91,14.91,0,0,0-.43,1.72,3.07,3.07,0,0,0,0,.81c0,.14,0,.27,0,.39a2.74,2.74,0,0,1,0,.45.92.92,0,0,1-.43.73,1.29,1.29,0,0,1-.8.07,4.86,4.86,0,0,1-.63-.16,3.75,3.75,0,0,1-.65-.28,3.67,3.67,0,0,1-.56-.38,1.42,1.42,0,0,1-.38-.51,7.3,7.3,0,0,1,0-1.71c.06-.91.18-2,.34-3.39s.36-2.85.59-4.52.47-3.38.72-5.14.51-3.49.77-5.22.51-3.3.74-4.75l.6-3.77c.18-1.07.3-1.82.38-2.26A2.74,2.74,0,0,1,479,17c.14-.25.41-.34.83-.26a2.62,2.62,0,0,1,1.17.51,1.82,1.82,0,0,1,.68,1.08,3.69,3.69,0,0,1,0,.8q-.07.69-.21,1.77c-.1.72-.21,1.54-.34,2.47s-.27,1.88-.41,2.88l-.42,3c-.15,1-.28,1.94-.4,2.81l-.51,3.58a17.26,17.26,0,0,1,1-1.44,8.25,8.25,0,0,1,1.26-1.31,5.31,5.31,0,0,1,1.47-.88,3,3,0,0,1,1.65-.16,2.39,2.39,0,0,1,1.56.85,3.41,3.41,0,0,1,.66,1.53A6.45,6.45,0,0,1,487,36c-.07.63-.14,1.2-.23,1.72l-.18.93c-.06.31-.13.61-.2.91s-.14.63-.2.94l-.18,1c-.2,1.11-.37,2.25-.53,3.42a25.7,25.7,0,0,0-.24,3.49v.34a2,2,0,0,1,0,.35A3.6,3.6,0,0,1,485.17,49.39Z" style="fill:#2dcdff"/><path d="M25.25,28.21c3.25.65,6.3,3.6,6.3,8.65,0,6.75-5.4,9.7-14.4,9.7-4.9,0-13.85-.4-14.1-.6s-.65-33.7-.5-34.1,9.6-.6,10.6-.6c8,0,16,1.7,16,9.5,0,4-1.55,5.75-3.85,7.15Zm-12.1-3.6a6.7,6.7,0,0,0,1,.05c2.7,0,4.15-.95,4.15-2.75s-2.35-2.4-4-2.4a7.58,7.58,0,0,0-1.15.1C13.15,20.36,13.15,24.61,13.15,24.61Zm.5,13.25a15.83,15.83,0,0,0,2,.15c3.1,0,4.25-1.2,4.25-2.9,0-2-1.75-2.85-4.5-2.85-.55,0-1.15.05-1.75.1C13.65,33.11,13.65,37.86,13.65,37.86Z" style="fill:#2dcdff"/><path d="M55.25,40.16c-.55.05-7.55-.1-8.6-.15-.25,1.1-1.65,6.45-1.95,6.65s-10.8-.55-11.6-.95c.9-3.4,10.15-34.06,10.6-34.35s12.9-.6,14.15-.35c.15.05,10,28.15,11.15,34.7-1.35.6-11.35,1.1-11.5,1A69.09,69.09,0,0,1,55.25,40.16ZM51,21.21c-.7,2.5-2.35,9-2.85,10.5.9-.05,4.4-.05,6.05,0-.6-1.8-2.2-8.15-2.9-10.55C51.2,21.16,51.1,21.21,51,21.21Z" style="fill:#2dcdff"/><path d="M89.35,37a11.43,11.43,0,0,0,7.25-2.75c1.35.9,4.1,6,5.1,8.05-2.35,2.8-7.55,5.1-13.55,5.1C75.9,47.41,70.3,39,70.3,28.51c0-10.25,7.5-17.8,19.35-17.8,6.1,0,10.45,1.75,11.95,3.35,0,1.2-2.55,8-4.1,9.25A17.24,17.24,0,0,0,89.85,21,7.71,7.71,0,0,0,82,29C82,35.51,86.4,37,89.35,37Z" style="fill:#2dcdff"/><path d="M117.1,11.31c.35.15-.25,13.4-.25,13.4s9.6-13.56,10.1-13.56,9.3,2.46,9.35,3.16-8.5,13-8.5,13c2.35,3.4,9.15,16.5,9,16.9s-8.35,3.35-10.35,3c-.4,0-6-10.95-6.65-12.35-.45.55-2.75,3.45-2.75,3.45l.1,8.15c-1,.25-10.3.45-10.7.15s-1.25-34.3-.5-35.05S116.75,11.15,117.1,11.31Z" style="fill:#2dcdff"/><path d="M140.85,46.41c-.25-3-.4-30.3.1-34.85,3.35-.3,9.2-.5,12.9-.5,10.1,0,15.45,4.9,15.45,12.7,0,9.45-4.85,13.3-15.35,13.3H152.7c0,4.6,0,8.6-.3,9.15C152.2,46.61,140.9,46.81,140.85,46.41Zm13.8-18.8c2.3,0,4-.9,4-3.1,0-2.45-2.1-3.3-4.45-3.3a11.17,11.17,0,0,0-1.8.1c.05,1.9,0,4.3,0,6.2C153,27.56,154,27.61,154.65,27.61Z" style="fill:#2dcdff"/><path d="M191.15,40.16c-.55.05-7.55-.1-8.6-.15-.25,1.1-1.65,6.45-2,6.65s-10.8-.55-11.6-.95c.9-3.4,10.15-34.06,10.6-34.35s12.9-.6,14.15-.35c.15.05,10,28.15,11.15,34.7-1.35.6-11.35,1.1-11.5,1A69.09,69.09,0,0,1,191.15,40.16ZM186.9,21.21c-.7,2.5-2.35,9-2.85,10.5.9-.05,4.4-.05,6,0-.6-1.8-2.2-8.15-2.9-10.55C187.1,21.16,187,21.21,186.9,21.21Z" style="fill:#2dcdff"/><path d="M225.25,37a11.43,11.43,0,0,0,7.25-2.75c1.35.9,4.1,6,5.1,8.05-2.35,2.8-7.55,5.1-13.55,5.1-12.25,0-17.85-8.45-17.85-18.9,0-10.25,7.5-17.8,19.35-17.8,6.1,0,10.45,1.75,11.95,3.35-.05,1.2-2.55,8-4.1,9.25a17.24,17.24,0,0,0-7.65-2.3,7.71,7.71,0,0,0-7.9,8C217.85,35.51,222.3,37,225.25,37Z" style="fill:#2dcdff"/><path d="M253,11.31c.35.15-.25,13.4-.25,13.4s9.6-13.56,10.1-13.56,9.3,2.46,9.35,3.16-8.5,13-8.5,13c2.35,3.4,9.15,16.5,9.05,16.9s-8.35,3.35-10.35,3c-.4,0-5.95-10.95-6.65-12.35-.45.55-2.75,3.45-2.75,3.45l.1,8.15c-1,.25-10.3.45-10.7.15s-1.25-34.3-.5-35.05S252.65,11.15,253,11.31Z" style="fill:#2dcdff"/><path d="M287.9,11.46c.4.3.35,32.85-.1,34.75-.25,1-11,.6-11.05.2-.25-3-.4-30.3.1-34.85C279,11.11,287.5,11.15,287.9,11.46Z" style="fill:#2dcdff"/><path d="M315.85,46.46c-1.05-1.3-5.8-9.65-10.45-16.85,0,6.5.35,13.35.2,16.3-2.1.45-10.75.5-10.8,0-.3-2-.45-31.45,0-34.15.15-1,10.05-1,10.25-.7.7,1.09,6.8,10.75,10.7,18.35.05-7.35-.25-15.65,0-17.8,2.1-.46,10.35-.3,10.75,0s.05,32.15-.4,34.05C325.85,46.71,316.55,46.86,315.85,46.46Z" style="fill:#2dcdff"/><path d="M350.6,37.66a11.84,11.84,0,0,0,3.2-.55c-.05-.65-.1-2.85-.1-2.85s-3.75.1-4.5.15c-.3-.4-.45-7.15-.1-7.7,1.5-.35,14.25-.75,14.65-.4s.2,16.9.05,17c-2.35,1.95-8.4,4.1-14.4,4.1-12.25,0-17.85-8.45-17.85-18.9,0-10.25,7-17.8,18.85-17.8,6.1,0,10.45,2,12,3.65-.05,1.2-3.5,7.6-4.6,8.75a15.07,15.07,0,0,0-7.15-2c-4.35,0-7.55,3.1-7.55,7.85C343.05,35.51,346.65,37.66,350.6,37.66Z" style="fill:#2dcdff"/><path d="M35.43,120.32C37,112,44.09,82.7,46.48,74.67c.63-.41,23.66.42,24.18,2-1.67,8.76-20.43,71-21.36,71.6s-24.39,1.25-27,.73C22,148.88,2.4,90.31,0,76.65c.94-1.77,23.35-2.91,24-2.18,1,1.77,9.28,37.41,10.84,46C35,120.43,35.23,120.32,35.43,120.32Z" style="fill:#2dcdff"/><path d="M102.65,75.72c.84.62.73,68.47-.21,72.43-.52,2.19-22.93,1.25-23,.42-.52-6.26-.83-63.16.21-72.65C84,75,101.82,75.09,102.65,75.72Z" style="fill:#2dcdff"/><path d="M168.31,148.57c1.14.62-40.65.62-51.8-.21-.52-7.4.21-57.84.94-72.85,11.78-.73,51.48-.84,51.8-.21.72,2.4.83,15,.1,19.49-3.86.42-21.37.31-30.33,0l.21,7c10.53-.1,21.57.21,22.2.83,1.15,1.15.21,17.93.21,18.45s-11.47.63-22.51.31v7.93c9.38-.32,25.63-.32,29.28,0C169.14,133.77,169,146.17,168.31,148.57Z" style="fill:#2dcdff"/><path d="M176.33,76.13c.52-.83,53.57-2.08,57-1.14,1.77.31,1.46,19.49.73,19.59-1.88.31-8.86.63-17.3.94.1,21.15.31,51.38-.21,52.11s-22.51,1.35-22.62.52c-.42-4.27-.62-32.73-.42-52.84-7.71.1-14.07,0-16.67-.31C176,90.83,175.81,76.86,176.33,76.13Z" style="fill:#2dcdff"/><path d="M287.94,148.67c-2.19-2.71-12.09-20.11-21.78-35.12,0,13.55.73,27.82.42,34-4.38.94-22.41,1-22.51,0-.63-4.27-.94-65.55,0-71.18.31-2.19,20.94-2.19,21.36-1.46,1.46,2.3,14.17,22.41,22.3,38.25.11-15.32-.52-32.62,0-37.1,4.38-.94,21.58-.63,22.41,0s.11,67-.83,71C308.79,149.19,289.4,149.5,287.94,148.67Z" style="fill:#2dcdff"/><path d="M365,135.54c-1.15.1-15.74-.21-17.93-.31-.52,2.29-3.44,13.44-4.06,13.86s-22.52-1.15-24.18-2c1.87-7.09,21.15-71,22.09-71.6s26.89-1.25,29.5-.73c.31.1,20.84,58.67,23.24,72.33-2.82,1.25-23.66,2.29-24,2.19S365.69,138.35,365,135.54ZM356.1,96c-1.46,5.21-4.9,18.76-5.94,21.89,1.87-.11,9.17-.11,12.61,0-1.25-3.76-4.59-17-6-22C356.51,95.93,356.31,96,356.1,96Z" style="fill:#2dcdff"/><path d="M443.22,117.61c3.65-15.53,9.38-40.12,11.57-42.1,1.25-1.15,20.11-1.15,22.2-.63.94.52,10.31,68.27,10,71.5-1.46,2.08-21.36,3.85-21.57,3-.52-2.81-2-23.66-3.54-38.77h-.42c-3.34,13.34-7.4,31.89-9.8,37.83-2,.52-17.4.52-18.24-.31-.83-1.15-6.56-26.16-9.27-37.94-.11,0-.32-.1-.42-.1-1.67,12.92-3.23,33-4.38,38.77-4.37.31-21.57-1.77-21.57-2.82-.1-4.27,10-64.92,11.57-70.45.62-2.08,18.76-1.46,21.36-.94,2.09,3.76,8.34,27.41,11.88,42.94Z" style="fill:#2dcdff"/></svg>