<svg xmlns="http://www.w3.org/2000/svg" viewBox="0 0 484.48 231.09"><title>backpacking-bali-logo</title><path d="M406,3.1a2.1,2.1,0,0,1-.74,1.33,2.53,2.53,0,0,1-1.47.51,13.93,13.93,0,0,1-2.8-.19c-.94-.15-1.87-.29-2.79-.4l-.84,4.76q-1.08,6.06-1.76,12.15t-.91,12.27q0,.38,0,.75a3,3,0,0,1-.05.73,1.05,1.05,0,0,1-.45.79,1.3,1.3,0,0,1-.9.12,7.75,7.75,0,0,1-1-.3,3.25,3.25,0,0,1-.94-.5,1.56,1.56,0,0,1-.51-.7,3.39,3.39,0,0,1-.06-.84c0-1.17.11-2.33.24-3.48s.27-2.3.39-3.45c.24-2.47.5-4.93.8-7.37s.66-4.88,1.09-7.32c.24-1.33.48-2.65.73-4s.49-2.65.73-4l-3-.24c-1-.08-2-.21-3-.39a1,1,0,0,1-.56-.29.66.66,0,0,1-.13-.58,1.64,1.64,0,0,1,.79-1.21,3.24,3.24,0,0,1,1.43-.43,17,17,0,0,1,2.57.1c.86.09,1.72.16,2.59.22a3.56,3.56,0,0,1,.1-.47,1.76,1.76,0,0,1,.18-.39.76.76,0,0,1,.31-.25.79.79,0,0,1,.5,0,3.13,3.13,0,0,1,1.13.47,2.26,2.26,0,0,1,.81.91l4.07.28,1.18,0a7.74,7.74,0,0,1,1.17.12,4.7,4.7,0,0,1,.51.12,1,1,0,0,1,.42.21.8.8,0,0,1,.26.36A1.18,1.18,0,0,1,406,3.1Z" style="fill:#706dff"/><path d="M413.19,37.15a.79.79,0,0,1-.43.64,1.37,1.37,0,0,1-.81.08,2.78,2.78,0,0,1-.59-.17l-.58-.23a2.56,2.56,0,0,1-.72-.5,1.51,1.51,0,0,1-.33-.57,1.71,1.71,0,0,1-.07-.64c0-.23,0-.48.07-.76a1.8,1.8,0,0,0,0-.22,1.08,1.08,0,0,1,0-.19c.11-.93.23-1.87.36-2.84s.27-1.91.44-2.82c.08-.47.16-.93.25-1.4s.19-.92.29-1.38.19-.93.28-1.38.17-.91.25-1.38c0-.1,0-.19,0-.28a2.53,2.53,0,0,0,0-.28,11.33,11.33,0,0,0-1.45,1.84A22.84,22.84,0,0,0,409,26.83c-.38.75-.72,1.51-1,2.27s-.58,1.5-.82,2.2l-.16.49c-.18.55-.36,1.11-.55,1.68a13.06,13.06,0,0,0-.42,1.72,2.69,2.69,0,0,0,0,.81c0,.14,0,.27,0,.39a1.87,1.87,0,0,1,0,.45.92.92,0,0,1-.42.73,1.26,1.26,0,0,1-.81.07,4.86,4.86,0,0,1-.63-.16,3.32,3.32,0,0,1-.64-.27,2.87,2.87,0,0,1-.57-.39,1.27,1.27,0,0,1-.38-.51,7.3,7.3,0,0,1,0-1.71c.07-.91.18-2,.35-3.38s.35-2.85.58-4.52.47-3.39.72-5.15.51-3.49.77-5.21.51-3.31.74-4.76.43-2.7.61-3.77.29-1.82.37-2.25A2.81,2.81,0,0,1,407,4.7c.13-.25.41-.33.82-.26A2.68,2.68,0,0,1,409,5,1.76,1.76,0,0,1,409.65,6a3.68,3.68,0,0,1,0,.8q-.08.69-.21,1.77c-.09.72-.21,1.54-.34,2.47s-.26,1.89-.4,2.88-.29,2-.43,3-.28,1.93-.4,2.8l-.51,3.58a17.26,17.26,0,0,1,1-1.44,9.24,9.24,0,0,1,1.26-1.31,5.31,5.31,0,0,1,1.47-.88,3,3,0,0,1,1.65-.16,2.39,2.39,0,0,1,1.56.85,3.41,3.41,0,0,1,.66,1.53,6.47,6.47,0,0,1,.07,1.82c-.07.63-.14,1.21-.23,1.72q-.09.48-.18.93c-.06.31-.13.61-.2.91s-.14.63-.2.95l-.18.94c-.19,1.11-.37,2.25-.53,3.42a27.41,27.41,0,0,0-.24,3.49v.34a2,2,0,0,1,0,.35C413.22,36.91,413.21,37,413.19,37.15Z" style="fill:#706dff"/><path d="M418.43,39.81a3.49,3.49,0,0,1-.76-.24,2.67,2.67,0,0,1-.74-.45,2.17,2.17,0,0,1-.53-.65,1.29,1.29,0,0,1-.12-.83q.12-.68.3-1.32l.36-1.29v0l.42-1.59c.16-.57.31-1.19.46-1.88s.31-1.38.46-2.09.29-1.4.43-2.09l.36-1.89c.05-.34.11-.68.16-1s.11-.69.18-1,.09-.65.15-1,.13-.73.19-1.05a2.26,2.26,0,0,1,.28-.81c.12-.2.39-.26.81-.19a2.83,2.83,0,0,1,1.12.5,1.63,1.63,0,0,1,.7,1h0a3,3,0,0,1,0,.89c0,.4-.06.75-.1,1.06.35-.37.73-.76,1.16-1.16a9.83,9.83,0,0,1,1.34-1.09,6.45,6.45,0,0,1,1.45-.75,2.88,2.88,0,0,1,1.51-.13,2.18,2.18,0,0,1,1.45.78,3.06,3.06,0,0,1,.55,1.39,6.17,6.17,0,0,1,0,1.66c-.09.57-.17,1.09-.25,1.56l0,.19c0,.19-.07.38-.11.56a1.78,1.78,0,0,1-.18.49.8.8,0,0,1-.36.32,1,1,0,0,1-.59,0,3.38,3.38,0,0,1-.8-.26,3.29,3.29,0,0,1-.74-.46,2.41,2.41,0,0,1-.55-.65,1.26,1.26,0,0,1-.15-.81c0-.13,0-.26.07-.39a2.62,2.62,0,0,1,.09-.38,2.62,2.62,0,0,1,.06-.3c0-.12.06-.23.08-.34a7.76,7.76,0,0,0-1.7,1.65,22.53,22.53,0,0,0-1.48,2.22c-.46.8-.88,1.6-1.26,2.42s-.7,1.56-1,2.22v.07c-.14.49-.26,1-.36,1.45s-.2,1-.31,1.48-.24,1.16-.37,1.75-.27,1.16-.44,1.71a1.24,1.24,0,0,1-.4.66A1,1,0,0,1,418.43,39.81Z" style="fill:#706dff"/><path d="M441.54,33.32a24.63,24.63,0,0,1-1.08,4.11,11.72,11.72,0,0,1-2.13,3.68,8.36,8.36,0,0,1-.95.93,6.55,6.55,0,0,1-1.12.77,4.62,4.62,0,0,1-1.25.48,3.5,3.5,0,0,1-1.33,0,3.39,3.39,0,0,1-1.75-.81A4.85,4.85,0,0,1,430.81,41a7.71,7.71,0,0,1-.61-2,13.53,13.53,0,0,1-.21-2.19,18.7,18.7,0,0,1,.08-2.14c.06-.68.14-1.28.23-1.79s.23-1.21.4-1.89.38-1.37.63-2.07a19.31,19.31,0,0,1,.86-2.05A10.39,10.39,0,0,1,433.32,25a8,8,0,0,1,1.44-1.46,5.46,5.46,0,0,1,1.77-.89v0a3.34,3.34,0,0,1,1.61-.14,1.22,1.22,0,0,1,.71.34.79.79,0,0,1,.12.73,3.42,3.42,0,0,1,1.91,1.65,7.47,7.47,0,0,1,.84,2.62,14.25,14.25,0,0,1,.11,2.92A23.8,23.8,0,0,1,441.54,33.32Zm-4.37-7a1.23,1.23,0,0,1-.72-.45,7.68,7.68,0,0,0-1.05,1.47,14.88,14.88,0,0,0-.82,1.76A19.36,19.36,0,0,0,434,31c-.16.63-.29,1.23-.39,1.79s-.16,1.07-.24,1.8a18.63,18.63,0,0,0-.11,2.25,11.58,11.58,0,0,0,.21,2.17,3.23,3.23,0,0,0,.73,1.59,3.39,3.39,0,0,0,1.48-1.16,10.33,10.33,0,0,0,1.15-1.95,14.17,14.17,0,0,0,.79-2.21c.21-.76.36-1.41.46-2s.14-.93.2-1.58.1-1.31.11-2a12.26,12.26,0,0,0-.14-1.95,3.32,3.32,0,0,0-.53-1.43A1.68,1.68,0,0,1,437.17,26.35Z" style="fill:#706dff"/><path d="M455.69,29.62a3.32,3.32,0,0,1-.14.49c-.06.17-.12.33-.18.47s-.13.33-.18.47a2,2,0,0,0-.13.44c-.26,1.49-.5,3-.71,4.5a34.92,34.92,0,0,0-.32,4.59c0,.59,0,1.17,0,1.73s0,1.14.09,1.73l0,.15v0c0,.13.05.25.07.38a1.21,1.21,0,0,1,0,.38.68.68,0,0,1-.21.41,1,1,0,0,1-.37.21,1.29,1.29,0,0,1-.44,0l-.43-.05a3.69,3.69,0,0,1-1.23-.4,2.06,2.06,0,0,1-.67-.64,2,2,0,0,1-.28-.86,8.5,8.5,0,0,1-.05-1v-.44a3.68,3.68,0,0,1,0-.74c0-.13,0-.2,0-.19a.79.79,0,0,1,0-.19c-.29.36-.63.75-1,1.15a8.56,8.56,0,0,1-1.23,1.1,6.17,6.17,0,0,1-1.39.77,2.62,2.62,0,0,1-1.46.15,2,2,0,0,1-1.49-.91,3.81,3.81,0,0,1-.56-1.67,8.31,8.31,0,0,1,0-1.93c.09-.65.17-1.22.26-1.7q.48-2.74,1.13-5.41t1.35-5.34l.05-.18.05-.19c.05-.23.1-.43.15-.62a2.27,2.27,0,0,1,.22-.53v0a1.14,1.14,0,0,1,.37-.5.77.77,0,0,1,.6-.07,2,2,0,0,1,.69.26,2.31,2.31,0,0,1,.59.47,1.84,1.84,0,0,1,.37.63,1.26,1.26,0,0,1,.06.72c0,.13-.05.29-.08.46s-.07.33-.1.45-.05.26-.09.42-.07.31-.09.42c-.4,1.52-.76,3-1.09,4.53s-.64,3-.91,4.59c-.08.43-.15.86-.22,1.3a7.2,7.2,0,0,0-.09,1.32,9.75,9.75,0,0,0,1.82-2.34A27.48,27.48,0,0,0,450,35.2c.48-1.14.9-2.27,1.27-3.4s.68-2.14.92-3a1.36,1.36,0,0,1,0-.17.59.59,0,0,0,0-.17c.05-.17.1-.33.14-.49a1.1,1.1,0,0,1,.25-.43c0-.14.06-.29.1-.45a1.36,1.36,0,0,1,.2-.42.77.77,0,0,1,.34-.28.9.9,0,0,1,.53,0,2,2,0,0,1,1.42.86,2.33,2.33,0,0,1,.33,1.6,1.86,1.86,0,0,1,.12.41A1.42,1.42,0,0,1,455.69,29.62Z" style="fill:#706dff"/><path d="M470.17,42.38a1.32,1.32,0,0,1-.23.55,5.58,5.58,0,0,1-.45.61q-.27.32-.57.63l-.57.57-.45.44-.48.56-.41.53c0,.32-.08.67-.11,1s-.06.73-.09,1.08c-.11,1.68-.26,3.39-.42,5.13S466,57,465.7,58.6a16.44,16.44,0,0,1-.69,2.65,7.85,7.85,0,0,1-1.23,2.31,5.09,5.09,0,0,1-1.94,1.5,4.74,4.74,0,0,1-2.77.23,3.89,3.89,0,0,1-1.8-.74,3.39,3.39,0,0,1-1-1.31,4.67,4.67,0,0,1-.4-1.72,8,8,0,0,1,.12-1.94,17.91,17.91,0,0,1,1.15-3.86A31.76,31.76,0,0,1,459,52a39.17,39.17,0,0,1,2.35-3.52c.84-1.13,1.68-2.21,2.53-3.23,0,0,0-.07,0-.11a.91.91,0,0,0,0-.21c-.28.35-.59.7-.92,1.06a6,6,0,0,1-1.09.94,4.77,4.77,0,0,1-1.22.6,2.82,2.82,0,0,1-1.36.09,2.85,2.85,0,0,1-1.6-.78,3.48,3.48,0,0,1-.85-1.42,5.75,5.75,0,0,1-.28-1.73,8.43,8.43,0,0,1,.13-1.71,15,15,0,0,1,.42-1.79c.18-.58.37-1.14.56-1.69.32-.86.7-1.8,1.13-2.81a30.26,30.26,0,0,1,1.48-3,21,21,0,0,1,1.8-2.69,9.44,9.44,0,0,1,2.13-2l.22-.14a5.85,5.85,0,0,1,.83-.48,1.39,1.39,0,0,1,.89-.16.81.81,0,0,1,.45.23,1.28,1.28,0,0,1,.28.43,2,2,0,0,1,.14.54,1.51,1.51,0,0,1,0,.52,1.31,1.31,0,0,1-.33.59h.05a2,2,0,0,1,1.73,1.7,1.51,1.51,0,0,1,.3.64,1.89,1.89,0,0,1,0,.75,2.43,2.43,0,0,1-.1.41,3.26,3.26,0,0,1-.14.41,4,4,0,0,0-.15.4,2.49,2.49,0,0,0-.08.35c-.07.37-.14.83-.22,1.38s-.16,1.12-.23,1.72-.14,1.19-.2,1.76-.11,1.08-.15,1.5a2.06,2.06,0,0,1,.46-.31.85.85,0,0,1,.57-.08,1.29,1.29,0,0,1,.58.3,3.26,3.26,0,0,1,.57.6,3,3,0,0,1,.39.7A1,1,0,0,1,470.17,42.38Zm-7.56,14.93c.19-1.09.35-2.11.47-3.08s.22-2,.32-3.1c-.41.64-.83,1.33-1.27,2.07s-.84,1.5-1.2,2.27a24.37,24.37,0,0,0-1,2.32,12,12,0,0,0-.62,2.24l0,.17a10.42,10.42,0,0,0-.14,1.2,1.77,1.77,0,0,0,.27,1.13l.27,0a1.12,1.12,0,0,0,.86-.19,2.7,2.7,0,0,0,.69-.73,5.62,5.62,0,0,0,.53-1.07,9.1,9.1,0,0,0,.39-1.22q.16-.61.27-1.17C462.51,57.83,462.57,57.54,462.61,57.31Zm2.7-26c0-.09,0-.2.07-.31a1.46,1.46,0,0,1,.12-.35l-.21.19-.43.35a3.09,3.09,0,0,0-.38.35A9.32,9.32,0,0,0,463,33.71a29,29,0,0,0-1.32,2.92q-.58,1.54-1,3.06c-.28,1-.49,1.87-.62,2.61-.07.37-.12.74-.17,1.11a3.32,3.32,0,0,0,.05,1.13,3.22,3.22,0,0,0,.69-.69c.19-.25.38-.52.56-.8a17.09,17.09,0,0,0,1.4-2.58c.44-1,.84-2,1.19-3.11s.67-2.15.94-3.2S465.14,32.16,465.31,31.31Z" style="fill:#706dff"/><path d="M482.65,49.39a.79.79,0,0,1-.43.65,1.45,1.45,0,0,1-.81.08,3.53,3.53,0,0,1-.59-.17l-.58-.24a2.21,2.21,0,0,1-.72-.5,1.41,1.41,0,0,1-.33-.56,1.74,1.74,0,0,1-.07-.65c0-.22,0-.48.07-.75a2,2,0,0,0,0-.22,1.38,1.38,0,0,1,0-.2c.11-.92.23-1.86.36-2.83s.27-1.91.44-2.83c.08-.46.16-.92.25-1.39s.19-.92.29-1.39.19-.92.28-1.37.17-.92.25-1.38c0-.1,0-.19,0-.28a2.62,2.62,0,0,0,0-.28,11.24,11.24,0,0,0-1.45,1.83,21.82,21.82,0,0,0-1.24,2.17c-.38.75-.72,1.51-1,2.27s-.58,1.5-.82,2.2l-.16.49-.55,1.68a13.06,13.06,0,0,0-.42,1.72,2.69,2.69,0,0,0,0,.81c0,.14,0,.27,0,.39a2,2,0,0,1,0,.45.94.94,0,0,1-.42.73,1.34,1.34,0,0,1-.81.07,4.86,4.86,0,0,1-.63-.16,3.94,3.94,0,0,1-1.21-.66,1.42,1.42,0,0,1-.38-.51,7.3,7.3,0,0,1,0-1.71c.07-.91.18-2,.35-3.39s.35-2.85.58-4.52.47-3.38.72-5.14.51-3.49.77-5.22.51-3.3.74-4.75.43-2.7.61-3.77.29-1.82.37-2.26a2.75,2.75,0,0,1,.29-.85c.13-.25.41-.34.82-.26a2.66,2.66,0,0,1,1.18.51,1.81,1.81,0,0,1,.67,1.08,3.07,3.07,0,0,1,0,.8q-.07.69-.21,1.77c-.09.72-.21,1.54-.34,2.47l-.4,2.88c-.15,1-.29,2-.43,3s-.28,1.94-.4,2.81l-.5,3.58a15,15,0,0,1,1-1.44A9.24,9.24,0,0,1,479,32.82a5.31,5.31,0,0,1,1.47-.88,3,3,0,0,1,1.65-.16,2.39,2.39,0,0,1,1.56.85,3.41,3.41,0,0,1,.66,1.53,6.45,6.45,0,0,1,.07,1.82c-.06.63-.14,1.2-.23,1.72l-.18.93c-.06.31-.13.61-.2.91s-.14.63-.2.94l-.18,1c-.19,1.11-.37,2.25-.53,3.42a29.38,29.38,0,0,0-.24,3.49v.34a2,2,0,0,1,0,.35A3.6,3.6,0,0,1,482.65,49.39Z" style="fill:#706dff"/><path d="M22.73,28.21c3.25.65,6.3,3.6,6.3,8.65,0,6.75-5.4,9.7-14.4,9.7-4.9,0-13.85-.4-14.1-.6s-.65-33.7-.5-34.1,9.6-.6,10.6-.6c7.95,0,15.95,1.7,15.95,9.5,0,4-1.55,5.75-3.85,7.15Zm-12.1-3.6a6.7,6.7,0,0,0,1,.05c2.7,0,4.15-.95,4.15-2.75s-2.35-2.4-3.95-2.4a7.58,7.58,0,0,0-1.15.1C10.63,20.36,10.63,24.61,10.63,24.61Zm.5,13.25a15.83,15.83,0,0,0,2,.15c3.1,0,4.25-1.2,4.25-2.9,0-2-1.75-2.85-4.5-2.85-.55,0-1.15.05-1.75.1C11.13,33.11,11.13,37.86,11.13,37.86Z" style="fill:#706dff"/><path d="M52.73,40.16c-.55.05-7.55-.1-8.6-.15-.25,1.1-1.65,6.45-2,6.65s-10.8-.55-11.6-.95c.9-3.4,10.15-34.06,10.6-34.35s12.9-.6,14.15-.35c.15.05,10,28.15,11.15,34.7-1.35.6-11.35,1.1-11.5,1A69.09,69.09,0,0,1,52.73,40.16ZM48.48,21.21c-.7,2.5-2.35,9-2.85,10.5.9-.05,4.4-.05,6,0-.6-1.8-2.2-8.15-2.9-10.55C48.68,21.16,48.58,21.21,48.48,21.21Z" style="fill:#706dff"/><path d="M86.83,37a11.43,11.43,0,0,0,7.25-2.75c1.35.9,4.11,6,5.11,8.05-2.36,2.8-7.56,5.1-13.56,5.1-12.25,0-17.85-8.45-17.85-18.9,0-10.25,7.5-17.8,19.35-17.8,6.1,0,10.45,1.75,12,3.35,0,1.2-2.55,8-4.1,9.25A17.24,17.24,0,0,0,87.33,21a7.71,7.71,0,0,0-7.9,8C79.43,35.51,83.88,37,86.83,37Z" style="fill:#706dff"/><path d="M114.58,11.31c.35.15-.25,13.4-.25,13.4s9.6-13.56,10.1-13.56,9.3,2.46,9.36,3.16-8.51,13-8.51,13c2.35,3.4,9.16,16.5,9.05,16.9s-8.35,3.35-10.35,3c-.4,0-6-10.95-6.65-12.35-.45.55-2.75,3.45-2.75,3.45l.1,8.15c-1.05.25-10.3.45-10.7.15s-1.25-34.3-.5-35.05S114.23,11.15,114.58,11.31Z" style="fill:#706dff"/><path d="M138.33,46.41c-.25-3-.4-30.3.1-34.85,3.35-.3,9.2-.5,12.9-.5,10.1,0,15.45,4.9,15.45,12.7,0,9.45-4.85,13.3-15.35,13.3h-1.25c-.05,4.6,0,8.6-.3,9.15C149.68,46.61,138.38,46.81,138.33,46.41Zm13.8-18.8c2.3,0,4.05-.9,4.05-3.1,0-2.45-2.1-3.3-4.45-3.3a11.17,11.17,0,0,0-1.8.1c0,1.9,0,4.3-.05,6.2C150.43,27.56,151.43,27.61,152.13,27.61Z" style="fill:#706dff"/><path d="M188.63,40.16c-.55.05-7.55-.1-8.6-.15-.25,1.1-1.65,6.45-1.95,6.65s-10.8-.55-11.6-.95c.9-3.4,10.15-34.06,10.6-34.35s12.9-.6,14.15-.35c.15.05,10,28.15,11.15,34.7-1.35.6-11.35,1.1-11.5,1A69.09,69.09,0,0,1,188.63,40.16Zm-4.25-18.95c-.7,2.5-2.35,9-2.85,10.5.9-.05,4.4-.05,6.05,0-.6-1.8-2.2-8.15-2.9-10.55C184.58,21.16,184.48,21.21,184.38,21.21Z" style="fill:#706dff"/><path d="M222.73,37A11.43,11.43,0,0,0,230,34.26c1.35.9,4.1,6,5.1,8.05-2.35,2.8-7.55,5.1-13.55,5.1-12.25,0-17.85-8.45-17.85-18.9,0-10.25,7.5-17.8,19.35-17.8,6.1,0,10.45,1.75,11.95,3.35,0,1.2-2.55,8-4.1,9.25a17.24,17.24,0,0,0-7.65-2.3,7.71,7.71,0,0,0-7.9,8C215.33,35.51,219.78,37,222.73,37Z" style="fill:#706dff"/><path d="M250.48,11.31c.35.15-.25,13.4-.25,13.4s9.6-13.56,10.1-13.56,9.3,2.46,9.35,3.16-8.5,13-8.5,13c2.35,3.4,9.15,16.5,9.05,16.9s-8.35,3.35-10.35,3c-.4,0-5.95-10.95-6.65-12.35-.45.55-2.75,3.45-2.75,3.45l.1,8.15c-1.05.25-10.3.45-10.7.15s-1.25-34.3-.5-35.05S250.13,11.15,250.48,11.31Z" style="fill:#706dff"/><path d="M285.38,11.46c.4.3.35,32.85-.1,34.75-.25,1-11,.6-11,.2-.25-3-.4-30.3.1-34.85C276.43,11.11,285,11.15,285.38,11.46Z" style="fill:#706dff"/><path d="M313.33,46.46c-1.05-1.3-5.8-9.65-10.45-16.85,0,6.5.35,13.35.2,16.3-2.1.45-10.75.5-10.8,0-.3-2-.45-31.45,0-34.15.15-1,10.05-1,10.25-.7.7,1.09,6.8,10.75,10.7,18.35,0-7.35-.25-15.65,0-17.8,2.1-.46,10.35-.3,10.75,0s0,32.15-.4,34.05C323.33,46.71,314,46.86,313.33,46.46Z" style="fill:#706dff"/><path d="M348.08,37.66a11.84,11.84,0,0,0,3.2-.55c0-.65-.1-2.85-.1-2.85s-3.75.1-4.5.15c-.3-.4-.45-7.15-.1-7.7,1.5-.35,14.25-.75,14.65-.4s.2,16.9,0,17c-2.35,1.95-8.4,4.1-14.4,4.1C334.63,47.41,329,39,329,28.51c0-10.25,7-17.8,18.85-17.8,6.1,0,10.45,2,11.95,3.65-.05,1.2-3.5,7.6-4.6,8.75a15.07,15.07,0,0,0-7.15-2c-4.35,0-7.55,3.1-7.55,7.85C340.53,35.51,344.13,37.66,348.08,37.66Z" style="fill:#706dff"/><path d="M99.91,149.53c14.22,2.84,27.56,15.74,27.56,37.83,0,29.53-23.62,42.43-63,42.43-21.44,0-60.58-1.75-61.68-2.63S0,79.76.63,78s42-2.62,46.36-2.62c34.77,0,69.76,7.43,69.76,41.55,0,17.72-6.78,25.15-16.84,31.28ZM47,133.78a29.09,29.09,0,0,0,4.37.22c11.81,0,18.16-4.16,18.16-12,0-8.09-10.28-10.5-17.28-10.5a32.92,32.92,0,0,0-5,.44C47,115.19,47,133.78,47,133.78Zm2.19,58a70.42,70.42,0,0,0,9,.65c13.56,0,18.59-5.25,18.59-12.68,0-8.75-7.65-12.47-19.68-12.47-2.41,0-5,.22-7.65.44C49.18,171,49.18,191.74,49.18,191.74Z" style="fill:#706dff"/><path d="M231.14,201.8c-2.41.21-33-.44-37.62-.66-1.09,4.81-7.22,28.21-8.53,29.09s-47.24-2.41-50.74-4.16c3.94-14.87,44.4-148.93,46.37-150.24S237,73.2,242.51,74.29c.66.22,43.74,123.13,48.77,151.78-5.91,2.63-49.65,4.81-50.3,4.59S232.67,207.7,231.14,201.8Zm-18.59-82.89c-3.06,10.93-10.28,39.36-12.47,45.93,3.94-.22,19.25-.22,26.46,0-2.62-7.88-9.62-35.65-12.68-46.15C213.42,118.69,213,118.91,212.55,118.91Z" style="fill:#706dff"/><path d="M413.75,228c-.44,1.53-94.48.87-104.32-.44-1.31-14.65-1.31-149.37.44-151.77,1.09-1.54,47.24-2.85,47.46-1.1.65,9,.43,95.14-.44,111.1,18.81-.66,47.89-.87,56,0C414.41,195.23,415.28,223,413.75,228Z" style="fill:#706dff"/><path d="M483.3,76.26c1.75,1.31,1.53,143.69-.44,152-1.09,4.59-48.12,2.62-48.33.87C433.43,216,432.78,96.6,435,76.7,444.15,74.73,481.55,75,483.3,76.26Z" style="fill:#706dff"/></svg>