<?xml version="1.0" encoding="UTF-8"?><svg id="Layer_2" xmlns="http://www.w3.org/2000/svg" viewBox="0 0 795.16 158.4"><defs><style>.cls-1{fill:#fff;}</style></defs><g id="Layer_1-2"><path class="cls-1" d="M30.92,44.39c.68,.37-24.18,.37-30.81-.12C-.2,39.86,.23,9.86,.66,.93c7.01-.43,30.63-.5,30.81-.12,.43,1.43,.5,8.93,.06,11.59-2.29,.25-12.71,.19-18.04,0l.12,4.15c6.26-.06,12.83,.12,13.21,.5,.68,.68,.12,10.66,.12,10.97,0,.37-6.82,.37-13.39,.19v4.71c5.58-.19,15.25-.19,17.42,0,.43,2.67,.37,10.04-.06,11.47Z"/><path class="cls-1" d="M66.38,44.08c-.12,.43-26.78,.25-29.57-.12-.37-4.15-.37-42.34,.12-43.03,.31-.43,13.39-.81,13.45-.31,.19,2.54,.12,26.97-.12,31.49,5.33-.19,13.58-.25,15.87,0,.43,2.67,.68,10.54,.25,11.97Z"/><path class="cls-1" d="M101.16,44.39c.68,.37-24.18,.37-30.81-.12-.31-4.4,.12-34.41,.56-43.34,7.01-.43,30.63-.5,30.81-.12,.43,1.43,.5,8.93,.06,11.59-2.29,.25-12.71,.19-18.04,0l.12,4.15c6.26-.06,12.83,.12,13.21,.5,.68,.68,.12,10.66,.12,10.97,0,.37-6.82,.37-13.39,.19v4.71c5.58-.19,15.25-.19,17.42,0,.43,2.67,.37,10.04-.06,11.47Z"/><path class="cls-1" d="M107.12,44.39c-.31-3.72-.5-37.57,.12-43.21,4.15-.37,11.41-.62,16-.62,12.52,0,19.16,6.08,19.16,15.75,0,11.72-6.01,16.49-19.03,16.49h-1.55c-.06,5.7,0,10.66-.37,11.35-.25,.5-14.26,.74-14.32,.25Zm17.11-23.31c2.85,0,5.02-1.12,5.02-3.84,0-3.04-2.6-4.09-5.52-4.09-.5,0-1.67,0-2.23,.12,.06,2.36,0,5.33-.06,7.69,.68,.06,1.92,.12,2.79,.12Z"/><path class="cls-1" d="M172.52,44.39c-.12-1.43-.25-7.56-.31-14.69-3.72,0-7.81-.06-11.47-.12,0,6.2-.06,11.97-.19,14.88-2.6,.56-13.83,.74-13.89,.12-.37-2.54-.93-40.36-.37-43.71,.19-1.3,13.58-.68,13.83-.25,.19,.37,.37,7.81,.5,16.49,3.72-.06,7.81-.06,11.59,0,.06-7.19,.19-13.76,.43-15.93,2.6-.56,13.27-.5,13.76-.12s.43,40.73-.12,43.09c-.31,1.3-13.7,.74-13.76,.25Z"/><path class="cls-1" d="M217.66,36.64c-.68,.06-9.36-.12-10.66-.19-.31,1.36-2.05,8-2.42,8.25-.37,.25-13.39-.68-14.38-1.18,1.12-4.22,12.59-42.22,13.14-42.59,.56-.37,16-.74,17.54-.43,.19,.06,12.4,34.9,13.83,43.03-1.67,.74-14.07,1.36-14.26,1.3s-2.36-6.51-2.79-8.18Zm-5.27-23.5c-.87,3.1-2.91,11.16-3.53,13.02,1.12-.06,5.46-.06,7.5,0-.74-2.23-2.73-10.11-3.6-13.08-.12,0-.25,.06-.37,.06Z"/><path class="cls-1" d="M264.41,44.45c-1.3-1.61-7.19-11.97-12.96-20.89,0,8.06,.43,16.55,.25,20.21-2.6,.56-13.33,.62-13.39,0-.37-2.54-.56-39,0-42.34,.19-1.3,12.46-1.3,12.71-.87,.87,1.36,8.43,13.33,13.27,22.75,.06-9.11-.31-19.41,0-22.07,2.6-.56,12.83-.37,13.33,0,.5,.37,.06,39.86-.5,42.22-.31,1.3-11.84,1.49-12.71,.99Z"/><path class="cls-1" d="M281.83,1.3c.31-.5,31.87-1.24,33.91-.68,1.05,.19,.87,11.59,.43,11.66-1.12,.19-5.27,.37-10.29,.56,.06,12.58,.19,30.56-.12,31-.31,.43-13.39,.81-13.45,.31-.25-2.54-.37-19.47-.25-31.43-4.59,.06-8.37,0-9.92-.19-.5-2.48-.62-10.79-.31-11.22Z"/><path class="cls-1" d="M346.06,27.59c.93-4.96,5.15-22.38,6.57-27.15,.37-.25,14.07,.25,14.38,1.18-.99,5.21-12.15,42.22-12.71,42.59s-14.51,.74-16.06,.43c-.19-.06-11.84-34.9-13.27-43.03,.56-1.05,13.89-1.74,14.26-1.3,.62,1.05,5.52,22.26,6.45,27.34,.12,0,.25-.06,.37-.06Z"/><path class="cls-1" d="M411.34,23.37c0,11.04-7.07,22.01-22.07,22.01-13.45,0-22.19-8.87-22.19-23.37,0-11.16,7.44-22.01,22.01-22.01,13.33,0,22.26,8.87,22.26,23.37Zm-22.13-10.97c-4.9,0-7.94,3.84-7.94,10.35,0,5.89,3.16,10.04,7.69,10.04,5.08,0,7.75-3.78,7.75-10.35,0-7.32-3.35-10.04-7.5-10.04Z"/><path class="cls-1" d="M445.63,44.08c-.12,.43-26.78,.25-29.57-.12-.37-4.15-.37-42.34,.12-43.03,.31-.43,13.39-.81,13.45-.31,.19,2.54,.12,26.97-.12,31.49,5.33-.19,13.58-.25,15.87,0,.43,2.67,.68,10.54,.25,11.97Z"/><path class="cls-1" d="M463.3,1.3c.43,.74-.62,16.06-.62,22.81,0,5.83,1.55,7.75,5.21,7.75,4.28,0,5.15-3.16,5.15-7.5,0-6.76-.5-19.96-.56-23.5,.81-.56,14.51-1.12,14.63-.5,.25,1.12,.5,18.35,.5,24.98,0,11.04-3.91,20.02-19.47,20.02-12.15,0-19.47-5.39-19.47-19.47,0-5.33,.43-21.02,.99-24.36,.19-1.3,13.39-.68,13.64-.25Z"/><path class="cls-1" d="M519.91,44.45c-1.3-1.61-7.19-11.97-12.96-20.89,0,8.06,.43,16.55,.25,20.21-2.6,.56-13.33,.62-13.39,0-.37-2.54-.56-39,0-42.34,.19-1.3,12.46-1.3,12.71-.87,.87,1.36,8.43,13.33,13.27,22.75,.06-9.11-.31-19.41,0-22.07,2.6-.56,12.83-.37,13.33,0,.5,.37,.06,39.86-.5,42.22-.31,1.3-11.84,1.49-12.71,.99Z"/><path class="cls-1" d="M537.33,1.3c.31-.5,31.87-1.24,33.91-.68,1.05,.19,.87,11.59,.43,11.66-1.12,.19-5.27,.37-10.29,.56,.06,12.58,.19,30.56-.12,31-.31,.43-13.39,.81-13.45,.31-.25-2.54-.37-19.47-.25-31.43-4.59,.06-8.37,0-9.92-.19-.5-2.48-.62-10.79-.31-11.22Z"/><path class="cls-1" d="M606.58,44.39c.68,.37-24.18,.37-30.81-.12-.31-4.4,.12-34.41,.56-43.34,7.01-.43,30.63-.5,30.81-.12,.43,1.43,.5,8.93,.06,11.59-2.29,.25-12.71,.19-18.04,0l.12,4.15c6.26-.06,12.83,.12,13.21,.5,.68,.68,.12,10.66,.12,10.97,0,.37-6.82,.37-13.39,.19v4.71c5.58-.19,15.25-.19,17.42,0,.43,2.67,.37,10.04-.06,11.47Z"/><path class="cls-1" d="M642.98,44.39c.68,.37-24.18,.37-30.81-.12-.31-4.4,.12-34.41,.56-43.34,7.01-.43,30.63-.5,30.81-.12,.43,1.43,.5,8.93,.06,11.59-2.29,.25-12.71,.19-18.04,0l.12,4.15c6.26-.06,12.83,.12,13.21,.5,.68,.68,.12,10.66,.12,10.97,0,.37-6.82,.37-13.39,.19v4.71c5.58-.19,15.25-.19,17.42,0,.43,2.67,.37,10.04-.06,11.47Z"/><path class="cls-1" d="M648.68,44.39c-.31-3.72,0-37.57,.62-43.21,4.15-.37,10.91-.62,15.5-.62,12.52,0,19.71,4.84,19.71,15.31,0,6.2-2.54,9.92-7.07,12.03,4.46,5.64,8.74,12.65,8.56,12.9-.81,.99-9.61,4.71-11.9,4.59-.19,0-5.21-8.49-10.11-15.19h-1.86c-.06,5.7-.12,12.34-.37,13.95-.68,.25-13.02,.74-13.08,.25Zm17.24-24.49c3.04,0,4.96-1.05,4.96-3.66,0-2.29-1.05-3.84-5.46-3.84-.5,0-1.74,0-2.36,.12,.06,2.23,0,5.02-.06,7.25,.74,.06,2.05,.12,2.91,.12Z"/><path class="cls-1" d="M703.92,1.05c.5,.37,.43,40.73-.12,43.09-.31,1.3-13.64,.74-13.7,.25-.31-3.72-.5-37.57,.12-43.21,2.6-.56,13.21-.5,13.7-.12Z"/><path class="cls-1" d="M737.03,44.45c-1.3-1.61-7.19-11.97-12.96-20.89,0,8.06,.43,16.55,.25,20.21-2.6,.56-13.33,.62-13.39,0-.37-2.54-.56-39,0-42.34,.19-1.3,12.46-1.3,12.71-.87,.87,1.36,8.43,13.33,13.27,22.75,.06-9.11-.31-19.41,0-22.07,2.6-.56,12.83-.37,13.33,0,.5,.37,.06,39.86-.5,42.22-.31,1.3-11.84,1.49-12.71,.99Z"/><path class="cls-1" d="M778.57,33.54c1.43,0,2.91-.37,3.97-.68-.06-.81-.12-3.53-.12-3.53,0,0-4.65,.12-5.58,.19-.37-.5-.56-8.87-.12-9.55,1.86-.43,17.67-.93,18.17-.5,.5,.43,.25,20.96,.06,21.08-2.91,2.42-10.42,5.08-17.86,5.08-15.19,0-22.13-10.48-22.13-23.43S763.63,.12,778.32,.12c7.56,0,12.96,2.54,14.82,4.53-.06,1.49-4.34,9.42-5.7,10.85-2.23-1.24-5.39-2.48-8.87-2.48-5.39,0-9.36,3.84-9.36,9.73,0,8.12,4.46,10.79,9.36,10.79Z"/><path class="cls-1" d="M65.93,66.85c.65-1.04,66.82-2.6,71.11-1.43,2.21,.39,1.82,24.31,.91,24.44-2.34,.39-11.05,.78-21.58,1.17,.13,26.39,.39,64.09-.26,65-.65,.91-28.08,1.69-28.21,.65-.52-5.33-.78-40.82-.52-65.91-9.62,.13-17.55,0-20.8-.39-1.04-5.2-1.3-22.62-.65-23.53Z"/><path class="cls-1" d="M201.91,157.2c-.26-2.99-.52-15.86-.65-30.81-7.8,0-16.38-.13-24.05-.26,0,13-.13,25.09-.39,31.2-5.46,1.17-28.99,1.56-29.12,.26-.78-5.33-1.95-84.63-.78-91.65,.39-2.73,28.47-1.43,28.99-.52,.39,.78,.78,16.38,1.04,34.58,7.8-.13,16.38-.13,24.31,0,.13-15.08,.39-28.86,.91-33.41,5.46-1.17,27.82-1.04,28.86-.26s.91,85.41-.26,90.35c-.65,2.73-28.73,1.56-28.86,.52Z"/><path class="cls-1" d="M296.54,140.95c-1.43,.13-19.63-.26-22.36-.39-.65,2.86-4.29,16.77-5.07,17.29-.78,.52-28.08-1.43-30.16-2.47,2.34-8.84,26.39-88.53,27.56-89.31,1.17-.78,33.54-1.56,36.79-.91,.39,.13,26,73.19,28.99,90.22-3.51,1.56-29.51,2.86-29.9,2.73-.39-.13-4.94-13.65-5.85-17.16Zm-11.05-49.27c-1.82,6.5-6.11,23.4-7.41,27.3,2.34-.13,11.44-.13,15.73,0-1.56-4.68-5.72-21.19-7.54-27.43-.26,0-.52,.13-.78,.13Z"/><path class="cls-1" d="M368.95,66.33c1.04,.78,.91,85.41-.26,90.35-.65,2.73-28.6,1.56-28.73,.52-.65-7.8-1.04-78.78,.26-90.61,5.46-1.17,27.69-1.04,28.73-.26Z"/><path class="cls-1" d="M445.65,156.55c-.26,.91-56.16,.52-62.01-.26-.78-8.71-.78-88.79,.26-90.22,.65-.91,28.08-1.69,28.21-.65,.39,5.33,.26,56.55-.26,66.04,11.18-.39,28.47-.52,33.28,0,.91,5.59,1.43,22.1,.52,25.09Z"/><path class="cls-1" d="M505.32,140.95c-1.43,.13-19.63-.26-22.36-.39-.65,2.86-4.29,16.77-5.07,17.29-.78,.52-28.08-1.43-30.16-2.47,2.34-8.84,26.39-88.53,27.56-89.31,1.17-.78,33.54-1.56,36.79-.91,.39,.13,26,73.19,28.99,90.22-3.51,1.56-29.51,2.86-29.9,2.73s-4.94-13.65-5.85-17.16Zm-11.05-49.27c-1.82,6.5-6.11,23.4-7.41,27.3,2.34-.13,11.44-.13,15.73,0-1.56-4.68-5.72-21.19-7.54-27.43-.26,0-.52,.13-.78,.13Z"/><path class="cls-1" d="M603.34,157.33c-2.73-3.38-15.08-25.09-27.17-43.81,0,16.9,.91,34.71,.52,42.38-5.46,1.17-27.95,1.3-28.08,0-.78-5.33-1.17-81.77,0-88.79,.39-2.73,26.13-2.73,26.65-1.82,1.82,2.86,17.68,27.95,27.82,47.71,.13-19.11-.65-40.69,0-46.28,5.46-1.17,26.91-.78,27.95,0,1.04,.78,.13,83.59-1.04,88.53-.65,2.73-24.83,3.12-26.65,2.08Z"/><path class="cls-1" d="M646.11,66.33c2.99-.78,20.67-1.04,31.07-1.04,30.81,0,49.66,19.5,49.66,46.15s-14.82,46.8-50.83,46.8c-11.18,0-27.95-.91-30.81-1.82-.65-7.8-.39-78.26,.91-90.09Zm31.72,25.61c-1.56,0-3.51,0-4.81,.13,.13,11.96,0,27.82-.13,39.78,1.69,.26,3.9,.39,6.24,.39,7.67,0,18.07-2.6,18.07-19.63,0-12.35-8.06-20.67-19.37-20.67Z"/></g></svg>