<?xml version="1.0" encoding="utf-8"?>
<!-- Generator: Adobe Illustrator 16.0.0, SVG Export Plug-In . SVG Version: 6.00 Build 0)  -->
<!DOCTYPE svg PUBLIC "-//W3C//DTD SVG 1.1//EN" "http://www.w3.org/Graphics/SVG/1.1/DTD/svg11.dtd">
<svg version="1.1" id="Layer_1" xmlns="http://www.w3.org/2000/svg" xmlns:xlink="http://www.w3.org/1999/xlink" x="0px" y="0px"
	 width="485px" height="605px" viewBox="0 0 485 605" enable-background="new 0 0 485 605" xml:space="preserve">
<title>backpack-rt-svg</title>
<g id="Group_144" display="none" opacity="0.102">
	<g id="Layer_2">
	</g>
</g>
<g id="Logo" opacity="0.1">
	<path fill="#635EA9" d="M469.039,216.76l-25.541,8.404c-18.743-50.139-74.583-75.59-124.721-56.849
		c-43.211,16.152-69.047,60.522-61.769,106.074c0.039,0.149,0.088,0.295,0.143,0.438c-6.988,0.719-13.875,2.212-20.535,4.452l0,0
		c-7.145,2.289-13.985,5.435-20.372,9.372c-24.005-47.842-82.249-67.165-130.092-43.159c-41.727,20.937-62.598,68.646-49.652,113.5
		l-24.011,7.901c-2.016,0.662-3.111,2.834-2.448,4.85l8.404,25.543c0.663,2.015,2.833,3.111,4.849,2.448l28.425-9.353
		c31.644,43.199,92.314,52.566,135.514,20.924c26.64-19.514,41.516-51.243,39.479-84.202c0,0-0.082-0.983-0.259-2.26
		c11.141-11.885,27.375-17.588,43.501-15.282l0.228,0.692c27.806,45.763,87.445,60.318,133.209,32.512
		c29.161-17.72,46.861-49.464,46.605-83.587l29.775-9.796c2.016-0.664,3.111-2.834,2.448-4.85l-8.404-25.542
		C473.065,217.099,470.973,216.121,469.039,216.76z M70.394,352.493L70.394,352.493l-0.157-0.476
		c-10.868-32.829,6.935-68.253,39.764-79.121c32.829-10.868,68.252,6.934,79.122,39.764l0.228,0.693L70.394,352.493z
		 M412.425,240.24l-118.921,39.127l-0.083-0.255c-11.619-32.571,5.367-68.394,37.938-80.013
		c32.57-11.619,68.395,5.367,80.012,37.939c0.349,0.973,0.671,1.956,0.97,2.946L412.425,240.24z"/>
</g>
</svg>
