<svg xmlns="http://www.w3.org/2000/svg" viewBox="0 0 363.92 91.4"><defs><style>.cls-1{fill:#6d4aff;}</style></defs><g id="Layer_2" data-name="Layer 2"><g id="Logo"><path class="cls-1" d="M175,55l-.49-7.1a1,1,0,0,0-1-.91c-35.57,1.65-71.6,7.54-77.86,8.6a1,1,0,0,0-.79,1.13l1.22,7a1,1,0,0,0,1.11.8c2.65-.44,10.67-1.75,21.7-3.23l.59.44c.73,6.08,2.71,17.19,5.32,28.91a1,1,0,0,0,1.16.75L133,89.84a1,1,0,0,0,.74-1.21,255.69,255.69,0,0,1-5.53-28,.5.5,0,0,1,.45-.57c13.45-1.63,29.4-3.25,45.4-4A1,1,0,0,0,175,55Z"/><path class="cls-1" d="M150,62.37a14.12,14.12,0,1,0,14.12,14.12A14.14,14.14,0,0,0,150,62.37Zm0,19.18a5.06,5.06,0,1,1,5.06-5.06A5.07,5.07,0,0,1,150,81.55Z"/><path class="cls-1" d="M187.32,51.53a1,1,0,0,0-.89,1c.09,2.79.32,11.49,0,19a5.62,5.62,0,0,1-5.4,5.52h0c-3.22,0-4.25-4-4.58-6.31-.42-3-.79-7-1-8.76a1,1,0,0,0-1-.87l-7.05.52a1,1,0,0,0-.9,1c.18,2,.51,5.92,1,9.31,1.21,8.71,6.39,14.12,13.54,14.12H181A14.67,14.67,0,0,0,195.45,72c.37-7.93.13-17.11,0-20.16a1,1,0,0,0-1.06-.93Z"/><path class="cls-1" d="M221.24,72.14c.17-.08.35-.16.52-.26,3.89-2.15,6.37-5.09,7.19-8.5a13.21,13.21,0,0,0-2.1-9.61c-4.54-6.6-21.14-4.42-26.08-3.57a1,1,0,0,0-.49.24,1.12,1.12,0,0,0-.14.56l.19,3.32c.54,9.45,0,26.48-.15,30.68a1,1,0,0,0,.94,1l7.1.27a1,1,0,0,0,1-.94c.06-1.85.2-6,.29-11a.24.24,0,0,1,.25-.24c.73.08,1.48.09,2.32.12a.25.25,0,0,1,.25.21,20.17,20.17,0,0,0,1.52,4.21c2.16,4.37,6.8,9.67,16.7,10.53a1,1,0,0,0,1.08-.93l.38-7.1a1,1,0,0,0-.9-1c-7-.7-9.26-4.72-10-7.71A.21.21,0,0,1,221.24,72.14Zm-1-11.51c0,1.36-1,2.55-2.53,3.39a13.19,13.19,0,0,1-7.65,1.17.5.5,0,0,1-.46-.51c0-2.05-.05-4.28-.1-6.19a.53.53,0,0,1,.5-.53,38.28,38.28,0,0,1,5.3-.06C216.92,58,220.29,58.67,220.29,60.63Z"/><path class="cls-1" d="M249.13,64.34c-5.89-1-5.58-3.18-5.47-3.88a2.53,2.53,0,0,1,1.17-1.85,6.07,6.07,0,0,1,4.26-.75c1.3.24,2.18,1.59,2.71,2.69A1,1,0,0,0,253,61l3.34-1.33,3.27-1.27a1,1,0,0,0,.53-1.32c-1-2.13-3.88-6.95-9.13-8.11a15,15,0,0,0-11.36,2.14,11.63,11.63,0,0,0-5,8c-.83,5.59,2.11,12.24,12.86,14.13,5,.88,5.54,3,5.8,3.71.34.87.58,2.78-2.25,3.52a5.93,5.93,0,0,1-6.48-3.08,1,1,0,0,0-1.21-.53l-6.71,2.41a1,1,0,0,0-.59,1.31,14.91,14.91,0,0,0,13.81,9.08,13.86,13.86,0,0,0,3.3-.39,12.33,12.33,0,0,0,8-5.52,11.55,11.55,0,0,0,.84-9.29C261,70.7,257.87,65.88,249.13,64.34Z"/><path class="cls-1" d="M30,19.21h0A11.69,11.69,0,0,0,32.8,9.8C31.72,1.24,23.27-.25,16.39,0,13.63.14,5.45.65,5.11.67L2,.87a1,1,0,0,0-.91.89L.88,4.82C.45,10,.08,28.37,0,36.25l0,3.47a1,1,0,0,0,1,1l3.46.11c.36,0,7.36.22,11.81.22,1,0,1.89,0,2.53,0,11.67-.48,15.61-7.08,15.41-13.08C34,23.7,32.38,21,30,19.21ZM9.69,9.47c2.55-.15,5.62-.33,7-.39,6.79-.25,7.19,1.79,7.19,3,0,2.66-3.93,3.77-8.59,3.92l-5.88.23C9.54,13.69,9.61,11.36,9.69,9.47Zm8.68,22.47c-1.71.07-5.8,0-9.24-.07,0-2.06.07-4.31.12-6.61l7.31-.11c4.75,0,8.46.79,8.54,3.07C25.13,29.07,25.22,31.65,18.37,31.94Z"/><path class="cls-1" d="M90,39.49c6.34,0,11.61-3.35,14.83-5.6a1,1,0,0,0,.23-1.36l-4.1-5.81a1,1,0,0,0-1.35-.24c-4.13,2.84-8.55,5.21-13.32,3.14a11.11,11.11,0,0,1-6-8,9.83,9.83,0,0,1,2.52-8.94c4.34-4.49,10.72-2.42,13-1.49a1,1,0,0,0,1.22-.46l3.3-6.31a1,1,0,0,0-.47-1.35C96.4,1.58,84.86-2.52,76.25,6.37a18.83,18.83,0,0,0-4.89,17A20.11,20.11,0,0,0,82.64,37.94,18.29,18.29,0,0,0,90,39.49Z"/><path class="cls-1" d="M116.71,39.75c.28-3.92.47-7.8.6-11.51a.17.17,0,0,1,.32-.06c2.83,5.6,8.61,10.88,19.36,11.26a1,1,0,0,0,1-1l.05-7.1a1,1,0,0,0-.95-1c-8.41-.39-11.27-5-12.25-8.4a.76.76,0,0,1,.2-.73L136.35,9.62a1,1,0,0,0,0-1.39l-5.09-5a1,1,0,0,0-1.39,0l-12,12.37a.18.18,0,0,1-.3-.14c0-7-.16-12.4-.24-14.52a1,1,0,0,0-1-.93l-7.09.33a1,1,0,0,0-.94,1,373.41,373.41,0,0,1-.57,37.68,1,1,0,0,0,.9,1l7.08.53A1,1,0,0,0,116.71,39.75Z"/><path class="cls-1" d="M277.92,2.62c.13,4.14.65,20.93,1.06,36.3a1,1,0,0,0,1,.95l7.1-.18a1,1,0,0,0,.95-1c-.4-15.4-.92-32.22-1-36.36a1,1,0,0,0-1-.93l-7.1.23A1,1,0,0,0,277.92,2.62Z"/><path class="cls-1" d="M143.76,40.17l7.09.45a1,1,0,0,0,1-.91c.11-2,.34-7.08.37-14.12a1,1,0,0,1,1-1c7.15-.06,16.23-.51,19.49-7.19A11.14,11.14,0,0,0,172.5,7,12.8,12.8,0,0,0,162.69.58c-4.86-.48-14.8.69-15.92.82l-3.28.4a1,1,0,0,0-.86,1l.16,3.3c.79,16.43.24,29.5.06,33A1,1,0,0,0,143.76,40.17Zm18-30.58c1.1.11,2.54.76,2.79,1.79.71,2.94-3,3.61-5.63,3.88-2.26.23-4.7.28-6.28.29a.49.49,0,0,1-.51-.5c0-1.48-.08-3-.13-4.59a.52.52,0,0,1,.47-.54A62.54,62.54,0,0,1,161.8,9.59Z"/><path class="cls-1" d="M361.86,15.52l-1.47-3.11a1,1,0,0,0-1.28-.47l-14.45,6.3a1,1,0,0,0-.51,1.29L347,26a1,1,0,0,0,1.29.5l6.12-2.67c.11-.05.44-.1.46.17a3.74,3.74,0,0,1-.29,1.77c-.51,1.38-1.74,2.51-3.78,3.43-2.85,1.3-5.34,1.5-7.42.61a10.48,10.48,0,0,1-5.28-6.32c-1.54-4.39-1.61-10.44,3.23-13.1,3.19-1.75,8.83-.17,11.48.86a1,1,0,0,0,1.23-.5l3-6.47A1,1,0,0,0,356.5,3c-3.07-1.25-12.38-4.44-19.53-.52-8,4.36-10.94,14-7.43,24a19.38,19.38,0,0,0,10.27,11.66,15.84,15.84,0,0,0,6.3,1.27,20.32,20.32,0,0,0,8.43-2c4.3-2,7.17-4.84,8.54-8.57C365,23.6,363.15,18.24,361.86,15.52Z"/><path class="cls-1" d="M321.36,2l-7,1a1,1,0,0,0-.82,1.09c.77,5.44,1.36,11.34,1.78,16.47a.18.18,0,0,1-.34.08A93.41,93.41,0,0,0,300.69,1.4a1.56,1.56,0,0,0-1.5-.4l-6,.68a1,1,0,0,0-.86,1.08l.36,3.49a281.68,281.68,0,0,1,1,32,1,1,0,0,0,1,1h7.11a1,1,0,0,0,1-.94c.07-3.25.17-10.92-.18-19.64a.17.17,0,0,1,.31-.12,97.57,97.57,0,0,1,9.36,17.54l1,2.43a.83.83,0,0,0,.82.51l10.35-.55a1,1,0,0,0,.92-1l-.16-3.52c0-.71-.79-17.08-2.79-31.09A1,1,0,0,0,321.36,2Z"/><path class="cls-1" d="M60.28.88l-15.34.3a1,1,0,0,0-.92.73L43.33,4.5a306.48,306.48,0,0,0-6.58,34.7,1,1,0,0,0,.9,1.11l7.1.52a1,1,0,0,0,1-.85c.29-2.22.61-4.38.93-6.47a.52.52,0,0,1,.56-.43c1.39.1,2.71.15,3.95.15a44.75,44.75,0,0,0,8.47-.77.51.51,0,0,1,.58.38c.84,2.92,1.56,5.38,2.09,7.17a1,1,0,0,0,1.16.67l6.93-1.62a1,1,0,0,0,.72-1.22c-1.75-5.9-6-20.56-9.24-33.47l-.69-2.75A1,1,0,0,0,60.28.88ZM49,24.1a.54.54,0,0,1-.5-.64c1-5.5,2-10,2.74-13a.51.51,0,0,1,.5-.39l2.16,0a.53.53,0,0,1,.52.4c1.08,4.25,2,8.56,3.14,12.61a.5.5,0,0,1-.4.64A39.15,39.15,0,0,1,49,24.1Z"/><path class="cls-1" d="M196.77.9l-15.33.31a1,1,0,0,0-.93.72l-.68,2.6a307.31,307.31,0,0,0-6.59,34.69,1,1,0,0,0,.91,1.12l7.09.51a1,1,0,0,0,1-.85q.43-3.31.93-6.47a.52.52,0,0,1,.56-.43c1.39.11,2.71.16,3.94.16a45.51,45.51,0,0,0,8.47-.77.51.51,0,0,1,.58.37c.85,2.93,1.57,5.38,2.1,7.17a1,1,0,0,0,1.16.68L207,39.09a1,1,0,0,0,.72-1.22c-1.75-5.9-6-20.56-9.25-33.47l-.68-2.75A1,1,0,0,0,196.77.9ZM185.45,24.13a.55.55,0,0,1-.5-.64c1-5.51,2.05-10,2.74-13a.49.49,0,0,1,.49-.38l2.16,0a.52.52,0,0,1,.52.39c1.08,4.25,2,8.56,3.14,12.61a.5.5,0,0,1-.4.65A39.09,39.09,0,0,1,185.45,24.13Z"/><path class="cls-1" d="M226.06,39.36c6.35,0,11.61-3.35,14.83-5.6a1,1,0,0,0,.23-1.36L237,26.59a1,1,0,0,0-1.35-.24c-4.13,2.84-8.55,5.21-13.32,3.14a11.1,11.1,0,0,1-6-8,9.79,9.79,0,0,1,2.51-8.94c4.35-4.49,10.72-2.42,13-1.49a1,1,0,0,0,1.23-.46l3.29-6.31a1,1,0,0,0-.47-1.35C232.52,1.45,221-2.65,212.37,6.24a18.8,18.8,0,0,0-4.9,17,20.1,20.1,0,0,0,11.29,14.55A18.28,18.28,0,0,0,226.06,39.36Z"/><path class="cls-1" d="M253.15,39.75c.28-3.92.48-7.8.61-11.51a.17.17,0,0,1,.32-.06c2.82,5.6,8.6,10.88,19.35,11.26a1,1,0,0,0,1-1l.05-7.1a1,1,0,0,0-1-1c-8.4-.39-11.27-5-12.24-8.4a.73.73,0,0,1,.19-.73L272.8,9.62a1,1,0,0,0,0-1.39l-5.1-5a1,1,0,0,0-1.38,0l-12,12.37a.19.19,0,0,1-.31-.14c0-7-.16-12.4-.24-14.52a1,1,0,0,0-1-.93l-7.1.33a1,1,0,0,0-.93,1,374.49,374.49,0,0,1-.58,37.68,1,1,0,0,0,.9,1l7.09.53A1,1,0,0,0,253.15,39.75Z"/></g></g></svg>