<svg xmlns="http://www.w3.org/2000/svg" viewBox="0 0 130 130"><title>sunny-and-raining</title><path d="M74.33,21.32A2.5,2.5,0,0,1,72,19.8c-.12-.29-2.88-7-.09-16.56a2.5,2.5,0,0,1,4.8,1.4h0c-2.26,7.74-.12,13.17-.09,13.23a2.5,2.5,0,0,1-1.36,3.26A2.45,2.45,0,0,1,74.33,21.32Z" style="fill:#ffad2b"/><path d="M121.33,54.57a2.37,2.37,0,0,1-.7-.1c-7.75-2.25-13.18-.11-13.23-.09a2.5,2.5,0,0,1-1.93-4.61c.28-.12,7-2.88,16.56-.1a2.5,2.5,0,0,1-.7,4.9Z" style="fill:#ffad2b"/><path d="M34,54.57a30.28,30.28,0,0,1-8.46-1.24,2.5,2.5,0,0,1,1.4-4.8c7.75,2.26,13.18.12,13.23.09a2.5,2.5,0,0,1,1.93,4.62A22.37,22.37,0,0,1,34,54.57Z" style="fill:#ffad2b"/><path d="M57.91,25.44a2.47,2.47,0,0,1-1.5-.51c-.24-.18-6-4.63-8.36-14.29a2.5,2.5,0,0,1,4.86-1.2h0c1.91,7.84,6.49,11.47,6.53,11.5a2.51,2.51,0,0,1-1.53,4.5Z" style="fill:#ffad2b"/><path d="M102.35,38.15a2.5,2.5,0,0,1-2.5-2.5,2.46,2.46,0,0,1,.5-1.5c.18-.25,4.63-6,14.29-8.36a2.5,2.5,0,1,1,1.46,4.78l-.28.07c-7.83,1.92-11.46,6.49-11.5,6.54A2.49,2.49,0,0,1,102.35,38.15Z" style="fill:#ffad2b"/><circle cx="74.34" cy="51.51" r="25.15" style="fill:#ffad2b"/><path d="M45.75,37.17h-.31c-.3,0-7.51-1-14.39-8.19a2.5,2.5,0,0,1,3.62-3.46h0C40.23,31.34,46,32.2,46.06,32.21a2.5,2.5,0,0,1-.31,5Z" style="fill:#ffad2b"/><path d="M114.67,78.28a2.52,2.52,0,0,1-1.81-.77c-5.56-5.82-11.33-6.69-11.39-6.69a2.52,2.52,0,0,1,.62-5c.3,0,7.51,1,14.39,8.19a2.51,2.51,0,0,1-1.81,4.23Z" style="fill:#ffad2b"/><path d="M90.6,26h-.31a2.51,2.51,0,0,1-2.13-2.81c0-.31,1-7.52,8.19-14.39a2.5,2.5,0,0,1,3.42,3.65C94,18,93.09,23.78,93.08,23.84A2.52,2.52,0,0,1,90.6,26Z" style="fill:#ffad2b"/><path d="M92.56,68.1A17.13,17.13,0,0,0,62.63,56.71,21.95,21.95,0,0,0,21.93,68.1v.07a17.13,17.13,0,0,0,0,34.15v.12H89.81v-.24a18,18,0,0,0,2.74.24,17.15,17.15,0,0,0,0-34.29Z" style="fill:#e8e8e8"/><path d="M27.16,105.19c-.06-.11,4.5,8.39,4.5,10.87a4.5,4.5,0,0,1-9,0C22.64,113.58,27.23,104.87,27.16,105.19Z" style="fill:#17c1ff"/><path d="M38.16,113.19c-.06-.11,4.5,8.39,4.5,10.87a4.5,4.5,0,0,1-9,0C33.64,121.58,38.23,112.87,38.16,113.19Z" style="fill:#17c1ff"/><path d="M48.16,97.2c-.06-.12,4.5,8.38,4.5,10.86a4.5,4.5,0,0,1-9,0C43.64,105.58,48.23,96.87,48.16,97.2Z" style="fill:#17c1ff"/></svg>