<svg xmlns="http://www.w3.org/2000/svg" viewBox="0 0 130 130"><title>sunny</title><path d="M65.64,30.27a2.48,2.48,0,0,1-2.3-1.52c-.14-.32-3.24-7.89-.1-18.64a2.5,2.5,0,0,1,4.8,1.4c-2.61,9-.11,15.24-.09,15.31a2.5,2.5,0,0,1-1.36,3.27A2.55,2.55,0,0,1,65.64,30.27Z" style="fill:#ffad2b"/><path d="M64.34,121.68a2.12,2.12,0,0,1-.7-.1,2.48,2.48,0,0,1-1.7-3.08v0c2.64-9.06.12-15.23.09-15.29a2.5,2.5,0,1,1,4.52-2.14,2,2,0,0,1,.09.22c.13.31,3.23,7.88.1,18.63A2.48,2.48,0,0,1,64.34,121.68Z" style="fill:#ffad2b"/><path d="M119.19,68.13a2.42,2.42,0,0,1-.7-.1c-9.06-2.65-15.23-.13-15.29-.1a2.5,2.5,0,1,1-2.14-4.51l.22-.1c.31-.13,7.88-3.23,18.63-.09a2.5,2.5,0,0,1-.7,4.9Z" style="fill:#ffad2b"/><path d="M19.63,68.13a34,34,0,0,1-9.55-1.4,2.5,2.5,0,0,1,1.4-4.8c9,2.61,15.24.11,15.31.09a2.5,2.5,0,0,1,1.93,4.61A24.91,24.91,0,0,1,19.63,68.13Z" style="fill:#ffad2b"/><path d="M46.93,34.9a2.52,2.52,0,0,1-1.51-.51c-.27-.2-6.74-5.21-9.4-16.09a2.5,2.5,0,0,1,4.86-1.19c2.24,9.18,7.51,13.26,7.56,13.3a2.5,2.5,0,0,1-1.51,4.49Z" style="fill:#ffad2b"/><path d="M91.53,114.75a2.51,2.51,0,0,1-2.43-1.91c-2.22-9.06-7.52-13.26-7.58-13.3a2.5,2.5,0,0,1,3-4c.28.21,6.75,5.21,9.41,16.09a2.5,2.5,0,0,1-1.84,3A2.66,2.66,0,0,1,91.53,114.75Z" style="fill:#ffad2b"/><path d="M97.56,49.42a2.5,2.5,0,0,1-2-4c.21-.27,5.21-6.74,16.09-9.4a2.52,2.52,0,0,1,3,1.84,2.49,2.49,0,0,1-1.84,3c-9.18,2.24-13.25,7.51-13.29,7.56A2.45,2.45,0,0,1,97.56,49.42Z" style="fill:#ffad2b"/><path d="M17.72,94a2.49,2.49,0,0,1-2.51-2.48,2.53,2.53,0,0,1,1.91-2.45c9.18-2.24,13.26-7.51,13.3-7.57a2.5,2.5,0,0,1,4,3c-.2.28-5.21,6.75-16.09,9.41A2.1,2.1,0,0,1,17.72,94Z" style="fill:#ffad2b"/><circle cx="65.64" cy="64.99" r="28.66" style="fill:#ffad2b"/><path d="M33.06,48.27h-.31c-.34,0-8.44-1.14-16.19-9.23a2.5,2.5,0,0,1,3.61-3.46c6.45,6.74,13.11,7.69,13.21,7.69a2.51,2.51,0,0,1-.32,5Z" style="fill:#ffad2b"/><path d="M111.61,95.14a2.5,2.5,0,0,1-1.81-.77c-6.45-6.74-13.14-7.72-13.21-7.73a2.52,2.52,0,1,1,.64-5c.34,0,8.44,1.14,16.18,9.23a2.49,2.49,0,0,1-1.8,4.23Z" style="fill:#ffad2b"/><path d="M84.17,35.54h-.32a2.49,2.49,0,0,1-2.16-2.78c0-.34,1.14-8.44,9.23-16.19a2.5,2.5,0,1,1,3.46,3.61h0c-6.74,6.43-7.72,13.09-7.73,13.19A2.49,2.49,0,0,1,84.17,35.54Z" style="fill:#ffad2b"/><path d="M37.28,114.1a2.49,2.49,0,0,1-2.5-2.49,2.54,2.54,0,0,1,.77-1.82c6.87-6.52,7.73-13.13,7.73-13.2a2.52,2.52,0,0,1,5,.62h0c0,.35-1.14,8.45-9.23,16.19A2.48,2.48,0,0,1,37.28,114.1Z" style="fill:#ffad2b"/></svg>