<svg xmlns="http://www.w3.org/2000/svg" viewBox="0 0 130 130"><title>sunny-with-cloud</title><path d="M75.49,30.6a2.42,2.42,0,0,1-2.24-1.47c-.13-.32-3.14-7.68-.1-18.13a2.43,2.43,0,0,1,4.67,1.36c-2.54,8.75-.11,14.82-.09,14.89a2.42,2.42,0,0,1-2.24,3.35Z" style="fill:#ffad2b"/><path d="M127.57,67.42a2.6,2.6,0,0,1-.68-.1c-8.82-2.57-14.82-.12-14.88-.1a2.43,2.43,0,0,1-1.89-4.48c.31-.12,7.67-3.14,18.13-.09a2.43,2.43,0,0,1-.68,4.77Z" style="fill:#ffad2b"/><path d="M30.75,67.42a33.2,33.2,0,0,1-9.29-1.36,2.43,2.43,0,0,1,1.36-4.67c8.75,2.54,14.83.11,14.89.09A2.43,2.43,0,0,1,39.59,66,24.43,24.43,0,0,1,30.75,67.42Z" style="fill:#ffad2b"/><path d="M57.3,35.11a2.46,2.46,0,0,1-1.47-.5c-.26-.19-6.55-5.07-9.14-15.65a2.43,2.43,0,0,1,4.73-1.15h0c2.17,8.9,7.29,12.89,7.34,12.93a2.44,2.44,0,0,1,.47,3.41A2.46,2.46,0,0,1,57.3,35.11Z" style="fill:#ffad2b"/><path d="M106.53,49.23a2.46,2.46,0,0,1-2.43-2.46,2.51,2.51,0,0,1,.48-1.43c.21-.27,5.07-6.56,15.66-9.14a2.43,2.43,0,1,1,1.14,4.72h0c-8.91,2.18-12.88,7.3-12.92,7.35A2.42,2.42,0,0,1,106.53,49.23Z" style="fill:#ffad2b"/><circle cx="75.49" cy="64.37" r="27.87" style="fill:#ffad2b"/><path d="M43.82,48.11H43.5c-.33,0-8.2-1.11-15.74-9a2.43,2.43,0,0,1,3.52-3.36h0c6.27,6.55,12.78,7.48,12.85,7.48a2.43,2.43,0,0,1-.31,4.86Z" style="fill:#ffad2b"/><path d="M120.19,93.68a2.43,2.43,0,0,1-1.76-.75c-6.27-6.55-12.78-7.5-12.85-7.51a2.43,2.43,0,0,1,.62-4.83h0c.34,0,8.21,1.1,15.75,9a2.44,2.44,0,0,1-.07,3.44A2.47,2.47,0,0,1,120.19,93.68Z" style="fill:#ffad2b"/><path d="M93.51,35.73a1.71,1.71,0,0,1-.32,0,2.43,2.43,0,0,1-2.1-2.7c0-.34,1.11-8.21,9-15.75a2.43,2.43,0,0,1,3.35,3.51c-6.55,6.26-7.5,12.73-7.51,12.83A2.44,2.44,0,0,1,93.51,35.73Z" style="fill:#ffad2b"/><path d="M95.67,82.75h0A19,19,0,0,0,62.51,70.11,24.31,24.31,0,0,0,17.43,82.75v.08a19,19,0,0,0,0,37.84v.08H92.64v-.27a19.28,19.28,0,0,0,3,.27,19,19,0,0,0,.86-38Z" style="fill:#e8e8e8"/></svg>