<svg xmlns="http://www.w3.org/2000/svg" viewBox="0 0 211.49 68.02"><title>arrow-scroll-left-right</title><g style="isolation:isolate"><path d="M12.52,28.39a6.19,6.19,0,0,1-.26,2.2,5.5,5.5,0,0,1-1,1.86,5.23,5.23,0,0,1-1.62,1.32,5.09,5.09,0,0,1-2.16.57,5.56,5.56,0,0,1-2-.23,4.66,4.66,0,0,1-1.6-.86,4.34,4.34,0,0,1-1.1-1.43,5.17,5.17,0,0,1-.47-1.93c0-.15,0-.33,0-.55a2.73,2.73,0,0,1,.07-.64,1.6,1.6,0,0,1,.22-.53.6.6,0,0,1,.47-.23,1.68,1.68,0,0,1,.56.07,3,3,0,0,1,.58.24,2,2,0,0,1,.47.39.87.87,0,0,1,.2.52l0,.9a2.58,2.58,0,0,0,.68,1.73,2.12,2.12,0,0,0,1.73.59A2.44,2.44,0,0,0,8.7,32a3,3,0,0,0,.87-1A4.42,4.42,0,0,0,10,29.7a6.49,6.49,0,0,0,.09-1.38,6.38,6.38,0,0,0-.67-2.51A13.91,13.91,0,0,0,8,23.47c-.58-.76-1.21-1.5-1.88-2.23s-1.3-1.45-1.88-2.17a14.9,14.9,0,0,1-1.47-2.18,5.25,5.25,0,0,1-.66-2.27A3.38,3.38,0,0,1,2.37,13a3.28,3.28,0,0,1,.95-1.19A4.35,4.35,0,0,1,4.72,11a6.49,6.49,0,0,1,1.66-.3,5.39,5.39,0,0,1,1.88.2,3.82,3.82,0,0,1,1.45.78,3.65,3.65,0,0,1,1,1.34,5.42,5.42,0,0,1,.4,1.85c0,.1,0,.23,0,.39a2.4,2.4,0,0,1-.05.46,1,1,0,0,1-.17.4.37.37,0,0,1-.33.18,1.29,1.29,0,0,1-.63-.12A2.58,2.58,0,0,1,9.44,16a1.19,1.19,0,0,1-.27-.28A1.46,1.46,0,0,1,9,15.33a4,4,0,0,1-.1-.5,9.61,9.61,0,0,0-.26-1,2.09,2.09,0,0,0-.42-.75,1.56,1.56,0,0,0-.68-.45,2.55,2.55,0,0,0-1-.11,4,4,0,0,0-.86.13,2.09,2.09,0,0,0-.7.35,1.61,1.61,0,0,0-.46.6,1.82,1.82,0,0,0-.13.87,3.66,3.66,0,0,0,.39,1.46,9.44,9.44,0,0,0,.93,1.48c.37.5.8,1,1.27,1.54l1.45,1.62c.5.56,1,1.14,1.46,1.73a18.27,18.27,0,0,1,1.29,1.87,12,12,0,0,1,.95,2A7.74,7.74,0,0,1,12.52,28.39Z" style="fill:#fff"/><path d="M19.36,33.43a.53.53,0,0,1-.09.36A.67.67,0,0,1,19,34a1,1,0,0,1-.35.15l-.35.06a1.55,1.55,0,0,1-1-.27,2.82,2.82,0,0,1-.74-.76,4.51,4.51,0,0,1-.54-1.1,13.91,13.91,0,0,1-.63-2.46c-.06-.39-.11-.72-.15-1-.14-1-.26-1.94-.35-2.94s-.16-2-.21-3q-.21-4-.13-8v-.3c0-.22,0-.47,0-.76s0-.57,0-.85,0-.54,0-.78a1.67,1.67,0,0,1,.07-.5v0a.83.83,0,0,1,.16-.34.55.55,0,0,1,.37-.13,1.32,1.32,0,0,1,1,.33,1.27,1.27,0,0,1,.44.92v.24a1.55,1.55,0,0,1,0,.22,1.7,1.7,0,0,0,0,.22,1.08,1.08,0,0,0,0,.18c0,.4,0,.81,0,1.21s0,.81,0,1.21c0,.9,0,1.79,0,2.69s.06,1.79.1,2.69c0,.39.05.89.1,1.51s.1,1.31.17,2,.15,1.48.25,2.26.21,1.52.34,2.22A17.38,17.38,0,0,0,18,31a4.79,4.79,0,0,0,.52,1.31.7.7,0,0,1,.29.18,2.26,2.26,0,0,1,.25.28,3.72,3.72,0,0,1,.19.34A.84.84,0,0,1,19.36,33.43Z" style="fill:#fff"/><path d="M22.66,19.64a.49.49,0,0,1-.1.39.59.59,0,0,1-.42.14,4.16,4.16,0,0,1-.44,0,4.44,4.44,0,0,1-.61-.08,2.15,2.15,0,0,1-.54-.19.41.41,0,0,1-.24-.34,2.24,2.24,0,0,1,0-.35c0-.19,0-.4.08-.62s.07-.42.1-.6a.75.75,0,0,1,.07-.3h0a.28.28,0,0,1,.18-.16.8.8,0,0,1,.21-.05l.37,0a3.73,3.73,0,0,1,.46.09,1.92,1.92,0,0,1,.42.16.5.5,0,0,1,.25.22,1.17,1.17,0,0,1,.07.33,2.6,2.6,0,0,1,0,.39V19a.77.77,0,0,0,0,.15.76.76,0,0,0,0,.16l0,.17A1.23,1.23,0,0,1,22.66,19.64Zm1.23,12.41a.71.71,0,0,1-.14.52.8.8,0,0,1-.52.17,2,2,0,0,1-.41,0,3.43,3.43,0,0,1-.46-.11,2.17,2.17,0,0,1-.41-.19,1,1,0,0,1-.3-.27,2,2,0,0,1-.14-.57c-.05-.32-.09-.72-.13-1.2s-.08-1-.13-1.6-.09-1.19-.13-1.8-.06-1.19-.09-1.76S21,24.15,21,23.72l-.06-1.2c0-.1,0-.21,0-.31a.79.79,0,0,1,0-.28.47.47,0,0,1,.17-.2.56.56,0,0,1,.33-.1,1.24,1.24,0,0,1,1,.33,2,2,0,0,1,.46,1q.12.95.21,1.89c.06.63.12,1.27.17,1.91s.1,1.16.15,1.72.1,1.13.18,1.69c0,.12,0,.23.05.33s0,.2.07.31l.09.61C23.85,31.62,23.87,31.83,23.89,32.05Z" style="fill:#fff"/><path d="M33.88,31.74a.54.54,0,0,1-.25.48.82.82,0,0,1-.25.12,1.09,1.09,0,0,1-.25,0,1.94,1.94,0,0,1-.41,0,3.69,3.69,0,0,1-.45-.11,1.87,1.87,0,0,1-.4-.2.89.89,0,0,1-.29-.29,1.36,1.36,0,0,1-.16-.42c0-.17-.07-.35-.1-.52a8,8,0,0,1-.32.75,2.66,2.66,0,0,1-.48.66,2.46,2.46,0,0,1-.64.47,2.11,2.11,0,0,1-.81.21,2.08,2.08,0,0,1-1.31-.31,2.51,2.51,0,0,1-.81-.9,4.08,4.08,0,0,1-.43-1.23,10.38,10.38,0,0,1-.15-1.3c0-.35,0-.74,0-1.18s0-.88.05-1.34.07-.91.12-1.35.11-.82.17-1.16.19-.82.32-1.29a7.32,7.32,0,0,1,.51-1.33,3.69,3.69,0,0,1,.81-1.06,2.17,2.17,0,0,1,1.21-.54c-.07-.84-.16-1.61-.25-2.32s-.19-1.44-.3-2.19l-.24-1.72-.1-.62c0-.17-.05-.34-.07-.51s0-.34,0-.5a.57.57,0,0,1,.17-.51.83.83,0,0,1,.5-.17,2.22,2.22,0,0,1,1.05.15,1.09,1.09,0,0,1,.54.52,2.09,2.09,0,0,1,.2.79c0,.31,0,.64.07,1a4.13,4.13,0,0,0,.12.78l.11.57.21,1.59c0,.25.06.5.1.75s.07.49.1.74l.5,3.34,1,6.24.08.58c.06.42.13.86.19,1.32a9,9,0,0,0,.28,1.35c0,.11.07.22.1.32A1.61,1.61,0,0,1,33.88,31.74Zm-4.12-8.95c0-.11,0-.24,0-.38a2.8,2.8,0,0,1,0-.4l0-.42c-.07.11-.16.26-.26.45a2.49,2.49,0,0,0-.24.5A7.16,7.16,0,0,0,28.81,24c-.11.58-.19,1.18-.26,1.8s-.11,1.23-.13,1.82,0,1.09,0,1.48a4.75,4.75,0,0,0,0,.5,3.72,3.72,0,0,0,.08.57,3.09,3.09,0,0,0,.17.54,1.23,1.23,0,0,0,.28.43,3,3,0,0,0,.37-.94,11.48,11.48,0,0,0,.25-1.42c.06-.53.1-1.09.14-1.67s.05-1.16.06-1.7V23.86C29.79,23.41,29.78,23.05,29.76,22.79Z" style="fill:#fff"/><path d="M42.5,28.91a2,2,0,0,1-.21,1,3.84,3.84,0,0,1-.61.95,3.48,3.48,0,0,1-.9.72,2.25,2.25,0,0,1-1,.32,2.6,2.6,0,0,1-1.28-.22,3,3,0,0,1-1-.73,4.21,4.21,0,0,1-.69-1.09,9,9,0,0,1-.45-1.26,10.3,10.3,0,0,1-.27-1.32c-.06-.44-.09-.84-.11-1.21s0-.68,0-1.11.06-.87.12-1.34a10.8,10.8,0,0,1,.3-1.37A5.29,5.29,0,0,1,36.93,21a3.07,3.07,0,0,1,.8-.91,2,2,0,0,1,1.11-.38,1.92,1.92,0,0,1,.91.15,2,2,0,0,1,.7.51,2.2,2.2,0,0,1,.46.75,2.68,2.68,0,0,1,.2.89,3.78,3.78,0,0,1-.21,1.35,7.57,7.57,0,0,1-.66,1.42A6.63,6.63,0,0,1,39.31,26a4.58,4.58,0,0,1-1.06.88c0,.19.09.46.17.81a8,8,0,0,0,.31,1.06,4.19,4.19,0,0,0,.44.9.64.64,0,0,0,.56.36A.45.45,0,0,0,40,30a.93.93,0,0,0,.19-.27,1.6,1.6,0,0,0,.15-.35c0-.12.08-.25.11-.36l.09-.23s0,0,0-.06l0-.05.19-.39a1,1,0,0,1,.28-.31h0a.19.19,0,0,1,.13-.07l.13,0a1,1,0,0,1,.38.09,1.66,1.66,0,0,1,.39.26,1.38,1.38,0,0,1,.3.34A.82.82,0,0,1,42.5,28.91Zm-3.45-6.73c0-.1,0-.21,0-.32a1.18,1.18,0,0,0-.09-.3,2.58,2.58,0,0,0-.35.66,5,5,0,0,0-.24.78c-.06.26-.1.54-.14.81s-.05.52-.06.75a5,5,0,0,0,.66-1.13A2.72,2.72,0,0,0,39.05,22.18Z" style="fill:#fff"/><path d="M54.68,30.75a.54.54,0,0,1-.07.29.66.66,0,0,1-.18.19,1.09,1.09,0,0,1-.25.1l-.25,0a2.77,2.77,0,0,1-.4,0,2.36,2.36,0,0,1-.46-.1,1.78,1.78,0,0,1-.4-.17.78.78,0,0,1-.29-.28,2,2,0,0,1-.2-.57c-.06-.29-.11-.62-.17-1s-.09-.78-.14-1.21-.08-.84-.12-1.24-.06-.75-.08-1.07,0-.55-.05-.71c0-.72-.06-1.43-.07-2.11s0-1.39,0-2.11a.9.9,0,0,0-.16,0l-.15,0-.41.07-.43,0a1.21,1.21,0,0,1-.48-.07.43.43,0,0,1-.22-.41,1.07,1.07,0,0,1,.14-.64,1.21,1.21,0,0,1,.42-.39,2.09,2.09,0,0,1,.56-.21l.61-.12h.12c0-.13,0-.28,0-.47V18c0-.34,0-.71,0-1.1V15.78c0-.36,0-.68,0-.95s0-.48.06-.59a1.2,1.2,0,0,1,.17-.34.46.46,0,0,1,.37-.15,1.2,1.2,0,0,1,1,.36,1.47,1.47,0,0,1,.4,1q0,.69,0,1.38v2.19c.26-.05.51-.11.77-.18s.5-.13.75-.18a3.86,3.86,0,0,1,.74-.1.58.58,0,0,1,.69.6,2,2,0,0,1-.09.68A.92.92,0,0,1,56,20h0a2.25,2.25,0,0,1-.37.11l-.7.13-.78.14-.57.09h0c0,.59,0,1.16,0,1.73s.05,1.14.08,1.72c0,.81.11,1.65.2,2.55s.22,1.75.37,2.56l.17.69c.05.18.09.35.13.52A3,3,0,0,1,54.68,30.75Z" style="fill:#fff"/><path d="M65.2,24.17a16.46,16.46,0,0,1-.08,2.72,7.48,7.48,0,0,1-.8,2.6,5.48,5.48,0,0,1-.46.72,4,4,0,0,1-.59.64,2.61,2.61,0,0,1-.71.48,2.3,2.3,0,0,1-2,0,3,3,0,0,1-.91-.8,4.63,4.63,0,0,1-.67-1.15A8.12,8.12,0,0,1,58.49,28c-.11-.46-.2-.91-.26-1.34s-.09-.82-.11-1.15,0-.79,0-1.24,0-.91.09-1.38.14-.94.24-1.41a7.75,7.75,0,0,1,.44-1.31,4.92,4.92,0,0,1,.7-1.12,3.44,3.44,0,0,1,1-.81v0a2.1,2.1,0,0,1,1-.32A.79.79,0,0,1,62,18a.49.49,0,0,1,.18.44,2.19,2.19,0,0,1,1.43.75,4.9,4.9,0,0,1,.9,1.52,9.21,9.21,0,0,1,.49,1.8A14.49,14.49,0,0,1,65.2,24.17Zm-3.73-3.72a.77.77,0,0,1-.51-.17,4.44,4.44,0,0,0-.44,1.06,7.15,7.15,0,0,0-.26,1.22,10.36,10.36,0,0,0-.1,1.25c0,.42,0,.81,0,1.17s0,.69.11,1.16a14.08,14.08,0,0,0,.25,1.42A7.86,7.86,0,0,0,61,28.88a2,2,0,0,0,.68.89,2.21,2.21,0,0,0,.76-.94,6.45,6.45,0,0,0,.43-1.37A9.59,9.59,0,0,0,63,26c0-.5,0-.93,0-1.28s0-.6-.1-1-.13-.83-.22-1.26a7.56,7.56,0,0,0-.37-1.19,2.09,2.09,0,0,0-.54-.82A.83.83,0,0,1,61.47,20.45Z" style="fill:#fff"/><path d="M79.22,18.39a.39.39,0,0,1-.12.32.91.91,0,0,1-.31.22,1.28,1.28,0,0,1-.37.14l-.32.05a2.06,2.06,0,0,1-.36,0L77.39,19,77.06,19a1.22,1.22,0,0,0-.33,0,1.58,1.58,0,0,0-.47.1,1.52,1.52,0,0,0-.41.24,1.09,1.09,0,0,0-.28.36,1,1,0,0,0-.1.46,2,2,0,0,0,.2.73,4.73,4.73,0,0,0,.45.72c.19.24.4.49.63.73l.75.74,1,1a9.5,9.5,0,0,1,.88,1A5.76,5.76,0,0,1,80,26.17a4,4,0,0,1,.3,1.3,2.81,2.81,0,0,1-.14,1.07,2.27,2.27,0,0,1-.51.83,2.47,2.47,0,0,1-.81.55,3.28,3.28,0,0,1-1.06.23,2.24,2.24,0,0,1-.48,0c-.22,0-.46-.08-.74-.15l-.85-.21c-.29-.08-.55-.17-.79-.26a4.17,4.17,0,0,1-.6-.3c-.15-.1-.23-.2-.24-.29a.58.58,0,0,1,.15-.4,2.82,2.82,0,0,1,.39-.38,3.88,3.88,0,0,1,.48-.3,1.3,1.3,0,0,1,.42-.13,1.33,1.33,0,0,1,.5.09c.17.06.35.14.53.22s.41.18.62.25a1.74,1.74,0,0,0,.64.09c.16,0,.26-.07.28-.19a2.3,2.3,0,0,0,0-.39,3,3,0,0,0-.24-1,5.47,5.47,0,0,0-.54-.93,8.3,8.3,0,0,0-.73-.88l-.83-.84c-.29-.28-.56-.56-.83-.83a8.13,8.13,0,0,1-.73-.86,5,5,0,0,1-.52-.92,2.93,2.93,0,0,1-.24-1,2.51,2.51,0,0,1,.24-1.23,3.27,3.27,0,0,1,.72-1,3.53,3.53,0,0,1,1-.66,3.6,3.6,0,0,1,1.2-.27,3.3,3.3,0,0,1,.62.05,6.17,6.17,0,0,1,.85.2,3.07,3.07,0,0,1,.73.34A.59.59,0,0,1,79.22,18.39Z" style="fill:#fff"/><path d="M88.71,26.5a2,2,0,0,1-.21,1,3.84,3.84,0,0,1-.61.95,3.74,3.74,0,0,1-.9.73,2.38,2.38,0,0,1-1,.32,2.6,2.6,0,0,1-1.28-.23,2.92,2.92,0,0,1-1-.73A4,4,0,0,1,83,27.44a9.1,9.1,0,0,1-.45-1.27,10.3,10.3,0,0,1-.27-1.32c0-.44-.09-.84-.11-1.2s0-.68,0-1.11.06-.88.12-1.34a11.35,11.35,0,0,1,.3-1.38,5.69,5.69,0,0,1,.52-1.23,2.91,2.91,0,0,1,.8-.9,2,2,0,0,1,1.11-.39,1.92,1.92,0,0,1,.91.16,2.08,2.08,0,0,1,.7.5,2.41,2.41,0,0,1,.46.75,2.8,2.8,0,0,1,.2.9A3.76,3.76,0,0,1,87.11,21a7.73,7.73,0,0,1-1.59,2.69,4.84,4.84,0,0,1-1.06.88c0,.18.09.45.17.81a8,8,0,0,0,.31,1.06,4.34,4.34,0,0,0,.44.89.63.63,0,0,0,.56.37.46.46,0,0,0,.27-.11.88.88,0,0,0,.19-.26,2.17,2.17,0,0,0,.15-.35c0-.13.08-.25.11-.37l.09-.22s0-.06,0-.07l0,0,.19-.39a.91.91,0,0,1,.28-.31h0a.26.26,0,0,1,.13-.08h.13a.7.7,0,0,1,.38.09,1.62,1.62,0,0,1,.39.25,1.43,1.43,0,0,1,.3.35A.79.79,0,0,1,88.71,26.5Zm-3.45-6.72a2,2,0,0,0,0-.33,1.1,1.1,0,0,0-.09-.29,2.36,2.36,0,0,0-.35.65,5,5,0,0,0-.24.78,7.58,7.58,0,0,0-.13.81c0,.28-.06.53-.07.76A5.31,5.31,0,0,0,85,21,2.68,2.68,0,0,0,85.26,19.78Z" style="fill:#fff"/><path d="M97.07,26.07a2.25,2.25,0,0,1-.21,1,3.61,3.61,0,0,1-.62.95,3.47,3.47,0,0,1-.89.72,2.25,2.25,0,0,1-1,.32,2.6,2.6,0,0,1-1.28-.22,2.85,2.85,0,0,1-1-.73A4.21,4.21,0,0,1,91.4,27,7,7,0,0,1,91,25.74a10.3,10.3,0,0,1-.27-1.32c-.06-.44-.1-.84-.12-1.21s0-.68,0-1.11a13.05,13.05,0,0,1,.12-1.34,8.18,8.18,0,0,1,.3-1.37,4.9,4.9,0,0,1,.52-1.23,2.94,2.94,0,0,1,.8-.91,2,2,0,0,1,1.11-.38,1.94,1.94,0,0,1,.91.15,2.07,2.07,0,0,1,.7.51,2.36,2.36,0,0,1,.46.75,3,3,0,0,1,.2.89,3.59,3.59,0,0,1-.22,1.35,7.52,7.52,0,0,1-.65,1.42,6.67,6.67,0,0,1-.94,1.26,4.54,4.54,0,0,1-1.05.88c0,.19.08.46.16.81A8.06,8.06,0,0,0,93.3,26a4.19,4.19,0,0,0,.43.9.66.66,0,0,0,.56.36.37.37,0,0,0,.27-.11.78.78,0,0,0,.2-.26,1.6,1.6,0,0,0,.15-.35c0-.13.07-.25.11-.36l.08-.23,0-.06,0-.05c.06-.14.13-.27.19-.39a1,1,0,0,1,.27-.31h0a.19.19,0,0,1,.13-.07l.13,0a1,1,0,0,1,.38.09,1.66,1.66,0,0,1,.39.26,1.38,1.38,0,0,1,.3.34A.82.82,0,0,1,97.07,26.07Zm-3.45-6.73,0-.32a.88.88,0,0,0-.1-.3,3.41,3.41,0,0,0-.35.66,6.41,6.41,0,0,0-.23.78,7.21,7.21,0,0,0-.14.81q0,.41-.06.75a5.89,5.89,0,0,0,.66-1.13A2.72,2.72,0,0,0,93.62,19.34Z" style="fill:#fff"/><path d="M112.44,27.93a.49.49,0,0,1-.14.43.67.67,0,0,1-.43.14,1.27,1.27,0,0,1-1.07-.33,2.61,2.61,0,0,1-.53-1l-.12-.44c0-.15-.07-.29-.1-.44A1.43,1.43,0,0,0,110,26a1.19,1.19,0,0,1-.07-.29,8.63,8.63,0,0,1-.42,1,5.27,5.27,0,0,1-.58.94,3.27,3.27,0,0,1-.77.72,1.93,1.93,0,0,1-1,.32,1.53,1.53,0,0,1-1-.23,1.87,1.87,0,0,1-.62-.66,3.06,3.06,0,0,1-.35-.89,5.54,5.54,0,0,1-.13-.95,13.18,13.18,0,0,1,.09-2.31,20.23,20.23,0,0,1,.46-2.52,19.06,19.06,0,0,1,.75-2.43,12,12,0,0,1,1-2.06h0l.09-.14c.11-.16.23-.34.37-.53a.68.68,0,0,1,.53-.3.63.63,0,0,1,.52.23,1.51,1.51,0,0,1,.34.52,2.87,2.87,0,0,1,.67.16,1.13,1.13,0,0,1,.41.27.91.91,0,0,1,.2.39,2.39,2.39,0,0,1,.08.49,1.85,1.85,0,0,0,0,.23v.25a1.5,1.5,0,0,0,0,.3c0,.12,0,.22,0,.31a2.07,2.07,0,0,0,.08.41c0,.16.09.33.14.5l.14.58c.07.3.13.64.19,1s.12.77.19,1.15.12.77.18,1.14.12.71.18,1l.5,2.3.06.26c0,.13.06.26.09.37A2,2,0,0,1,112.44,27.93Zm-4-8.79a.87.87,0,0,1,0-.1.83.83,0,0,1,0-.15,11.29,11.29,0,0,0-.55,1.7,18.33,18.33,0,0,0-.36,1.85c-.08.62-.14,1.25-.17,1.87s0,1.21,0,1.76a.61.61,0,0,0,0,.14.5.5,0,0,0,0,.12v0a5.82,5.82,0,0,0,.57-1.56,20.28,20.28,0,0,0,.36-2c.08-.7.14-1.38.16-2S108.42,19.56,108.4,19.14Z" style="fill:#fff"/><path d="M119,28.24a.55.55,0,0,1-.09.37.87.87,0,0,1-.26.24,1.22,1.22,0,0,1-.35.14l-.35.06a1.49,1.49,0,0,1-1-.27,2.69,2.69,0,0,1-.74-.76,4.92,4.92,0,0,1-.55-1.1c-.14-.42-.27-.83-.37-1.25a11.86,11.86,0,0,1-.25-1.21c-.07-.38-.11-.72-.15-1-.14-1-.26-1.94-.35-2.94s-.16-2-.21-3q-.21-4-.13-8V9.3c0-.22,0-.47,0-.76V7.69q0-.42,0-.78a1.87,1.87,0,0,1,.08-.49h0a.72.72,0,0,1,.16-.34.53.53,0,0,1,.36-.12,1.33,1.33,0,0,1,1,.32,1.22,1.22,0,0,1,.43.92,1.93,1.93,0,0,1,0,.24c0,.08,0,.15,0,.23a1.48,1.48,0,0,0,0,.21,1.07,1.07,0,0,0,0,.18c0,.41,0,.81,0,1.21s0,.81,0,1.21c0,.9,0,1.8,0,2.69s0,1.79.1,2.69c0,.39,0,.89.1,1.52s.1,1.3.16,2,.16,1.49.26,2.26.21,1.52.34,2.23.27,1.33.43,1.9a5.16,5.16,0,0,0,.53,1.3,1.15,1.15,0,0,1,.29.18,2.37,2.37,0,0,1,.25.29,2.59,2.59,0,0,1,.19.33A.88.88,0,0,1,119,28.24Z" style="fill:#fff"/><path d="M125,27.93a.53.53,0,0,1-.09.36.85.85,0,0,1-.26.24,1.14,1.14,0,0,1-.36.15l-.35.06a1.46,1.46,0,0,1-1-.27,2.86,2.86,0,0,1-.75-.76,5.36,5.36,0,0,1-.54-1.1c-.15-.42-.27-.83-.38-1.25s-.19-.82-.25-1.21-.11-.72-.15-1c-.14-1-.26-1.94-.34-2.94s-.16-2-.21-3q-.21-4-.14-8a.71.71,0,0,1,0-.14.81.81,0,0,0,0-.16V8.23c0-.28,0-.57,0-.85s0-.54,0-.78a2.17,2.17,0,0,1,.07-.5v0a.72.72,0,0,1,.15-.34.55.55,0,0,1,.37-.13,1.35,1.35,0,0,1,1,.33,1.27,1.27,0,0,1,.44.92,1.92,1.92,0,0,1,0,.24,1.77,1.77,0,0,1,0,.23c0,.07,0,.14,0,.21v.18c0,.4,0,.81,0,1.21s0,.81,0,1.21c0,.9,0,1.8,0,2.69s0,1.79.1,2.69c0,.39,0,.89.09,1.51s.1,1.31.17,2,.15,1.48.25,2.26.21,1.52.34,2.22.28,1.34.44,1.9a4.76,4.76,0,0,0,.53,1.31.88.88,0,0,1,.28.18,1.67,1.67,0,0,1,.25.28,2.27,2.27,0,0,1,.19.34A1.17,1.17,0,0,1,125,27.93Z" style="fill:#fff"/><path d="M136.72,26.48a.46.46,0,0,1-.06.29.66.66,0,0,1-.18.19,1.09,1.09,0,0,1-.25.1,1.15,1.15,0,0,1-.26,0,1.93,1.93,0,0,1-.4,0,1.8,1.8,0,0,1-.45-.09,2.09,2.09,0,0,1-.41-.17.83.83,0,0,1-.28-.28,1.7,1.7,0,0,1-.2-.57c-.06-.29-.11-.62-.17-1s-.09-.78-.14-1.21-.08-.84-.12-1.24-.06-.75-.08-1.07,0-.55-.05-.71c0-.72-.06-1.43-.07-2.11s0-1.39,0-2.11a.9.9,0,0,0-.16,0l-.15,0-.41.07-.43,0a1.21,1.21,0,0,1-.48-.07.44.44,0,0,1-.22-.41,1,1,0,0,1,.14-.64,1.13,1.13,0,0,1,.42-.39,2.09,2.09,0,0,1,.56-.21l.61-.12h.12c0-.13,0-.28,0-.47v-.6c0-.34,0-.71,0-1.1V11.51c0-.36,0-.68,0-.95s0-.48.06-.59a1.08,1.08,0,0,1,.17-.34.46.46,0,0,1,.37-.15,1.2,1.2,0,0,1,1,.36,1.45,1.45,0,0,1,.4,1q0,.69,0,1.38v2.19l.77-.18.75-.18a4.9,4.9,0,0,1,.74-.11.68.68,0,0,1,.49.14.64.64,0,0,1,.2.47,2,2,0,0,1-.09.68,1,1,0,0,1-.41.52h0a2.25,2.25,0,0,1-.37.11L137,16l-.78.14-.57.09h0c0,.58,0,1.16,0,1.73s.05,1.14.08,1.72c0,.8.1,1.65.2,2.55s.22,1.75.37,2.56l.17.69c0,.18.09.35.13.52A2.24,2.24,0,0,1,136.72,26.48Z" style="fill:#fff"/><path d="M147.25,19.9a16.49,16.49,0,0,1-.08,2.72,7.48,7.48,0,0,1-.8,2.6,5.48,5.48,0,0,1-.46.72,4,4,0,0,1-.59.64,2.61,2.61,0,0,1-.71.48,2.3,2.3,0,0,1-2,0,3,3,0,0,1-.91-.8,4.82,4.82,0,0,1-.67-1.15,8.12,8.12,0,0,1-.45-1.34c-.11-.46-.2-.91-.26-1.34s-.09-.82-.11-1.15,0-.79,0-1.24,0-.91.09-1.38.14-.94.24-1.41a7.75,7.75,0,0,1,.44-1.31,4.92,4.92,0,0,1,.7-1.12,3.44,3.44,0,0,1,1-.81v0a2.1,2.1,0,0,1,1-.32.79.79,0,0,1,.49.11.49.49,0,0,1,.18.43,2.27,2.27,0,0,1,1.43.76,4.78,4.78,0,0,1,.9,1.52,10,10,0,0,1,.49,1.8A14.25,14.25,0,0,1,147.25,19.9Zm-3.73-3.72A.77.77,0,0,1,143,16a4.9,4.9,0,0,0-.45,1.06,8.24,8.24,0,0,0-.25,1.22,10.36,10.36,0,0,0-.1,1.25c0,.42,0,.81,0,1.17s.05.69.11,1.16a14.08,14.08,0,0,0,.25,1.42,8.18,8.18,0,0,0,.45,1.32,2,2,0,0,0,.68.89,2.12,2.12,0,0,0,.75-.94,5.94,5.94,0,0,0,.44-1.37,9.59,9.59,0,0,0,.18-1.5c0-.5,0-.93,0-1.28s-.05-.6-.1-1-.13-.83-.23-1.26a6.64,6.64,0,0,0-.36-1.19,2,2,0,0,0-.54-.82A1,1,0,0,1,143.52,16.18Z" style="fill:#fff"/><path d="M156.34,15.52a1.74,1.74,0,0,1,0,.32c0,.12,0,.23-.05.32s0,.22,0,.32a1,1,0,0,0,0,.29q.08,1.45.21,2.91a22.52,22.52,0,0,0,.45,2.91c.07.38.16.74.25,1.09s.19.7.3,1.06l0,.09v0l.09.22a1.05,1.05,0,0,1,.06.24.45.45,0,0,1-.08.29.7.7,0,0,1-.2.18.62.62,0,0,1-.27.09l-.27,0a2.21,2.21,0,0,1-.82-.07,1.28,1.28,0,0,1-.51-.3,1.16,1.16,0,0,1-.3-.5,4.9,4.9,0,0,1-.18-.64l-.07-.28a2.3,2.3,0,0,1-.1-.47c0-.08,0-.12,0-.11l0-.12c-.13.27-.29.56-.46.86a5.33,5.33,0,0,1-.61.86,4.44,4.44,0,0,1-.76.69,1.79,1.79,0,0,1-.89.3,1.33,1.33,0,0,1-1.06-.35,2.44,2.44,0,0,1-.59-1,5.24,5.24,0,0,1-.27-1.2c0-.42-.07-.79-.08-1.1-.07-1.19-.09-2.36-.07-3.54s0-2.34.07-3.52v-.13a.57.57,0,0,0,0-.12c0-.15,0-.28,0-.41a1.09,1.09,0,0,1,.06-.36h0a.64.64,0,0,1,.16-.36.5.5,0,0,1,.36-.13,1.29,1.29,0,0,1,.47.06,1.56,1.56,0,0,1,.43.21,1.33,1.33,0,0,1,.33.34,1,1,0,0,1,.14.44c0,.09,0,.18,0,.3a1.5,1.5,0,0,1,0,.3,2.1,2.1,0,0,1,0,.27,2.1,2.1,0,0,0,0,.27c0,1,0,2,0,3s0,2,.1,3c0,.28,0,.56.05.84a4.88,4.88,0,0,0,.13.84,6,6,0,0,0,.8-1.72,17.87,17.87,0,0,0,.52-2.21c.13-.77.23-1.54.3-2.3s.12-1.43.14-2v-.11a.41.41,0,0,0,0-.11c0-.11,0-.22,0-.32a.59.59,0,0,1,.09-.31v-.29a1.33,1.33,0,0,1,.06-.3.62.62,0,0,1,.17-.22.72.72,0,0,1,.33-.09,1.31,1.31,0,0,1,1,.33,1.49,1.49,0,0,1,.44.95,1.15,1.15,0,0,1,.13.24A.71.71,0,0,1,156.34,15.52Z" style="fill:#fff"/><path d="M161.74,25.82a3.08,3.08,0,0,1-.51,0,1.66,1.66,0,0,1-.53-.18,1.14,1.14,0,0,1-.42-.33.76.76,0,0,1-.19-.49,8.48,8.48,0,0,1,0-.87c0-.29,0-.58,0-.86v0l0-1.05c0-.38,0-.79,0-1.24s0-.91,0-1.37l0-1.37c0-.45,0-.86,0-1.23,0-.22,0-.44,0-.67s0-.44,0-.67,0-.42-.05-.67,0-.47,0-.68a1.51,1.51,0,0,1,.05-.54c0-.14.21-.22.49-.23a1.64,1.64,0,0,1,.76.14,1.07,1.07,0,0,1,.58.5h0a1.86,1.86,0,0,1,.14.54c0,.26.07.48.09.68.17-.28.35-.58.56-.89a8.43,8.43,0,0,1,.68-.87,3.91,3.91,0,0,1,.8-.68,1.89,1.89,0,0,1,.92-.3,1.4,1.4,0,0,1,1,.28,1.92,1.92,0,0,1,.54.79,3.94,3.94,0,0,1,.23,1c0,.37.05.7.06,1v.12c0,.13,0,.25,0,.37a1.15,1.15,0,0,1,0,.33.54.54,0,0,1-.54.36,2,2,0,0,1-.54,0,2.55,2.55,0,0,1-.53-.18,1.59,1.59,0,0,1-.43-.33.87.87,0,0,1-.21-.48c0-.09,0-.17,0-.25a2.26,2.26,0,0,1,0-.26,1,1,0,0,1,0-.19v-.23a4.94,4.94,0,0,0-.82,1.28,12.61,12.61,0,0,0-.6,1.6,16.79,16.79,0,0,0-.44,1.69c-.12.56-.22,1.07-.3,1.52V21c0,.32,0,.64,0,1s0,.63,0,1,0,.75,0,1.14,0,.76,0,1.13a.9.9,0,0,1-.16.47A.69.69,0,0,1,161.74,25.82Z" style="fill:#fff"/><path d="M182.8,24a.67.67,0,0,1-.06.3.58.58,0,0,1-.19.19l-.24.12a1.27,1.27,0,0,1-.26,0,2,2,0,0,1-.41,0,3.54,3.54,0,0,1-.44-.11,1.74,1.74,0,0,1-.41-.2.89.89,0,0,1-.29-.29,1.36,1.36,0,0,1-.16-.42l-.09-.52a6.12,6.12,0,0,1-.33.75,2.66,2.66,0,0,1-.48.66,2.3,2.3,0,0,1-.64.47,2.11,2.11,0,0,1-.81.21,2.17,2.17,0,0,1-1.31-.31,2.59,2.59,0,0,1-.81-.9,4.22,4.22,0,0,1-.42-1.24,10.31,10.31,0,0,1-.16-1.29c0-.35,0-.74,0-1.18s0-.88.05-1.35.07-.9.12-1.34.11-.82.18-1.16.19-.82.31-1.29a7.32,7.32,0,0,1,.51-1.33,4,4,0,0,1,.82-1.07,2.17,2.17,0,0,1,1.2-.53c-.07-.84-.16-1.61-.25-2.32s-.19-1.44-.29-2.19l-.25-1.72-.09-.62c0-.17-.06-.34-.08-.51s0-.34,0-.5a.59.59,0,0,1,.17-.52.83.83,0,0,1,.5-.16,2,2,0,0,1,1.06.15,1.12,1.12,0,0,1,.53.52,2.29,2.29,0,0,1,.21.79c0,.31.05.64.06,1a6.81,6.81,0,0,0,.12.78l.11.57L180.44,9c0,.25.07.5.1.74s.07.5.1.75l.5,3.34,1,6.24.07.58c.07.42.13.86.19,1.32a8.87,8.87,0,0,0,.28,1.34c0,.12.07.22.1.33A1.65,1.65,0,0,1,182.8,24ZM178.69,15c0-.11,0-.24,0-.38l0-.4,0-.42-.26.44a3.74,3.74,0,0,0-.24.51,7.92,7.92,0,0,0-.38,1.42c-.11.57-.19,1.17-.26,1.8s-.11,1.23-.13,1.82,0,1.08,0,1.48c0,.14,0,.31,0,.5s0,.37.09.57a3.08,3.08,0,0,0,.16.54,1.39,1.39,0,0,0,.28.43,3,3,0,0,0,.37-.94,10.13,10.13,0,0,0,.25-1.42c.06-.53.11-1.09.14-1.67s.05-1.16.06-1.71,0-1,0-1.5S178.7,15.3,178.69,15Z" style="fill:#fff"/><path d="M192.15,23.78a.52.52,0,0,1-.13.44.73.73,0,0,1-.43.14,1.29,1.29,0,0,1-1.07-.34,2.42,2.42,0,0,1-.53-1l-.12-.44c0-.14-.07-.29-.1-.44a1.92,1.92,0,0,0-.08-.27,1.88,1.88,0,0,1-.08-.3,8.48,8.48,0,0,1-.41,1,5.27,5.27,0,0,1-.58.94,3.47,3.47,0,0,1-.77.72,1.93,1.93,0,0,1-1,.32,1.53,1.53,0,0,1-.95-.23,2.06,2.06,0,0,1-.63-.65,3.23,3.23,0,0,1-.34-.9,6.82,6.82,0,0,1-.14-.95,14.29,14.29,0,0,1,.1-2.31,20.19,20.19,0,0,1,.45-2.52,22.92,22.92,0,0,1,.75-2.43,11.28,11.28,0,0,1,1-2.06h0l.09-.14c.1-.16.23-.34.37-.53a.66.66,0,0,1,1-.07,1.51,1.51,0,0,1,.34.52,2.87,2.87,0,0,1,.67.16,1.08,1.08,0,0,1,.4.27.92.92,0,0,1,.21.39,2.41,2.41,0,0,1,.07.49c0,.07,0,.15,0,.23a2,2,0,0,1,0,.25v.3c0,.12,0,.22,0,.31a1.94,1.94,0,0,0,.07.41q.08.24.15.51l.14.57q.1.45.18,1c.06.38.12.77.2,1.15s.12.77.18,1.14.12.71.18,1l.49,2.29L192,23c0,.13.06.26.09.37A1.14,1.14,0,0,1,192.15,23.78Zm-4-8.79a.58.58,0,0,0,0-.1.83.83,0,0,0,0-.15,12.57,12.57,0,0,0-.54,1.7,18.33,18.33,0,0,0-.36,1.85c-.09.62-.14,1.25-.17,1.87s0,1.21,0,1.76v.14a.53.53,0,0,0,0,.12v0a5.51,5.51,0,0,0,.56-1.56,19.76,19.76,0,0,0,.36-2c.09-.7.15-1.38.17-2S188.13,15.41,188.11,15Z" style="fill:#fff"/><path d="M200.89,24.59c0,.43,0,.88,0,1.35a14.47,14.47,0,0,1-.3,2.83,8.24,8.24,0,0,1-.41,1.3,5.74,5.74,0,0,1-1.09,1.6,7.46,7.46,0,0,1-1.5,1.2A7.87,7.87,0,0,1,193.94,34h-.33l-.39-.05a.71.71,0,0,1-.32-.17.43.43,0,0,1-.14-.34.44.44,0,0,1,0-.19.09.09,0,0,1,0-.05v0a2,2,0,0,1,.23-.51,1.27,1.27,0,0,1,.3-.31,1.31,1.31,0,0,1,.42-.16l.55-.1a4.84,4.84,0,0,0,1.86-.56h0a4.69,4.69,0,0,0,1.54-1.32,5.58,5.58,0,0,0,.8-1.69,8,8,0,0,0,.29-1.92c0-.66,0-1.34,0-2,0-.16,0-.27,0-.35s0-.13,0-.19,0-.12,0-.2a3.1,3.1,0,0,0,0-.34,1.84,1.84,0,0,1-1.12.48,1.74,1.74,0,0,1-1.18-.32,3.06,3.06,0,0,1-.85-1,5.39,5.39,0,0,1-.57-1.38,12.17,12.17,0,0,1-.35-1.59c-.09-.54-.15-1.07-.19-1.6s-.08-1-.1-1.38l0-.66c0-.55-.06-1.09-.08-1.62s0-1.07,0-1.6v-.23c0-.13,0-.25,0-.38a2.17,2.17,0,0,1,0-.36.85.85,0,0,1,.16-.37.61.61,0,0,1,.38-.12H195l.25,0a2.14,2.14,0,0,1,.48.24.77.77,0,0,1,.27.3,1,1,0,0,1,.13.4,4.15,4.15,0,0,1,0,.55l.11,2.09q0,.38.06.93c0,.37.06.77.1,1.21s.09.88.15,1.35.13.92.21,1.35.18.83.28,1.19a3.57,3.57,0,0,0,.36.89,8.12,8.12,0,0,0,.41-1.45,15.51,15.51,0,0,0,.24-1.79c.06-.63.09-1.28.11-1.95s0-1.32,0-2,0-1.23,0-1.8-.05-1.07-.07-1.49c0-.11,0-.22,0-.34a.88.88,0,0,1,.05-.33.56.56,0,0,1,.17-.25.53.53,0,0,1,.34-.11.72.72,0,0,1,.25,0l.23,0h.07s0,0,.07,0l.43.14a1,1,0,0,1,.36.18.79.79,0,0,1,.25.29,1.21,1.21,0,0,1,.11.48c0,.24,0,.51,0,.82s0,.62,0,1,0,.66,0,1,0,.6,0,.85l0,.55,0,.44c0,.15,0,.28,0,.41,0,.66.07,1.33.12,2s.09,1.32.15,2l.15,2Z" style="fill:#fff"/><path d="M208.74,11.65a.47.47,0,0,1-.12.32,1.23,1.23,0,0,1-.31.22,1.34,1.34,0,0,1-.38.14,2.43,2.43,0,0,1-.31.05,2.23,2.23,0,0,1-.37,0l-.34-.07-.33-.07a1.22,1.22,0,0,0-.33,0,1.5,1.5,0,0,0-.88.34,1.28,1.28,0,0,0-.29.36.88.88,0,0,0-.09.46,1.78,1.78,0,0,0,.2.73,3.55,3.55,0,0,0,.45.72,8,8,0,0,0,.63.73c.24.24.49.49.75.73l1,1a9.41,9.41,0,0,1,.88,1,6.08,6.08,0,0,1,.66,1.16,3.81,3.81,0,0,1,.31,1.3,2.84,2.84,0,0,1-.14,1.07,2.51,2.51,0,0,1-.51.83,2.41,2.41,0,0,1-.82.55,3.23,3.23,0,0,1-1.06.23,2.5,2.5,0,0,1-.48,0,7,7,0,0,1-.73-.14l-.85-.21a6.06,6.06,0,0,1-.79-.27,3.06,3.06,0,0,1-.6-.29q-.24-.15-.24-.3a.57.57,0,0,1,.15-.39,2.82,2.82,0,0,1,.39-.38,3.38,3.38,0,0,1,.47-.3,1.27,1.27,0,0,1,.43-.13,1.18,1.18,0,0,1,.5.09,4.6,4.6,0,0,1,.53.22c.2.09.41.18.62.25a1.71,1.71,0,0,0,.64.09c.16,0,.26-.07.27-.19a1.59,1.59,0,0,0,0-.39,3,3,0,0,0-.24-1,5.41,5.41,0,0,0-.53-.93,6.77,6.77,0,0,0-.74-.88l-.82-.84-.84-.83a7.22,7.22,0,0,1-.72-.87,5,5,0,0,1-.53-.92,3,3,0,0,1-.23-1,2.49,2.49,0,0,1,.23-1.22,3.14,3.14,0,0,1,.73-1,3.41,3.41,0,0,1,1-.66,3.72,3.72,0,0,1,1.2-.27,3.34,3.34,0,0,1,.63.05,4.89,4.89,0,0,1,.84.2,3.15,3.15,0,0,1,.74.34A.59.59,0,0,1,208.74,11.65Z" style="fill:#fff"/></g><path d="M176.82,41.57a1,1,0,0,0-1.16-.81,1,1,0,0,0-.81,1.16L176.65,52C98.77,27.79,36.45,56.66,35.83,57a1.14,1.14,0,0,0-.25.18l2.23-9.72a1,1,0,0,0-.75-1.2,1,1,0,0,0-1.2.75l-2.7,11.78L43.82,64.4a1,1,0,0,0,.94-1.77l-7.65-4.05c5.51-2.46,65.17-27.66,139.06-4.64h0l-10,4.69a1,1,0,0,0,.42,1.9,1.11,1.11,0,0,0,.43-.09l12.14-5.69Z" style="fill:#fff"/></svg>