<?xml version="1.0" encoding="UTF-8"?><svg id="uuid-0578e8e7-92ae-4ccf-8df2-2775b743edb2" xmlns="http://www.w3.org/2000/svg" viewBox="0 0 720.19 170.47"><defs><style>.uuid-c0f28c5b-02d4-4b47-9627-79c01ef11b4a{fill:#fff;}.uuid-633a00a3-6dc4-4303-b855-38c59dfb9aaf{isolation:isolate;}</style></defs><g class="uuid-633a00a3-6dc4-4303-b855-38c59dfb9aaf"><path class="uuid-c0f28c5b-02d4-4b47-9627-79c01ef11b4a" d="M139.56,25.2c4.68,.94,9.07,5.18,9.07,12.46,0,9.72-7.78,13.97-20.74,13.97-7.06,0-19.95-.58-20.31-.86-.36-.29-.94-48.53-.72-49.11,.22-.58,13.83-.86,15.27-.86,11.45,0,22.97,2.45,22.97,13.68,0,5.83-2.23,8.28-5.54,10.3v.43Zm-17.43-5.18c.5,.07,.94,.07,1.44,.07,3.89,0,5.98-1.37,5.98-3.96s-3.38-3.46-5.69-3.46c-.58,0-1.22,.07-1.66,.14-.07,1.08-.07,7.2-.07,7.2Zm.72,19.08c1.08,.14,2.09,.22,2.95,.22,4.46,0,6.12-1.73,6.12-4.18,0-2.88-2.52-4.1-6.48-4.1-.79,0-1.66,.07-2.52,.14-.07,1.08-.07,7.92-.07,7.92Z"/></g><g class="uuid-633a00a3-6dc4-4303-b855-38c59dfb9aaf"><path class="uuid-c0f28c5b-02d4-4b47-9627-79c01ef11b4a" d="M180.96,42.41c-.79,.07-10.87-.14-12.38-.22-.36,1.58-2.38,9.29-2.81,9.58-.43,.29-15.55-.79-16.71-1.37,1.3-4.9,14.62-49.04,15.27-49.47,.65-.43,18.58-.86,20.38-.5,.22,.07,14.4,40.54,16.06,49.97-1.94,.86-16.34,1.58-16.56,1.51-.22-.07-2.74-7.56-3.24-9.5Zm-6.12-27.29c-1.01,3.6-3.38,12.96-4.1,15.12,1.3-.07,6.34-.07,8.71,0-.86-2.59-3.17-11.74-4.18-15.19-.14,0-.29,.07-.43,.07Z"/></g><g class="uuid-633a00a3-6dc4-4303-b855-38c59dfb9aaf"><path class="uuid-c0f28c5b-02d4-4b47-9627-79c01ef11b4a" d="M228.26,37.88c5.62,0,8.93-2.88,10.44-3.96,1.94,1.3,5.9,8.64,7.34,11.59-3.38,4.03-10.87,7.34-19.51,7.34-17.64,0-25.71-12.17-25.71-27.22S211.63,0,228.69,0c8.78,0,15.05,2.52,17.21,4.82-.07,1.73-3.67,11.45-5.9,13.32-2.59-1.44-6.98-3.31-11.02-3.31-6.26,0-11.38,4.61-11.38,11.45,0,9.43,6.41,11.59,10.66,11.59Z"/><path class="uuid-c0f28c5b-02d4-4b47-9627-79c01ef11b4a" d="M266.42,.86c.5,.22-.36,19.3-.36,19.3,0,0,13.83-19.51,14.54-19.51s13.39,3.53,13.47,4.54c.07,1.01-12.24,18.65-12.24,18.65,3.38,4.9,13.18,23.76,13.03,24.34s-12.02,4.82-14.91,4.32c-.58-.07-8.57-15.77-9.58-17.79-.65,.79-3.96,4.97-3.96,4.97l.14,11.74c-1.51,.36-14.83,.65-15.41,.22-.58-.43-1.8-49.4-.72-50.48s15.48-.5,15.99-.29Z"/></g><g class="uuid-633a00a3-6dc4-4303-b855-38c59dfb9aaf"><path class="uuid-c0f28c5b-02d4-4b47-9627-79c01ef11b4a" d="M298.82,51.41c-.36-4.32-.58-43.64,.14-50.19,4.82-.43,13.25-.72,18.58-.72,14.54,0,22.25,7.06,22.25,18.29,0,13.61-6.98,19.15-22.11,19.15h-1.8c-.07,6.62,0,12.38-.43,13.18-.29,.58-16.56,.86-16.63,.29Zm19.87-27.07c3.31,0,5.83-1.3,5.83-4.46,0-3.53-3.02-4.75-6.41-4.75-.58,0-1.94,0-2.59,.14,.07,2.74,0,6.19-.07,8.93,.79,.07,2.23,.14,3.24,.14Z"/></g><g class="uuid-633a00a3-6dc4-4303-b855-38c59dfb9aaf"><path class="uuid-c0f28c5b-02d4-4b47-9627-79c01ef11b4a" d="M369.45,42.41c-.79,.07-10.87-.14-12.39-.22-.36,1.58-2.38,9.29-2.81,9.58s-15.55-.79-16.71-1.37c1.3-4.9,14.62-49.04,15.27-49.47,.65-.43,18.58-.86,20.38-.5,.22,.07,14.4,40.54,16.06,49.97-1.94,.86-16.35,1.58-16.56,1.51-.22-.07-2.74-7.56-3.24-9.5Zm-6.12-27.29c-1.01,3.6-3.38,12.96-4.1,15.12,1.3-.07,6.34-.07,8.71,0-.86-2.59-3.17-11.74-4.18-15.19-.14,0-.29,.07-.43,.07Z"/></g><g class="uuid-633a00a3-6dc4-4303-b855-38c59dfb9aaf"><path class="uuid-c0f28c5b-02d4-4b47-9627-79c01ef11b4a" d="M416.76,37.88c5.62,0,8.93-2.88,10.44-3.96,1.94,1.3,5.9,8.64,7.34,11.59-3.38,4.03-10.87,7.34-19.51,7.34-17.64,0-25.71-12.17-25.71-27.22S400.13,0,417.19,0c8.78,0,15.05,2.52,17.21,4.82-.07,1.73-3.67,11.45-5.9,13.32-2.59-1.44-6.98-3.31-11.02-3.31-6.26,0-11.38,4.61-11.38,11.45,0,9.43,6.41,11.59,10.66,11.59Z"/><path class="uuid-c0f28c5b-02d4-4b47-9627-79c01ef11b4a" d="M454.92,.86c.5,.22-.36,19.3-.36,19.3,0,0,13.83-19.51,14.54-19.51s13.39,3.53,13.47,4.54c.07,1.01-12.24,18.65-12.24,18.65,3.38,4.9,13.18,23.76,13.03,24.34-.14,.58-12.03,4.82-14.91,4.32-.58-.07-8.57-15.77-9.58-17.79-.65,.79-3.96,4.97-3.96,4.97l.14,11.74c-1.51,.36-14.83,.65-15.41,.22-.58-.43-1.8-49.4-.72-50.48s15.48-.5,15.99-.29Z"/><path class="uuid-c0f28c5b-02d4-4b47-9627-79c01ef11b4a" d="M503.38,1.08c.58,.43,.5,47.31-.14,50.04-.36,1.51-15.84,.86-15.91,.29-.36-4.32-.58-43.64,.14-50.19,3.02-.65,15.34-.58,15.91-.14Z"/><path class="uuid-c0f28c5b-02d4-4b47-9627-79c01ef11b4a" d="M541.83,51.48c-1.51-1.87-8.35-13.9-15.05-24.27,0,9.36,.5,19.23,.29,23.47-3.02,.65-15.48,.72-15.55,0-.43-2.95-.65-45.29,0-49.18,.22-1.51,14.47-1.51,14.76-1.01,1.01,1.58,9.79,15.48,15.41,26.43,.07-10.58-.36-22.54,0-25.63,3.02-.65,14.91-.43,15.48,0s.07,46.3-.58,49.04c-.36,1.51-13.75,1.73-14.76,1.15Z"/><path class="uuid-c0f28c5b-02d4-4b47-9627-79c01ef11b4a" d="M590.06,38.81c1.66,0,3.38-.43,4.61-.79-.07-.94-.14-4.1-.14-4.1,0,0-5.4,.14-6.48,.22-.43-.58-.65-10.3-.14-11.09,2.16-.5,20.52-1.08,21.1-.58,.58,.5,.29,24.34,.07,24.48-3.38,2.81-12.1,5.9-20.74,5.9-17.64,0-25.71-12.17-25.71-27.22s10.08-25.63,27.15-25.63c8.78,0,15.05,2.95,17.21,5.26-.07,1.73-5.04,10.95-6.62,12.6-2.59-1.44-6.26-2.88-10.3-2.88-6.26,0-10.87,4.46-10.87,11.3,0,9.43,5.18,12.53,10.87,12.53Z"/></g><g class="uuid-633a00a3-6dc4-4303-b855-38c59dfb9aaf"><path class="uuid-c0f28c5b-02d4-4b47-9627-79c01ef11b4a" d="M.04,159.69c-.7-2.8,7-25.48,8.68-24.92,2.94,.98,14.42,8.68,25.9,8.68,6.3,0,9.38-1.54,9.38-4.62,0-2.8-1.68-5.18-14.42-7.56C11.52,127.91,.6,119.51,.6,99.21c0-16.66,13.58-30.94,38.78-30.94,15.26,0,28.98,3.64,34.44,7.84,2.1,1.54-7.7,23.94-9.24,24.08-.98,.28-12.18-5.46-24.64-5.46-6.16,0-8.68,1.68-8.68,4.06,0,3.5,2.24,4.2,14.14,6.72,16.38,3.5,31.64,10.36,31.64,31.5,0,13.86-10.92,31.5-41.16,31.5-15.68,0-30.24-5.32-35.84-8.82Z"/><path class="uuid-c0f28c5b-02d4-4b47-9627-79c01ef11b4a" d="M86.42,168.23c-.7-8.4,0-84.84,1.4-97.58,9.38-.84,24.64-1.4,35-1.4,28.28,0,44.52,10.92,44.52,34.58,0,14-5.74,22.4-15.96,27.16,10.08,12.74,19.74,28.56,19.32,29.12-1.82,2.24-21.7,10.64-26.88,10.36-.42,0-11.76-19.18-22.82-34.3h-4.2c-.14,12.88-.28,27.86-.84,31.5-1.54,.56-29.4,1.68-29.54,.56Zm38.92-55.3c6.86,0,11.2-2.38,11.2-8.26,0-5.18-2.38-8.68-12.32-8.68-1.12,0-3.92,0-5.32,.28,.14,5.04,0,11.34-.14,16.38,1.68,.14,4.62,.28,6.58,.28Z"/><path class="uuid-c0f28c5b-02d4-4b47-9627-79c01ef11b4a" d="M211.16,70.37c1.12,.84,.98,91.98-.28,97.3-.7,2.94-30.8,1.68-30.94,.56-.7-8.4-1.12-84.84,.28-97.58,5.88-1.26,29.82-1.12,30.94-.28Z"/><path class="uuid-c0f28c5b-02d4-4b47-9627-79c01ef11b4a" d="M318.12,167.53c-.28,.98-60.48,.56-66.78-.28-.84-9.38-.84-95.62,.28-97.16,.7-.98,30.24-1.82,30.38-.7,.42,5.74,.28,60.9-.28,71.12,12.04-.42,30.66-.56,35.84,0,.98,6.02,1.54,23.8,.56,27.02Z"/><path class="uuid-c0f28c5b-02d4-4b47-9627-79c01ef11b4a" d="M382.38,150.73c-1.54,.14-21.14-.28-24.08-.42-.7,3.08-4.62,18.06-5.46,18.62-.84,.56-30.24-1.54-32.48-2.66,2.52-9.52,28.42-95.34,29.68-96.18,1.26-.84,36.12-1.68,39.62-.98,.42,.14,28,78.82,31.22,97.16-3.78,1.68-31.78,3.08-32.2,2.94-.42-.14-5.32-14.7-6.3-18.48Zm-11.9-53.06c-1.96,7-6.58,25.2-7.98,29.4,2.52-.14,12.32-.14,16.94,0-1.68-5.04-6.16-22.82-8.12-29.54-.28,0-.56,.14-.84,.14Z"/><path class="uuid-c0f28c5b-02d4-4b47-9627-79c01ef11b4a" d="M487.94,168.37c-2.94-3.64-16.24-27.02-29.26-47.18,0,18.2,.98,37.38,.56,45.64-5.88,1.26-30.1,1.4-30.24,0-.84-5.74-1.26-88.06,0-95.62,.42-2.94,28.14-2.94,28.7-1.96,1.96,3.08,19.04,30.1,29.96,51.38,.14-20.58-.7-43.82,0-49.84,5.88-1.26,28.98-.84,30.1,0,1.12,.84,.14,90.02-1.12,95.34-.7,2.94-26.74,3.36-28.7,2.24Z"/><path class="uuid-c0f28c5b-02d4-4b47-9627-79c01ef11b4a" d="M564.24,69.95c.98,.42-.7,37.52-.7,37.52,0,0,26.88-37.94,28.28-37.94s26.04,6.86,26.18,8.82c.14,1.96-23.8,36.26-23.8,36.26,6.58,9.52,25.62,46.2,25.34,47.32-.28,1.12-23.38,9.38-28.98,8.4-1.12-.14-16.66-30.66-18.62-34.58-1.26,1.54-7.7,9.66-7.7,9.66l.28,22.82c-2.94,.7-28.84,1.26-29.96,.42s-3.5-96.04-1.4-98.14,30.1-.98,31.08-.56Z"/></g><g class="uuid-633a00a3-6dc4-4303-b855-38c59dfb9aaf"><path class="uuid-c0f28c5b-02d4-4b47-9627-79c01ef11b4a" d="M681.69,150.73c-1.54,.14-21.14-.28-24.08-.42-.7,3.08-4.62,18.06-5.46,18.62-.84,.56-30.24-1.54-32.48-2.66,2.52-9.52,28.42-95.34,29.68-96.18s36.12-1.68,39.62-.98c.42,.14,28,78.82,31.22,97.16-3.78,1.68-31.78,3.08-32.2,2.94-.42-.14-5.32-14.7-6.3-18.48Zm-11.9-53.06c-1.96,7-6.58,25.2-7.98,29.4,2.52-.14,12.32-.14,16.94,0-1.68-5.04-6.16-22.82-8.12-29.54-.28,0-.56,.14-.84,.14Z"/></g></svg>