<?xml version="1.0" encoding="UTF-8"?><svg id="Layer_2" xmlns="http://www.w3.org/2000/svg" viewBox="0 0 633.22 255.46"><defs><style>.cls-1{fill:#fff;}</style></defs><g id="uuid-ccdafcb2-cff9-4562-ab46-f1879193720b"><path class="cls-1" d="M98.08,25.2c4.68,.94,9.07,5.18,9.07,12.46,0,9.72-7.78,13.97-20.74,13.97-7.06,0-19.95-.58-20.31-.86-.36-.29-.94-48.53-.72-49.11,.22-.58,13.83-.86,15.27-.86,11.45,0,22.97,2.45,22.97,13.68,0,5.83-2.23,8.28-5.54,10.3v.43h0Zm-17.43-5.19c.5,.07,.94,.07,1.44,.07,3.89,0,5.98-1.37,5.98-3.96s-3.38-3.46-5.69-3.46c-.58,0-1.22,.07-1.66,.14-.07,1.08-.07,7.2-.07,7.2h0Zm.72,19.09c1.08,.14,2.09,.22,2.95,.22,4.46,0,6.12-1.73,6.12-4.18,0-2.88-2.52-4.1-6.48-4.1-.79,0-1.66,.07-2.52,.14-.07,1.08-.07,7.92-.07,7.92Z"/><path class="cls-1" d="M139.48,42.41c-.79,.07-10.87-.14-12.39-.22-.36,1.58-2.38,9.29-2.81,9.58s-15.55-.79-16.71-1.37c1.3-4.9,14.62-49.04,15.27-49.47,.65-.43,18.58-.86,20.38-.5,.22,.07,14.4,40.54,16.06,49.97-1.94,.86-16.35,1.58-16.56,1.51-.22-.07-2.74-7.56-3.24-9.5Zm-6.12-27.29c-1.01,3.6-3.38,12.96-4.1,15.12,1.3-.07,6.34-.07,8.71,0-.86-2.59-3.17-11.74-4.18-15.19-.14,0-.29,.07-.43,.07h0Z"/><path class="cls-1" d="M186.79,37.88c5.62,0,8.93-2.88,10.44-3.96,1.94,1.3,5.9,8.64,7.34,11.59-3.38,4.03-10.87,7.34-19.51,7.34-17.64,0-25.71-12.17-25.71-27.22S170.15,0,187.22,0c8.78,0,15.05,2.52,17.21,4.82-.07,1.73-3.67,11.45-5.9,13.32-2.59-1.44-6.98-3.31-11.02-3.31-6.26,0-11.38,4.61-11.38,11.45,0,9.43,6.41,11.59,10.66,11.59h0Z"/><path class="cls-1" d="M224.95,.86c.5,.22-.36,19.3-.36,19.3,0,0,13.83-19.51,14.54-19.51s13.39,3.53,13.47,4.54c.07,1.01-12.24,18.65-12.24,18.65,3.38,4.9,13.18,23.76,13.03,24.34s-12.02,4.82-14.91,4.32c-.58-.07-8.57-15.77-9.58-17.79-.65,.79-3.96,4.97-3.96,4.97l.14,11.74c-1.51,.36-14.83,.65-15.41,.22s-1.8-49.4-.72-50.48,15.48-.5,15.99-.29h.01Z"/><path class="cls-1" d="M257.34,51.41c-.36-4.32-.58-43.64,.14-50.19,4.82-.43,13.25-.72,18.58-.72,14.54,0,22.25,7.06,22.25,18.29,0,13.61-6.98,19.15-22.11,19.15h-1.8c-.07,6.62,0,12.38-.43,13.18-.29,.58-16.56,.86-16.63,.29h0Zm19.87-27.07c3.31,0,5.83-1.3,5.83-4.46,0-3.53-3.02-4.75-6.41-4.75-.58,0-1.94,0-2.59,.14,.07,2.74,0,6.19-.07,8.93,.79,.07,2.23,.14,3.24,.14h0Z"/><path class="cls-1" d="M327.97,42.41c-.79,.07-10.87-.14-12.38-.22-.36,1.58-2.38,9.29-2.81,9.58-.43,.29-15.55-.79-16.71-1.37,1.3-4.9,14.62-49.04,15.27-49.47,.65-.43,18.58-.86,20.38-.5,.22,.07,14.4,40.54,16.06,49.97-1.94,.86-16.34,1.58-16.56,1.51-.22-.07-2.74-7.56-3.24-9.5h-.01Zm-6.12-27.29c-1.01,3.6-3.38,12.96-4.1,15.12,1.3-.07,6.34-.07,8.71,0-.86-2.59-3.17-11.74-4.18-15.19-.14,0-.29,.07-.43,.07Z"/><path class="cls-1" d="M375.29,37.88c5.62,0,8.93-2.88,10.44-3.96,1.94,1.3,5.9,8.64,7.34,11.59-3.38,4.03-10.87,7.34-19.51,7.34-17.64,0-25.71-12.17-25.71-27.22S358.65,0,375.72,0c8.78,0,15.05,2.52,17.21,4.82-.07,1.73-3.67,11.45-5.9,13.32-2.59-1.44-6.98-3.31-11.02-3.31-6.26,0-11.38,4.61-11.38,11.45,0,9.43,6.41,11.59,10.66,11.59h0Z"/><path class="cls-1" d="M413.45,.86c.5,.22-.36,19.3-.36,19.3,0,0,13.83-19.51,14.54-19.51s13.39,3.53,13.47,4.54c.07,1.01-12.24,18.65-12.24,18.65,3.38,4.9,13.18,23.76,13.03,24.34-.14,.58-12.03,4.82-14.91,4.32-.58-.07-8.57-15.77-9.58-17.79-.65,.79-3.96,4.97-3.96,4.97l.14,11.74c-1.51,.36-14.83,.65-15.41,.22-.58-.43-1.8-49.4-.72-50.48s15.48-.5,15.99-.29h0Z"/><path class="cls-1" d="M461.9,1.08c.58,.43,.5,47.31-.14,50.04-.36,1.51-15.84,.86-15.91,.29-.36-4.32-.58-43.64,.14-50.19,3.02-.65,15.34-.58,15.91-.14Z"/><path class="cls-1" d="M500.35,51.48c-1.51-1.87-8.35-13.9-15.05-24.27,0,9.36,.5,19.23,.29,23.47-3.02,.65-15.48,.72-15.55,0-.43-2.95-.65-45.29,0-49.18,.22-1.51,14.47-1.51,14.76-1.01,1.01,1.58,9.79,15.48,15.41,26.43,.07-10.58-.36-22.54,0-25.63,3.02-.65,14.91-.43,15.48,0,.57,.43,.07,46.3-.58,49.04-.36,1.51-13.75,1.73-14.76,1.15h0Z"/><path class="cls-1" d="M548.59,38.81c1.66,0,3.38-.43,4.61-.79-.07-.94-.14-4.1-.14-4.1,0,0-5.4,.14-6.48,.22-.43-.58-.65-10.3-.14-11.09,2.16-.5,20.52-1.08,21.1-.58,.58,.5,.29,24.34,.07,24.48-3.38,2.81-12.1,5.9-20.74,5.9-17.64,0-25.71-12.17-25.71-27.22S531.24,0,548.31,0c8.78,0,15.05,2.95,17.21,5.26-.07,1.73-5.04,10.95-6.62,12.6-2.59-1.44-6.26-2.88-10.3-2.88-6.26,0-10.87,4.46-10.87,11.3,0,9.43,5.18,12.53,10.87,12.53h-.01Z"/><path class="cls-1" d="M47.6,130.29c2.1-11.2,11.62-50.54,14.84-61.32,.84-.56,31.78,.56,32.48,2.66-2.24,11.76-27.44,95.34-28.7,96.18s-32.76,1.68-36.26,.98c-.42-.14-26.74-78.82-29.96-97.16,1.26-2.38,31.36-3.92,32.2-2.94,1.4,2.38,12.46,50.26,14.56,61.74,.28,0,.56-.14,.84-.14Z"/><path class="cls-1" d="M134.4,70.37c1.12,.84,.98,91.98-.28,97.3-.7,2.94-30.8,1.68-30.94,.56-.7-8.4-1.12-84.84,.28-97.58,5.88-1.26,29.82-1.12,30.94-.28Z"/><path class="cls-1" d="M219.1,168.23c1.54,.84-54.6,.84-69.58-.28-.7-9.94,.28-77.7,1.26-97.86,15.82-.98,69.16-1.12,69.58-.28,.98,3.22,1.12,20.16,.14,26.18-5.18,.56-28.7,.42-40.74,0l.28,9.38c14.14-.14,28.98,.28,29.82,1.12,1.54,1.54,.28,24.08,.28,24.78,0,.84-15.4,.84-30.24,.42v10.64c12.6-.42,34.44-.42,39.34,0,.98,6.02,.84,22.68-.14,25.9h0Z"/><path class="cls-1" d="M226.38,70.93c.7-1.12,71.96-2.8,76.58-1.54,2.38,.42,1.96,26.18,.98,26.32-2.52,.42-11.9,.84-23.24,1.26,.14,28.42,.42,69.02-.28,70-.7,.98-30.24,1.82-30.38,.7-.56-5.74-.84-43.96-.56-70.98-10.36,.14-18.9,0-22.4-.42-1.12-5.6-1.4-24.36-.7-25.34h0Z"/><path class="cls-1" d="M372.81,168.37c-2.94-3.64-16.24-27.02-29.26-47.18,0,18.2,.98,37.38,.56,45.64-5.88,1.26-30.1,1.4-30.24,0-.84-5.74-1.26-88.06,0-95.62,.42-2.94,28.14-2.94,28.7-1.96,1.96,3.08,19.04,30.1,29.96,51.38,.14-20.58-.7-43.82,0-49.84,5.88-1.26,28.98-.84,30.1,0s.14,90.02-1.12,95.34c-.7,2.94-26.74,3.36-28.7,2.24Z"/><path class="cls-1" d="M472.77,150.73c-1.54,.14-21.14-.28-24.08-.42-.7,3.08-4.62,18.06-5.46,18.62s-30.24-1.54-32.48-2.66c2.52-9.52,28.42-95.34,29.68-96.18s36.12-1.68,39.62-.98c.42,.14,28,78.82,31.22,97.16-3.78,1.68-31.78,3.08-32.2,2.94s-5.32-14.7-6.3-18.48Zm-11.9-53.06c-1.96,7-6.58,25.2-7.98,29.4,2.52-.14,12.32-.14,16.94,0-1.68-5.04-6.16-22.82-8.12-29.54-.28,0-.56,.14-.84,.14Z"/><path class="cls-1" d="M574.41,126.65c4.9-20.86,12.6-53.9,15.54-56.56,1.68-1.54,27.02-1.54,29.82-.84,1.26,.7,13.86,91.7,13.44,96.04-1.96,2.8-28.7,5.18-28.98,4.06-.7-3.78-2.66-31.78-4.76-52.08h-.56c-4.48,17.92-9.94,42.84-13.16,50.82-2.66,.7-23.38,.7-24.5-.42-1.12-1.54-8.82-35.14-12.46-50.96-.14,0-.42-.14-.56-.14-2.24,17.36-4.34,44.38-5.88,52.08-5.88,.42-28.98-2.38-28.98-3.78-.14-5.74,13.44-87.22,15.54-94.64,.84-2.8,25.2-1.96,28.7-1.26,2.8,5.04,11.2,36.82,15.96,57.68h.84Z"/><path class="cls-1" d="M259.46,203.45c.11,.95-.48,1.87-1.78,2.75-.36,.24-.76,.31-1.21,.22-.69-.11-1.06-.17-1.11-.16-.29,.03-.56,.21-.81,.53-2.27,2.88-3.19,6.17-2.75,9.89,.16,1.38,.53,2.65,1.1,3.79,.25,.5,2.5,3.98,6.74,10.44,2.83,4.31,4.43,8.06,4.81,11.25,.31,2.62-.04,5.22-1.04,7.81-.33,.86-1.28,2.04-2.85,3.53-1.26,1.17-2.44,1.81-3.54,1.94-.43,.05-.84,.03-1.24-.07-1.5-.45-2.31-1.15-2.42-2.11-.07-.57,.21-1.31,.83-2.2,.16-.26,.6-.46,1.31-.59,.71-.13,1.15-.48,1.33-1.03,.75-2.21,1-4.42,.74-6.61-.37-3.1-2.43-7.41-6.2-12.93-3.77-5.52-5.86-10.05-6.28-13.58-.34-2.91-.08-5.57,.8-8,.98-2.77,2.59-4.87,4.84-6.3,1.03-.65,2.08-1.04,3.12-1.17,2-.24,3.57,.13,4.7,1.11,.54,.47,.84,.96,.9,1.49Z"/><path class="cls-1" d="M291.56,227.87c-2.07,6.67-5.6,10.91-10.61,12.71-.6,.22-1.21,.36-1.83,.43-2.72,.32-5.63-.83-8.75-3.46-2.09-1.78-3.33-4.27-3.71-7.46-.42-3.53,.18-7.44,1.8-11.74,.7-1.82,1.62-3.43,2.77-4.82,1.3-1.65,2.62-2.56,3.96-2.71,.76-.09,1.51,.11,2.25,.6,.74,.49,2.61,1.04,5.63,1.66,2.38,.49,4.15,1.59,5.32,3.29,2.04,3,3.2,5.64,3.47,7.93,.15,1.29,.05,2.48-.3,3.59Zm-6.24-3.76c-.75-3.44-1.92-5.41-3.52-5.89-.25-.07-.47-.09-.66-.07-.57,.07-1.23,.63-1.98,1.68-.83,1.21-1.49,1.94-1.99,2.19-.32,.18-.81,.1-1.48-.26-.67-.36-1.1-.52-1.29-.5-.14,.02-.26,.08-.34,.19-1.5,1.63-2.07,3.94-1.72,6.94,.24,2.05,.92,3.73,2.05,5.05,1.56,1.8,2.8,2.64,3.71,2.54,2.1-.25,3.97-1.8,5.61-4.65,1.57-2.7,2.1-5.11,1.61-7.22Z"/><path class="cls-1" d="M317.67,200.93c.06,3.38-.37,7.95-1.28,13.71-1.26,7.74-1.97,12.41-2.11,14.02-.48,4.94-1.96,9.56-4.45,13.87-1.56,2.75-3.56,4.24-6,4.48-2.15,.2-3.91-.97-5.27-3.51-2.34-4.27-3.87-9.43-4.58-15.48-.41-3.48-.61-8-.58-13.56,0,.48-.19-.99-.59-4.42-.35-2.96,.62-4.57,2.91-4.84,.48-.06,1,.02,1.58,.21,.58,.2,1.15,.41,1.71,.63,.33,2.43,.68,6.01,1.05,10.75,.36,5.08,.67,8.74,.93,10.98,.28,2.38,.61,4.54,.98,6.48,.21,.99,.87,2.85,1.96,5.57,1.74-2.48,2.96-5.64,3.66-9.5,.23-1.28,.6-4.76,1.09-10.42,.41-4.3,1.05-7.71,1.91-10.23,.25-.71,.39-2,.41-3.89,.02-1.89,.15-3.21,.4-3.96,.39-1.21,1.23-1.89,2.51-2.04,1.67-.2,2.92,.19,3.76,1.15Z"/><path class="cls-1" d="M355.12,190.86c-.23,1.77-.92,2.86-2.08,3.29-3.01,1.13-8.28,2.77-15.81,4.91,.45,11.98,1.14,21.93,2.07,29.84,.35,3,.75,5.95,1.19,8.85,.15,.9,.19,1.6,.1,2.09-.15,.79-.58,1.2-1.3,1.24-1.39,.12-2.6-.33-3.64-1.35-1.04-1.01-1.69-2.21-1.95-3.58-.3-1.75-.57-3.61-.8-5.56-.37-3.15-.74-8.15-1.12-15.02-.34-6.58-.74-11.58-1.19-15.01-1.3,.06-3.07,.39-5.32,.99-2.58,.69-4.37,1.09-5.37,1.21-2.34,.28-4.32-.12-5.94-1.2-.72-1.18-1.08-1.8-1.09-1.84-.04-.34,.08-.72,.37-1.14,1.46-.71,4.53-1.56,9.2-2.55,4.1-.92,7.1-2.06,9.02-3.4,1.74,.38,3.68,.44,5.82,.18s4.16-.76,6.06-1.51c.57-.11,1.98-.62,4.24-1.52,1.67-.63,3.08-.94,4.24-.94,.86-.1,1.26,.21,1.2,.95,1.29-.15,1.98,.2,2.08,1.06Z"/><path class="cls-1" d="M370.61,193.67c.41,4.25,.51,11.06,.31,20.41-.16,8.86,.03,15.63,.58,20.3,.17,1.48,.39,2.88,.64,4.2,.04,.33-.07,.67-.31,1.02-.25,.34-.57,.54-.95,.58-1.34,.16-2.23,.14-2.69-.04-1.94-.84-3.08-2.71-3.42-5.61-.07-.57-.14-1.47-.21-2.69-.07-1.22-.14-2.12-.21-2.69-.11-.95-.17-2.42-.16-4.4,0-1.98-.05-3.5-.17-4.55-.66,.13-1.59,.14-2.79,.04-1.2-.1-2.06-.12-2.58-.06-.62,.07-1.2,.24-1.75,.5-.7,3.9-.71,9.53-.04,16.9-1.54,.86-3.12,.97-4.74,.34-1.17-.44-1.85-1.52-2.05-3.24-.04-.38-.07-.9-.07-1.55,0-.65-.02-1.05-.03-1.19-.16-2.59-.21-7.76-.16-15.5,.06-6.48-.16-11.6-.65-15.36-.06-.52,.27-.9,.99-1.13,.72-.23,1.12-.42,1.2-.58,.33,.3,1.05,.5,2.17,.61,.93,.08,1.53,.45,1.8,1.09,.52,1.15,.87,2.46,1.04,3.94,.12,1.05,.16,2.72,.12,5.03-.04,2.3,0,4.05,.15,5.24,.62,.36,1.37,.54,2.24,.53,.58,.03,1.4-.04,2.44-.21,1.37-.26,2.2-.4,2.49-.44,.6-5.15,.88-11.75,.85-19.82,0-1.69,.49-2.6,1.49-2.71,2.5-.54,3.99-.18,4.48,1.07Z"/></g></svg>