<?xml version="1.0" encoding="UTF-8"?><svg id="uuid-557f009f-cc78-46c0-85f0-e265bbb3278a" xmlns="http://www.w3.org/2000/svg" viewBox="0 0 502.52 191.84"><defs><style>.uuid-0125ce4f-ca40-4002-874b-3eabe4054be8{fill:#fff;}.uuid-5f3621b7-a8e5-4fa1-8446-0ed8a411657b{isolation:isolate;}</style></defs><g class="uuid-5f3621b7-a8e5-4fa1-8446-0ed8a411657b"><path class="uuid-0125ce4f-ca40-4002-874b-3eabe4054be8" d="M32.74,25.2c4.68,.94,9.07,5.18,9.07,12.46,0,9.72-7.78,13.97-20.74,13.97-7.06,0-19.95-.58-20.31-.86C.41,50.48-.17,2.23,.05,1.66c.22-.58,13.83-.86,15.27-.86,11.45,0,22.97,2.45,22.97,13.68,0,5.83-2.23,8.28-5.54,10.3v.43Zm-17.43-5.18c.5,.07,.94,.07,1.44,.07,3.89,0,5.98-1.37,5.98-3.96s-3.38-3.46-5.69-3.46c-.58,0-1.22,.07-1.66,.14-.07,1.08-.07,7.2-.07,7.2Zm.72,19.08c1.08,.14,2.09,.22,2.95,.22,4.46,0,6.12-1.73,6.12-4.18,0-2.88-2.52-4.1-6.48-4.1-.79,0-1.66,.07-2.52,.14-.07,1.08-.07,7.92-.07,7.92Z"/></g><g class="uuid-5f3621b7-a8e5-4fa1-8446-0ed8a411657b"><path class="uuid-0125ce4f-ca40-4002-874b-3eabe4054be8" d="M74.14,42.41c-.79,.07-10.87-.14-12.39-.22-.36,1.58-2.38,9.29-2.81,9.58s-15.55-.79-16.71-1.37c1.3-4.9,14.62-49.04,15.27-49.47,.65-.43,18.58-.86,20.38-.5,.22,.07,14.4,40.54,16.06,49.97-1.94,.86-16.35,1.58-16.56,1.51-.22-.07-2.74-7.56-3.24-9.5Zm-6.12-27.29c-1.01,3.6-3.38,12.96-4.1,15.12,1.3-.07,6.34-.07,8.71,0-.86-2.59-3.17-11.74-4.18-15.19-.14,0-.29,.07-.43,.07Z"/></g><g class="uuid-5f3621b7-a8e5-4fa1-8446-0ed8a411657b"><path class="uuid-0125ce4f-ca40-4002-874b-3eabe4054be8" d="M121.44,37.88c5.62,0,8.93-2.88,10.44-3.96,1.94,1.3,5.9,8.64,7.34,11.59-3.38,4.03-10.87,7.34-19.51,7.34-17.64,0-25.71-12.17-25.71-27.22S104.81,0,121.87,0c8.78,0,15.05,2.52,17.21,4.82-.07,1.73-3.67,11.45-5.9,13.32-2.59-1.44-6.98-3.31-11.02-3.31-6.26,0-11.38,4.61-11.38,11.45,0,9.43,6.41,11.59,10.66,11.59Z"/><path class="uuid-0125ce4f-ca40-4002-874b-3eabe4054be8" d="M159.6,.86c.5,.22-.36,19.3-.36,19.3,0,0,13.83-19.51,14.54-19.51s13.39,3.53,13.47,4.54c.07,1.01-12.24,18.65-12.24,18.65,3.38,4.9,13.18,23.76,13.03,24.34s-12.02,4.82-14.91,4.32c-.58-.07-8.57-15.77-9.58-17.79-.65,.79-3.96,4.97-3.96,4.97l.14,11.74c-1.51,.36-14.83,.65-15.41,.22-.58-.43-1.8-49.4-.72-50.48s15.48-.5,15.99-.29Z"/></g><g class="uuid-5f3621b7-a8e5-4fa1-8446-0ed8a411657b"><path class="uuid-0125ce4f-ca40-4002-874b-3eabe4054be8" d="M192,51.41c-.36-4.32-.58-43.64,.14-50.19,4.82-.43,13.25-.72,18.58-.72,14.54,0,22.25,7.06,22.25,18.29,0,13.61-6.98,19.15-22.11,19.15h-1.8c-.07,6.62,0,12.38-.43,13.18-.29,.58-16.56,.86-16.63,.29Zm19.87-27.07c3.31,0,5.83-1.3,5.83-4.46,0-3.53-3.02-4.75-6.41-4.75-.58,0-1.94,0-2.59,.14,.07,2.74,0,6.19-.07,8.93,.79,.07,2.23,.14,3.24,.14Z"/></g><g class="uuid-5f3621b7-a8e5-4fa1-8446-0ed8a411657b"><path class="uuid-0125ce4f-ca40-4002-874b-3eabe4054be8" d="M262.63,42.41c-.79,.07-10.87-.14-12.39-.22-.36,1.58-2.38,9.29-2.81,9.58s-15.55-.79-16.71-1.37c1.3-4.9,14.62-49.04,15.27-49.47,.65-.43,18.58-.86,20.38-.5,.22,.07,14.4,40.54,16.06,49.97-1.94,.86-16.35,1.58-16.56,1.51-.22-.07-2.74-7.56-3.24-9.5Zm-6.12-27.29c-1.01,3.6-3.38,12.96-4.1,15.12,1.3-.07,6.34-.07,8.71,0-.86-2.59-3.17-11.74-4.18-15.19-.14,0-.29,.07-.43,.07Z"/></g><g class="uuid-5f3621b7-a8e5-4fa1-8446-0ed8a411657b"><path class="uuid-0125ce4f-ca40-4002-874b-3eabe4054be8" d="M309.94,37.88c5.62,0,8.93-2.88,10.44-3.96,1.94,1.3,5.91,8.64,7.34,11.59-3.38,4.03-10.87,7.34-19.51,7.34-17.64,0-25.71-12.17-25.71-27.22S293.31,0,310.37,0c8.79,0,15.05,2.52,17.21,4.82-.07,1.73-3.67,11.45-5.9,13.32-2.59-1.44-6.99-3.31-11.02-3.31-6.26,0-11.38,4.61-11.38,11.45,0,9.43,6.41,11.59,10.66,11.59Z"/><path class="uuid-0125ce4f-ca40-4002-874b-3eabe4054be8" d="M348.1,.86c.5,.22-.36,19.3-.36,19.3,0,0,13.83-19.51,14.54-19.51s13.39,3.53,13.46,4.54c.07,1.01-12.24,18.65-12.24,18.65,3.38,4.9,13.18,23.76,13.03,24.34-.14,.58-12.02,4.82-14.91,4.32-.58-.07-8.57-15.77-9.58-17.79-.65,.79-3.96,4.97-3.96,4.97l.14,11.74c-1.51,.36-14.83,.65-15.41,.22-.58-.43-1.8-49.4-.72-50.48s15.48-.5,15.99-.29Z"/><path class="uuid-0125ce4f-ca40-4002-874b-3eabe4054be8" d="M396.56,1.08c.58,.43,.5,47.31-.14,50.04-.36,1.51-15.84,.86-15.91,.29-.36-4.32-.58-43.64,.14-50.19,3.02-.65,15.34-.58,15.91-.14Z"/><path class="uuid-0125ce4f-ca40-4002-874b-3eabe4054be8" d="M435,51.48c-1.51-1.87-8.35-13.9-15.05-24.27,0,9.36,.5,19.23,.29,23.47-3.02,.65-15.48,.72-15.55,0-.43-2.95-.65-45.29,0-49.18,.22-1.51,14.47-1.51,14.76-1.01,1.01,1.58,9.79,15.48,15.41,26.43,.07-10.58-.36-22.54,0-25.63,3.02-.65,14.91-.43,15.48,0,.58,.43,.07,46.3-.58,49.04-.36,1.51-13.75,1.73-14.76,1.15Z"/><path class="uuid-0125ce4f-ca40-4002-874b-3eabe4054be8" d="M483.24,38.81c1.66,0,3.38-.43,4.61-.79-.07-.94-.14-4.1-.14-4.1,0,0-5.4,.14-6.48,.22-.43-.58-.65-10.3-.14-11.09,2.16-.5,20.52-1.08,21.1-.58s.29,24.34,.07,24.48c-3.38,2.81-12.1,5.9-20.74,5.9-17.64,0-25.71-12.17-25.71-27.22S465.89,0,482.96,0c8.79,0,15.05,2.95,17.21,5.26-.07,1.73-5.04,10.95-6.62,12.6-2.59-1.44-6.26-2.88-10.3-2.88-6.26,0-10.87,4.46-10.87,11.3,0,9.43,5.18,12.53,10.87,12.53Z"/></g><g class="uuid-5f3621b7-a8e5-4fa1-8446-0ed8a411657b"><path class="uuid-0125ce4f-ca40-4002-874b-3eabe4054be8" d="M145.87,128.44c11.05,2.21,21.42,12.24,21.42,29.41,0,22.95-18.36,32.98-48.96,32.98-16.66,0-47.09-1.36-47.94-2.04-.85-.68-2.21-114.58-1.7-115.94,.51-1.36,32.64-2.04,36.04-2.04,27.03,0,54.23,5.78,54.23,32.3,0,13.77-5.27,19.55-13.09,24.31v1.02Zm-41.14-12.24c1.19,.17,2.21,.17,3.4,.17,9.18,0,14.11-3.23,14.11-9.35s-7.99-8.16-13.43-8.16c-1.36,0-2.89,.17-3.91,.34-.17,2.55-.17,17-.17,17Zm1.7,45.05c2.55,.34,4.93,.51,6.97,.51,10.54,0,14.45-4.08,14.45-9.86,0-6.8-5.95-9.69-15.3-9.69-1.87,0-3.91,.17-5.95,.34-.17,2.55-.17,18.7-.17,18.7Z"/></g><g class="uuid-5f3621b7-a8e5-4fa1-8446-0ed8a411657b"><path class="uuid-0125ce4f-ca40-4002-874b-3eabe4054be8" d="M243.62,169.07c-1.87,.17-25.67-.34-29.24-.51-.85,3.74-5.61,21.93-6.63,22.61-1.02,.68-36.72-1.87-39.44-3.23,3.06-11.56,34.51-115.77,36.04-116.79,1.53-1.02,43.86-2.04,48.11-1.19,.51,.17,34,95.71,37.91,117.98-4.59,2.04-38.59,3.74-39.1,3.57-.51-.17-6.46-17.85-7.65-22.44Zm-14.45-64.43c-2.38,8.5-7.99,30.6-9.69,35.7,3.06-.17,14.96-.17,20.57,0-2.04-6.12-7.48-27.71-9.86-35.87-.34,0-.68,.17-1.02,.17Z"/><path class="uuid-0125ce4f-ca40-4002-874b-3eabe4054be8" d="M381.32,189.47c-.34,1.19-73.44,.68-81.09-.34-1.02-11.39-1.02-116.11,.34-117.98,.85-1.19,36.72-2.21,36.89-.85,.51,6.97,.34,73.95-.34,86.36,14.62-.51,37.23-.68,43.52,0,1.19,7.31,1.87,28.9,.68,32.81Z"/><path class="uuid-0125ce4f-ca40-4002-874b-3eabe4054be8" d="M431.13,71.49c1.36,1.02,1.19,111.69-.34,118.15-.85,3.57-37.4,2.04-37.57,.68-.85-10.2-1.36-103.02,.34-118.49,7.14-1.53,36.21-1.36,37.57-.34Z"/></g></svg>