<?xml version="1.0" encoding="UTF-8"?><svg id="uuid-ac7f38df-8cf0-4bf0-99d4-3b78feecd5e4" xmlns="http://www.w3.org/2000/svg" viewBox="0 0 755.85 171.03"><defs><style>.uuid-8aaed447-4ed7-4770-9101-f5b763f9188c{fill:#fff;}.uuid-a2cf5ea3-5ef3-468d-8d8b-94f6e6f2622c{isolation:isolate;}</style></defs><g class="uuid-a2cf5ea3-5ef3-468d-8d8b-94f6e6f2622c"><path class="uuid-8aaed447-4ed7-4770-9101-f5b763f9188c" d="M157.37,25.2c4.68,.94,9.07,5.18,9.07,12.46,0,9.72-7.78,13.97-20.74,13.97-7.06,0-19.95-.58-20.31-.86-.36-.29-.94-48.53-.72-49.11,.22-.58,13.83-.86,15.27-.86,11.45,0,22.97,2.45,22.97,13.68,0,5.83-2.23,8.28-5.54,10.3v.43Zm-17.43-5.18c.5,.07,.94,.07,1.44,.07,3.89,0,5.98-1.37,5.98-3.96s-3.38-3.46-5.69-3.46c-.58,0-1.22,.07-1.66,.14-.07,1.08-.07,7.2-.07,7.2Zm.72,19.08c1.08,.14,2.09,.22,2.95,.22,4.46,0,6.12-1.73,6.12-4.18,0-2.88-2.52-4.1-6.48-4.1-.79,0-1.66,.07-2.52,.14-.07,1.08-.07,7.92-.07,7.92Z"/></g><g class="uuid-a2cf5ea3-5ef3-468d-8d8b-94f6e6f2622c"><path class="uuid-8aaed447-4ed7-4770-9101-f5b763f9188c" d="M198.77,42.41c-.79,.07-10.87-.14-12.39-.22-.36,1.58-2.38,9.29-2.81,9.58s-15.55-.79-16.71-1.37c1.3-4.9,14.62-49.04,15.27-49.47,.65-.43,18.58-.86,20.38-.5,.22,.07,14.4,40.54,16.06,49.97-1.94,.86-16.35,1.58-16.56,1.51-.22-.07-2.74-7.56-3.24-9.5Zm-6.12-27.29c-1.01,3.6-3.38,12.96-4.1,15.12,1.3-.07,6.34-.07,8.71,0-.86-2.59-3.17-11.74-4.18-15.19-.14,0-.29,.07-.43,.07Z"/></g><g class="uuid-a2cf5ea3-5ef3-468d-8d8b-94f6e6f2622c"><path class="uuid-8aaed447-4ed7-4770-9101-f5b763f9188c" d="M246.08,37.88c5.62,0,8.93-2.88,10.44-3.96,1.94,1.3,5.9,8.64,7.34,11.59-3.38,4.03-10.87,7.34-19.51,7.34-17.64,0-25.71-12.17-25.71-27.22S229.44,0,246.51,0c8.78,0,15.05,2.52,17.21,4.82-.07,1.73-3.67,11.45-5.9,13.32-2.59-1.44-6.98-3.31-11.02-3.31-6.26,0-11.38,4.61-11.38,11.45,0,9.43,6.41,11.59,10.66,11.59Z"/><path class="uuid-8aaed447-4ed7-4770-9101-f5b763f9188c" d="M284.24,.86c.5,.22-.36,19.3-.36,19.3,0,0,13.83-19.51,14.54-19.51s13.39,3.53,13.47,4.54c.07,1.01-12.24,18.65-12.24,18.65,3.38,4.9,13.18,23.76,13.03,24.34s-12.02,4.82-14.91,4.32c-.58-.07-8.57-15.77-9.58-17.79-.65,.79-3.96,4.97-3.96,4.97l.14,11.74c-1.51,.36-14.83,.65-15.41,.22-.58-.43-1.8-49.4-.72-50.48s15.48-.5,15.99-.29Z"/></g><g class="uuid-a2cf5ea3-5ef3-468d-8d8b-94f6e6f2622c"><path class="uuid-8aaed447-4ed7-4770-9101-f5b763f9188c" d="M316.63,51.41c-.36-4.32-.58-43.64,.14-50.19,4.82-.43,13.25-.72,18.58-.72,14.54,0,22.25,7.06,22.25,18.29,0,13.61-6.98,19.15-22.11,19.15h-1.8c-.07,6.62,0,12.38-.43,13.18-.29,.58-16.56,.86-16.63,.29Zm19.87-27.07c3.31,0,5.83-1.3,5.83-4.46,0-3.53-3.02-4.75-6.41-4.75-.58,0-1.94,0-2.59,.14,.07,2.74,0,6.19-.07,8.93,.79,.07,2.23,.14,3.24,.14Z"/></g><g class="uuid-a2cf5ea3-5ef3-468d-8d8b-94f6e6f2622c"><path class="uuid-8aaed447-4ed7-4770-9101-f5b763f9188c" d="M387.27,42.41c-.79,.07-10.87-.14-12.39-.22-.36,1.58-2.38,9.29-2.81,9.58s-15.55-.79-16.71-1.37c1.3-4.9,14.62-49.04,15.27-49.47,.65-.43,18.58-.86,20.38-.5,.22,.07,14.4,40.54,16.06,49.97-1.94,.86-16.35,1.58-16.56,1.51-.22-.07-2.74-7.56-3.24-9.5Zm-6.12-27.29c-1.01,3.6-3.38,12.96-4.1,15.12,1.3-.07,6.34-.07,8.71,0-.86-2.59-3.17-11.74-4.18-15.19-.14,0-.29,.07-.43,.07Z"/></g><g class="uuid-a2cf5ea3-5ef3-468d-8d8b-94f6e6f2622c"><path class="uuid-8aaed447-4ed7-4770-9101-f5b763f9188c" d="M434.58,37.88c5.62,0,8.93-2.88,10.44-3.96,1.94,1.3,5.91,8.64,7.34,11.59-3.38,4.03-10.87,7.34-19.51,7.34-17.64,0-25.71-12.17-25.71-27.22S417.94,0,435.01,0c8.79,0,15.05,2.52,17.21,4.82-.07,1.73-3.67,11.45-5.9,13.32-2.59-1.44-6.99-3.31-11.02-3.31-6.26,0-11.38,4.61-11.38,11.45,0,9.43,6.41,11.59,10.66,11.59Z"/><path class="uuid-8aaed447-4ed7-4770-9101-f5b763f9188c" d="M472.74,.86c.5,.22-.36,19.3-.36,19.3,0,0,13.83-19.51,14.54-19.51s13.39,3.53,13.46,4.54c.07,1.01-12.24,18.65-12.24,18.65,3.38,4.9,13.18,23.76,13.03,24.34-.14,.58-12.02,4.82-14.91,4.32-.58-.07-8.57-15.77-9.58-17.79-.65,.79-3.96,4.97-3.96,4.97l.14,11.74c-1.51,.36-14.83,.65-15.41,.22-.58-.43-1.8-49.4-.72-50.48s15.48-.5,15.99-.29Z"/><path class="uuid-8aaed447-4ed7-4770-9101-f5b763f9188c" d="M521.19,1.08c.58,.43,.5,47.31-.14,50.04-.36,1.51-15.84,.86-15.91,.29-.36-4.32-.58-43.64,.14-50.19,3.02-.65,15.34-.58,15.91-.14Z"/><path class="uuid-8aaed447-4ed7-4770-9101-f5b763f9188c" d="M559.64,51.48c-1.51-1.87-8.35-13.9-15.05-24.27,0,9.36,.5,19.23,.29,23.47-3.02,.65-15.48,.72-15.55,0-.43-2.95-.65-45.29,0-49.18,.22-1.51,14.47-1.51,14.76-1.01,1.01,1.58,9.79,15.48,15.41,26.43,.07-10.58-.36-22.54,0-25.63,3.02-.65,14.91-.43,15.48,0,.58,.43,.07,46.3-.58,49.04-.36,1.51-13.75,1.73-14.76,1.15Z"/><path class="uuid-8aaed447-4ed7-4770-9101-f5b763f9188c" d="M607.88,38.81c1.66,0,3.38-.43,4.61-.79-.07-.94-.14-4.1-.14-4.1,0,0-5.4,.14-6.48,.22-.43-.58-.65-10.3-.14-11.09,2.16-.5,20.52-1.08,21.1-.58s.29,24.34,.07,24.48c-3.38,2.81-12.1,5.9-20.74,5.9-17.64,0-25.71-12.17-25.71-27.22s10.08-25.63,27.15-25.63c8.79,0,15.05,2.95,17.21,5.26-.07,1.73-5.04,10.95-6.62,12.6-2.59-1.44-6.26-2.88-10.3-2.88-6.26,0-10.87,4.46-10.87,11.3,0,9.43,5.18,12.53,10.87,12.53Z"/></g><g class="uuid-a2cf5ea3-5ef3-468d-8d8b-94f6e6f2622c"><path class="uuid-8aaed447-4ed7-4770-9101-f5b763f9188c" d="M53.34,141.91c10.92,0,17.36-5.6,20.3-7.7,3.78,2.52,11.48,16.8,14.28,22.54-6.58,7.84-21.14,14.28-37.94,14.28C15.68,171.03,0,147.37,0,118.11s21-49.84,54.18-49.84c17.08,0,29.26,4.9,33.46,9.38-.14,3.36-7.14,22.26-11.48,25.9-5.04-2.8-13.58-6.44-21.42-6.44-12.18,0-22.12,8.96-22.12,22.26,0,18.34,12.46,22.54,20.72,22.54Z"/><path class="uuid-8aaed447-4ed7-4770-9101-f5b763f9188c" d="M151.2,150.73c-1.54,.14-21.14-.28-24.08-.42-.7,3.08-4.62,18.06-5.46,18.62-.84,.56-30.24-1.54-32.48-2.66,2.52-9.52,28.42-95.34,29.68-96.18,1.26-.84,36.12-1.68,39.62-.98,.42,.14,28,78.82,31.22,97.16-3.78,1.68-31.78,3.08-32.2,2.94-.42-.14-5.32-14.7-6.3-18.48Zm-11.9-53.06c-1.96,7-6.58,25.2-7.98,29.4,2.52-.14,12.32-.14,16.94,0-1.68-5.04-6.16-22.82-8.12-29.54-.28,0-.56,.14-.84,.14Z"/><path class="uuid-8aaed447-4ed7-4770-9101-f5b763f9188c" d="M252.84,126.65c4.9-20.86,12.6-53.9,15.54-56.56,1.68-1.54,27.02-1.54,29.82-.84,1.26,.7,13.86,91.7,13.44,96.04-1.96,2.8-28.7,5.18-28.98,4.06-.7-3.78-2.66-31.78-4.76-52.08h-.56c-4.48,17.92-9.94,42.84-13.16,50.82-2.66,.7-23.38,.7-24.5-.42-1.12-1.54-8.82-35.14-12.46-50.96-.14,0-.42-.14-.56-.14-2.24,17.36-4.34,44.38-5.88,52.08-5.88,.42-28.98-2.38-28.98-3.78-.14-5.74,13.44-87.22,15.54-94.64,.84-2.8,25.2-1.96,28.7-1.26,2.8,5.04,11.2,36.82,15.96,57.68h.84Z"/><path class="uuid-8aaed447-4ed7-4770-9101-f5b763f9188c" d="M384.44,117.27c9.1,1.82,17.64,10.08,17.64,24.22,0,18.9-15.12,27.16-40.32,27.16-13.72,0-38.78-1.12-39.48-1.68-.7-.56-1.82-94.36-1.4-95.48,.42-1.12,26.88-1.68,29.68-1.68,22.26,0,44.66,4.76,44.66,26.6,0,11.34-4.34,16.1-10.78,20.02v.84Zm-33.88-10.08c.98,.14,1.82,.14,2.8,.14,7.56,0,11.62-2.66,11.62-7.7s-6.58-6.72-11.06-6.72c-1.12,0-2.38,.14-3.22,.28-.14,2.1-.14,14-.14,14Zm1.4,37.1c2.1,.28,4.06,.42,5.74,.42,8.68,0,11.9-3.36,11.9-8.12,0-5.6-4.9-7.98-12.6-7.98-1.54,0-3.22,.14-4.9,.28-.14,2.1-.14,15.4-.14,15.4Z"/><path class="uuid-8aaed447-4ed7-4770-9101-f5b763f9188c" d="M506.52,120.77c0,24.92-15.96,49.7-49.84,49.7-30.38,0-50.12-20.02-50.12-52.78,0-25.2,16.8-49.7,49.7-49.7,30.1,0,50.26,20.02,50.26,52.78Zm-49.98-24.78c-11.06,0-17.92,8.68-17.92,23.38,0,13.3,7.14,22.68,17.36,22.68,11.48,0,17.5-8.54,17.5-23.38,0-16.52-7.56-22.68-16.94-22.68Z"/><path class="uuid-8aaed447-4ed7-4770-9101-f5b763f9188c" d="M517.85,70.37c3.22-.84,22.26-1.12,33.46-1.12,33.18,0,53.48,21,53.48,49.7s-15.96,50.4-54.74,50.4c-12.04,0-30.1-.98-33.18-1.96-.7-8.4-.42-84.28,.98-97.02Zm34.16,27.58c-1.68,0-3.78,0-5.18,.14,.14,12.88,0,29.96-.14,42.84,1.82,.28,4.2,.42,6.72,.42,8.26,0,19.46-2.8,19.46-21.14,0-13.3-8.68-22.26-20.86-22.26Z"/><path class="uuid-8aaed447-4ed7-4770-9101-f5b763f9188c" d="M646.93,70.37c1.12,.84,.98,91.98-.28,97.3-.7,2.94-30.8,1.68-30.94,.56-.7-8.4-1.12-84.84,.28-97.58,5.88-1.26,29.82-1.12,30.94-.28Z"/></g><g class="uuid-a2cf5ea3-5ef3-468d-8d8b-94f6e6f2622c"><path class="uuid-8aaed447-4ed7-4770-9101-f5b763f9188c" d="M717.35,150.73c-1.54,.14-21.14-.28-24.08-.42-.7,3.08-4.62,18.06-5.46,18.62-.84,.56-30.24-1.54-32.48-2.66,2.52-9.52,28.42-95.34,29.68-96.18,1.26-.84,36.12-1.68,39.62-.98,.42,.14,28,78.82,31.22,97.16-3.78,1.68-31.78,3.08-32.2,2.94-.42-.14-5.32-14.7-6.3-18.48Zm-11.9-53.06c-1.96,7-6.58,25.2-7.98,29.4,2.52-.14,12.32-.14,16.94,0-1.68-5.04-6.16-22.82-8.12-29.54-.28,0-.56,.14-.84,.14Z"/></g></svg>