<?xml version="1.0" encoding="UTF-8"?><svg id="Layer_1" xmlns="http://www.w3.org/2000/svg" viewBox="0 0 405.63 140.1"><defs><style>.cls-1{fill:#fff;}</style></defs><path class="cls-1" d="M5.28,28.92c-1.14-1.32-2.31-2.66-3.5-4.03-1.19-1.36-1.78-2.57-1.78-3.63,0-.79,.35-1.58,1.06-2.38C5.89,12.81,13.15,8.41,22.84,5.69,31.46,3.84,40.04,1.99,48.58,.14c.53-.09,1.06-.13,1.58-.13,1.67,0,3.32,.59,4.95,1.78,1.63,1.19,2.44,2.57,2.44,4.16,0,2.82-2.03,4.71-6.07,5.68-2.82,1.06-7.97,2.11-15.44,3.17-6.42,.88-11.35,2.24-14.78,4.09-1.58,.88-2.38,1.8-2.38,2.77,0,.26,.04,.53,.13,.79,2.55,3.87,7.08,8.18,13.6,12.94,8.18,5.9,13.11,9.68,14.78,11.35,4.66,4.58,7,9.37,7,14.39,0,1.67-.26,3.43-.79,5.28-1.58,5.99-5.37,10.61-11.35,13.86-5.46,2.9-11.84,4.36-19.14,4.36-6.78,0-12.94-1.27-18.48-3.83-2.55-1.14-3.83-2.99-3.83-5.54,0-1.93,.73-3.89,2.18-5.87,1.45-1.98,3.19-3.45,5.21-4.42,1.32-.26,2.51,.4,3.56,1.98,1.14,1.85,2.11,2.9,2.9,3.17,1.93,0,4.84,.48,8.71,1.45,1.41,.71,2.9,1.06,4.49,1.06,1.67,0,3.61-.48,5.81-1.45,1.85-.88,3.7-1.72,5.54-2.51,1.58-1.23,2.38-2.86,2.38-4.88,0-1.23-.31-2.51-.92-3.83-3.35-4.31-9.22-9.46-17.62-15.44-8.4-5.98-14.32-11.17-17.75-15.58Z"/><path class="cls-1" d="M89.23,22.32c6.07,0,11.4,2.95,15.97,8.84,3.78,4.93,5.68,10.52,5.68,16.76,0,4.84-1.15,9.44-3.43,13.79-2.29,4.36-5.46,7.9-9.5,10.63-4.67,3.08-9.46,4.62-14.39,4.62-4.58,0-8.67-1.32-12.28-3.96-7.31-5.28-10.96-11.97-10.96-20.06,0-7.04,3.1-13.9,9.31-20.59,6.2-6.69,12.74-10.03,19.6-10.03Zm-14.39,32.74c1.67,7.74,4.88,11.62,9.64,11.62,1.06,0,2.2-.26,3.43-.79,6.69-3.08,10.03-8.8,10.03-17.16,0-2.02-.22-4-.66-5.94-1.06-4.05-4.58-6.07-10.56-6.07-.88,0-1.72,.09-2.51,.26-2.03,.44-4.2,3.01-6.53,7.72-2.33,4.71-3.28,8.16-2.84,10.36Z"/><path class="cls-1" d="M114.97,76.04c-.71-.88-1.06-1.8-1.06-2.77,.53-4.31,1.06-13.16,1.58-26.53,.44-10.91,1.36-19.75,2.77-26.53,.26-1.23,1.58-1.85,3.96-1.85,2.2,0,3.74,.44,4.62,1.32,2.73,3.61,5.54,9.66,8.45,18.15,2.9,8.49,5.72,14.54,8.45,18.15,.61-1.67,1.01-3.48,1.19-5.41,.09-1.41,.09-3.21,0-5.41-.09-2.99-.13-4.79-.13-5.41,0-2.99-.68-7.48-2.05-13.46-1.37-5.98-2.05-10.47-2.05-13.46,0-1.41,.09-2.73,.26-3.96,.35-2.11,2.16-3.17,5.41-3.17,2.38,0,3.83,.71,4.36,2.11,2.29,5.99,3.74,13.07,4.36,21.25,.35,4.05,.53,11.4,.53,22.04,0,9.07-1.8,15.4-5.41,19.01-1.23,1.5-3.04,2.24-5.41,2.24-1.94,0-3.39-.57-4.36-1.72-2.2-2.55-4.49-5.98-6.86-10.3-1.85-3.61-3.7-7.21-5.54-10.82-1.06,2.64-1.58,5.85-1.58,9.64,0,.97,.04,2.4,.13,4.29,.09,1.89,.13,3.32,.13,4.29,0,2.99-.29,5.52-.86,7.59-.57,2.07-2.36,3.1-5.35,3.1-2.29,0-4.14-.79-5.54-2.38Z"/><path class="cls-1" d="M159.32,67.2c-.97-5.02-1.45-9.72-1.45-14.12,0-15.75,5.54-27.54,16.63-35.38,4.57-3.25,9.59-4.88,15.05-4.88s10.56,1.63,15.31,4.88c1.06,.71,1.58,1.54,1.58,2.51,0,1.58-.92,2.86-2.77,3.83-1.5,.71-3.17,1.06-5.02,1.06-1.23,0-3.08-.24-5.54-.73-2.46-.48-4.31-.73-5.54-.73-1.06,0-2.03,.13-2.9,.4-3.87,.97-7.26,5.37-10.16,13.2-2.38,6.51-3.56,12.54-3.56,18.08,0,8.98,3.3,15,9.9,18.08,.97,.44,2.02,.66,3.17,.66,2.46,0,4.14-.84,5.02-2.51,2.02-4.14,3.04-6.86,3.04-8.18,0-1.41-.57-2.51-1.72-3.3-2.55-1.23-3.83-2.07-3.83-2.51-.62-.88-.92-1.76-.92-2.64,0-2.64,2.64-4.71,7.92-6.2,1.14-.35,2.42-.53,3.83-.53,2.73,0,5.13,.66,7.19,1.98,2.07,1.32,3.1,3.08,3.1,5.28,0,1.06-.26,2.2-.79,3.43,0,.18-.44,.49-1.32,.92-.88,.44-1.32,.75-1.32,.92,0,1.67-.31,3.78-.92,6.34-.88,3.43-1.41,5.54-1.58,6.34-.18,1.23-.97,2.46-2.38,3.7-1.94,1.85-3.04,2.95-3.3,3.3-.97,.71-2.33,1.23-4.09,1.58-2.2,.35-3.56,.66-4.09,.92-2.55,1.06-5.19,1.58-7.92,1.58-4.84,0-9.24-1.63-13.2-4.88-3.96-3.25-6.42-7.39-7.39-12.41Z"/><path class="cls-1" d="M212.12,52.54c-1.67-12.23-2.51-27.72-2.51-46.46,0-1.41,.86-2.75,2.57-4.03,1.72-1.28,3.54-1.96,5.48-2.05,4.14-.17,6.2,2.33,6.2,7.52,0,.88-.09,2.33-.26,4.36-.18,2.03-.26,3.52-.26,4.49,0,3.96,.75,5.94,2.25,5.94,1.32,0,2.92-.92,4.77-2.77,.53-.35,2.83-2.42,6.89-6.2,3.09-2.9,5.57-4.36,7.43-4.36,1.59,0,3.2,.59,4.84,1.78,1.64,1.19,2.46,2.4,2.46,3.63,0,.35-.09,.66-.26,.92-2.03,3.43-5.85,6.78-11.48,10.03-6.95,3.96-11.27,6.69-12.94,8.18-.18,.26-.26,.57-.26,.92,0,1.06,1.01,2.9,3.04,5.54,2.82,3.79,4.22,5.72,4.22,5.81,3.78,3.7,7.57,7.39,11.35,11.09,4.31,4.58,6.95,8.8,7.92,12.67,.26,1.06-.42,2.16-2.05,3.3-1.63,1.14-3.45,1.72-5.48,1.72-1.58,0-2.95-.48-4.09-1.45-2.11-1.67-5.15-5.1-9.11-10.3-5.1-6.69-7.83-10.25-8.18-10.69-.26,1.06-.4,2.24-.4,3.56,0,5.63,1.32,13.38,3.96,23.23,.97,3.61,.79,6.42-.53,8.45-1.23,2.46-3.12,3.7-5.68,3.7-1.15,0-2.33-.31-3.56-.92-2.03-.97-3.04-2.38-3.04-4.22,0-5.63-1.1-16.76-3.3-33.4Z"/><path class="cls-1" d="M256.74,41.59c0-2.64,.68-6.51,2.05-11.62,1.36-5.1,2.05-8.84,2.05-11.22,0-1.93-.31-3.65-.92-5.15-.79-3.87-1.19-5.89-1.19-6.07,0-1.58,.61-2.73,1.85-3.43C265.05,1.37,269.98,0,275.35,0c5.98,0,11.79,1.65,17.42,4.95,5.63,3.3,10.12,7.68,13.46,13.13,1.06,1.67,1.58,3.39,1.58,5.15,0,5.02-4.75,10.69-14.26,17.03,2.99,15.75,7.21,28.86,12.67,39.34,.26,.44,.4,.84,.4,1.19,0,1.06-.66,1.94-1.98,2.64-1.32,.71-2.77,1.06-4.36,1.06-1.5,0-2.69-.35-3.56-1.06-4.05-3.34-7.22-9.42-9.5-18.22-2.55-9.5-5.28-15.93-8.18-19.27-.88-.88-2.38-1.32-4.49-1.32-2.73,0-4.45,.66-5.15,1.98-.62,2.03-.92,4.22-.92,6.6,0,2.82,.66,6.91,1.98,12.28,1.32,5.72,2.02,9.81,2.11,12.28,.09,1.23-.88,2.27-2.9,3.1-2.03,.84-4,1.08-5.94,.73-1.5-.53-2.77-1.8-3.83-3.83-1.85-4.84-2.9-10.78-3.17-17.82,0,1.32,0-4.8,0-18.35Zm15.3-17.16c-1.4,4.14-2.1,6.56-2.1,7.26,0,1.85,2.19,2.77,6.57,2.77,6.57,0,12.21-2.07,16.94-6.2,1.93-.97,2.89-2.11,2.89-3.43,0-.35-.13-.7-.39-1.06-3.24-6.6-9.55-10.43-18.91-11.48-2.02-.17-3.33,1.32-3.94,4.49-.35,2.55-.7,5.1-1.05,7.66Z"/><path class="cls-1" d="M323.79,26.01c.44-1.32,1.41-5.5,2.9-12.54,1.06-4.93,2.51-8.67,4.36-11.22,.97-1.5,2.86-2.24,5.68-2.24,1.67,0,2.73,.53,3.17,1.58,2.9,6.25,5.54,13.99,7.92,23.23,1.93,8.1,3.87,16.24,5.81,24.42,0,.62,.59,1.23,1.78,1.85,1.19,.62,1.96,1.21,2.31,1.78,.35,.57,.53,1.21,.53,1.91s-.18,1.23-.53,1.58c-.71,1.67-1.06,3.39-1.06,5.15,0,2.03,.79,5.24,2.38,9.64,1.5,4.05,2.07,7.26,1.72,9.64-.35,2.46-2.29,3.7-5.81,3.7-1.94,0-3.39-.66-4.36-1.98-1.23-1.67-2.29-5.23-3.17-10.69-.71-4.58-2.2-7.57-4.49-8.98-1.94-1.06-4.18-1.58-6.73-1.58-4.14,0-7.66,1.15-10.56,3.43-1.32,1.06-2.77,4.84-4.36,11.35-1.32,5.63-3.48,8.45-6.47,8.45-1.32,0-2.86-.44-4.62-1.32-.26-1.23-.4-2.51-.4-3.83,0-2.73,.66-6.16,1.98-10.3,1.85-5.72,2.9-9.15,3.17-10.3,2.46-11.53,5.41-22.44,8.84-32.74Zm7.26,11.88c-.26,1.32-.97,3.48-2.11,6.47-1.06,2.64-1.58,4.49-1.58,5.54s.4,1.8,1.19,2.24c1.67,.88,3.74,1.32,6.2,1.32,3.61,0,5.72-1.01,6.34-3.04,.44-1.5,.66-3.08,.66-4.75,0-2.9-.75-6.25-2.24-10.03-.26-.79-1.72-4-4.36-9.64-1.94,2.38-3.3,6.34-4.09,11.88Z"/><path class="cls-1" d="M364.97,76.04c-.71-.88-1.06-1.8-1.06-2.77,.53-4.31,1.06-13.16,1.58-26.53,.44-10.91,1.36-19.75,2.77-26.53,.26-1.23,1.58-1.85,3.96-1.85,2.2,0,3.74,.44,4.62,1.32,2.73,3.61,5.54,9.66,8.45,18.15,2.9,8.49,5.72,14.54,8.45,18.15,.61-1.67,1.01-3.48,1.19-5.41,.09-1.41,.09-3.21,0-5.41-.09-2.99-.13-4.79-.13-5.41,0-2.99-.68-7.48-2.05-13.46-1.37-5.98-2.05-10.47-2.05-13.46,0-1.41,.09-2.73,.26-3.96,.35-2.11,2.15-3.17,5.41-3.17,2.38,0,3.83,.71,4.36,2.11,2.29,5.99,3.74,13.07,4.36,21.25,.35,4.05,.53,11.4,.53,22.04,0,9.07-1.8,15.4-5.41,19.01-1.23,1.5-3.04,2.24-5.41,2.24-1.94,0-3.39-.57-4.36-1.72-2.2-2.55-4.49-5.98-6.86-10.3-1.85-3.61-3.7-7.21-5.54-10.82-1.06,2.64-1.58,5.85-1.58,9.64,0,.97,.04,2.4,.13,4.29,.09,1.89,.13,3.32,.13,4.29,0,2.99-.29,5.52-.86,7.59-.57,2.07-2.36,3.1-5.35,3.1-2.29,0-4.14-.79-5.54-2.38Z"/><path class="cls-1" d="M87.71,140.1c-.58,0-1.07-.25-1.48-.76-.41-.5-.61-1-.61-1.48-.1-1.2-.14-2.45-.14-3.74,0-3.6,.37-8.95,1.12-16.06,.74-7.1,1.12-12.43,1.12-15.98,0-.58-.26-.86-.79-.86-.1,0-1.01,.29-2.74,.86-.48,.1-1.36,.46-2.63,1.08-1.27,.62-2.24,.94-2.92,.94-.77,0-1.42-.28-1.94-.83-.53-.55-.79-1.21-.79-1.98,0-1.39,.67-2.42,2.02-3.1,5.14-2.54,10.68-3.86,16.63-3.96h11.02c.14,0,.34,.22,.58,.65,.24,.43,.38,.67,.43,.72,.14,.34,.22,.65,.22,.93,0,1.67-1.1,2.89-3.31,3.66-.29,.05-2.86,.26-7.7,.65-1.73,8.23-2.78,20.1-3.17,35.6,0,.77-.61,1.57-1.84,2.41s-2.24,1.26-3.06,1.26Z"/><path class="cls-1" d="M124.07,106.19c3.31,0,6.22,1.61,8.71,4.82,2.06,2.69,3.1,5.74,3.1,9.14,0,2.64-.62,5.15-1.87,7.52-1.25,2.38-2.98,4.31-5.18,5.8-2.54,1.68-5.16,2.52-7.85,2.52-2.5,0-4.73-.72-6.7-2.16-3.98-2.88-5.98-6.53-5.98-10.94,0-3.84,1.69-7.58,5.08-11.23,3.38-3.65,6.95-5.47,10.69-5.47Zm-7.85,17.86c.91,4.22,2.66,6.34,5.26,6.34,.58,0,1.2-.14,1.87-.43,3.65-1.68,5.47-4.8,5.47-9.36,0-1.1-.12-2.18-.36-3.24-.58-2.21-2.5-3.31-5.76-3.31-.48,0-.94,.05-1.37,.14-1.1,.24-2.29,1.64-3.56,4.21-1.27,2.57-1.79,4.45-1.55,5.65Z"/><path class="cls-1" d="M144.23,134.99c-4.61-4.85-6.91-11.13-6.91-18.86,0-4.13,.67-8.38,2.02-12.74,.33-1.01,.96-1.85,1.87-2.52,.91-.67,1.92-1.01,3.02-1.01,.77,0,1.51,.17,2.23,.5,.82,.82,1.22,1.68,1.22,2.59,0,.24-.05,.5-.14,.79-1.68,3.84-2.52,7.92-2.52,12.24,0,7.06,2.21,11.91,6.62,14.54,.96,.58,1.9,.86,2.81,.86,1.97,0,3.7-1.3,5.18-3.89,1.25-2.16,2.06-4.63,2.45-7.42,.38-1.63,.58-3.43,.58-5.4,0-1.49-.16-3.74-.47-6.77-.31-3.02-.47-5.28-.47-6.77-.19-1.15,.43-2.06,1.87-2.74,.72-.38,2.21-.84,4.46-1.37,0,.38,.24,.67,.72,.86,.48,.19,.72,.38,.72,.58,.62,4.51,.94,8.35,.94,11.52,0,7.73-1.8,14.21-5.4,19.44-1.58,2.3-3.67,4.25-6.26,5.83-2.78,1.68-5.45,2.52-7.99,2.52s-4.82-.94-6.55-2.81Z"/><path class="cls-1" d="M172.1,116.7c0-1.44,.37-3.55,1.12-6.34,.74-2.78,1.12-4.82,1.12-6.12,0-1.05-.17-1.99-.5-2.81-.43-2.11-.65-3.21-.65-3.31,0-.86,.34-1.49,1.01-1.87,2.45-1.49,5.14-2.23,8.06-2.23,3.26,0,6.43,.9,9.5,2.7,3.07,1.8,5.52,4.19,7.34,7.16,.58,.91,.86,1.85,.86,2.81,0,2.74-2.59,5.83-7.78,9.29,1.63,8.59,3.94,15.74,6.91,21.46,.14,.24,.22,.46,.22,.65,0,.58-.36,1.06-1.08,1.44-.72,.38-1.51,.58-2.38,.58-.82,0-1.46-.19-1.94-.58-2.21-1.82-3.94-5.14-5.18-9.94-1.39-5.18-2.88-8.69-4.46-10.51-.48-.48-1.3-.72-2.45-.72-1.49,0-2.42,.36-2.81,1.08-.34,1.1-.5,2.3-.5,3.6,0,1.54,.36,3.77,1.08,6.7,.72,3.12,1.1,5.35,1.15,6.7,.05,.67-.48,1.24-1.58,1.69-1.1,.46-2.18,.59-3.24,.4-.82-.29-1.51-.98-2.09-2.09-1.01-2.64-1.58-5.88-1.73-9.72,0,.72,0-2.62,0-10.01Zm8.35-9.36c-.77,2.26-1.15,3.58-1.15,3.96,0,1.01,1.19,1.51,3.58,1.51,3.58,0,6.66-1.13,9.24-3.38,1.05-.53,1.58-1.15,1.58-1.87,0-.19-.07-.38-.21-.58-1.77-3.6-5.21-5.69-10.32-6.26-1.1-.1-1.82,.72-2.15,2.45-.19,1.39-.38,2.78-.57,4.18Z"/><path class="cls-1" d="M218.25,137.87c-1.54-.24-2.3-1.3-2.3-3.17,0-1.05,.22-1.97,.65-2.74,1.25-2.26,3.38-4.78,6.41-7.56,3.98-3.6,6.48-6,7.49-7.2,.05-.09,.07-.22,.07-.36,0-.29-.43-.86-1.3-1.73-.58-.29-1.5-.44-2.77-.47-1.27-.02-2.21-.17-2.81-.43-.6-.26-1.14-.4-1.62-.4-.58,0-1.27,.24-2.09,.72s-1.49,.72-2.02,.72c-.58,0-1.22-.19-1.94-.58-1.01-.77-1.51-2.02-1.51-3.74,0-.67,.07-1.39,.22-2.16,.53-1.63,1.82-2.45,3.89-2.45,.48,0,1.16,.05,2.05,.14,.89,.1,1.5,.14,1.84,.14,5.42,0,9.36,.72,11.81,2.16,1.92,1.06,3.02,1.71,3.31,1.94,1.3,1.01,1.94,2.09,1.94,3.24,0,.34-.07,.72-.22,1.15-1.39,4.42-5.33,9.05-11.81,13.9-.77,.77-1.15,1.34-1.15,1.73,0,.24,.24,.36,.72,.36,1.92,.29,4.32,.55,7.2,.79,1.63,.1,4.06,.55,7.27,1.37,.24,0,.58,.18,1.01,.54,.43,.36,.65,.73,.65,1.12,.19,1.01-.03,1.98-.65,2.92-.62,.94-1.39,1.52-2.3,1.76-2.98,.34-5.38,.5-7.2,.5s-3.89-.22-6.19-.65c-4.7-.86-7.58-1.39-8.64-1.58Z"/><path class="cls-1" d="M267.21,133.33c-2.98,2.93-6.05,4.39-9.22,4.39-1.63,0-3.14-.41-4.54-1.22-2.59-1.54-4.67-3.64-6.23-6.3-1.56-2.66-2.34-5.48-2.34-8.46,0-4.32,1.87-8.36,5.62-12.13,3.74-3.77,7.78-5.65,12.1-5.65,3.5,0,6.55,1.68,9.14,5.04,2.02,2.54,3.02,5.4,3.02,8.57,0,5.47-2.52,10.73-7.56,15.77Zm-3.74-6.34c2.35-3.22,3.53-5.98,3.53-8.28,0-1.2-.31-2.3-.94-3.31-1.3-2.06-2.71-3.1-4.25-3.1-2.06,0-3.95,.82-5.65,2.45-1.7,1.63-2.65,3.46-2.84,5.47-.24,1.92,.08,3.73,.97,5.44,.89,1.7,2.17,2.92,3.85,3.64,.43,.24,.91,.36,1.44,.36,1.34,0,2.64-.89,3.89-2.66Z"/><path class="cls-1" d="M279.73,137.87c-1.54-.24-2.3-1.3-2.3-3.17,0-1.05,.22-1.97,.65-2.74,1.25-2.26,3.38-4.78,6.41-7.56,3.98-3.6,6.48-6,7.49-7.2,.05-.09,.07-.22,.07-.36,0-.29-.43-.86-1.3-1.73-.58-.29-1.5-.44-2.77-.47-1.27-.02-2.21-.17-2.81-.43-.6-.26-1.14-.4-1.62-.4-.58,0-1.27,.24-2.09,.72s-1.49,.72-2.02,.72c-.58,0-1.22-.19-1.94-.58-1.01-.77-1.51-2.02-1.51-3.74,0-.67,.07-1.39,.22-2.16,.53-1.63,1.82-2.45,3.89-2.45,.48,0,1.16,.05,2.05,.14,.89,.1,1.5,.14,1.84,.14,5.42,0,9.36,.72,11.81,2.16,1.92,1.06,3.02,1.71,3.31,1.94,1.3,1.01,1.94,2.09,1.94,3.24,0,.34-.07,.72-.22,1.15-1.39,4.42-5.33,9.05-11.81,13.9-.77,.77-1.15,1.34-1.15,1.73,0,.24,.24,.36,.72,.36,1.92,.29,4.32,.55,7.2,.79,1.63,.1,4.06,.55,7.27,1.37,.24,0,.58,.18,1.01,.54,.43,.36,.65,.73,.65,1.12,.19,1.01-.03,1.98-.65,2.92-.62,.94-1.39,1.52-2.3,1.76-2.98,.34-5.38,.5-7.2,.5s-3.89-.22-6.19-.65c-4.7-.86-7.58-1.39-8.64-1.58Z"/><path class="cls-1" d="M322.93,134.99c-2.26,1.11-4.7,1.66-7.34,1.66-2.98,0-5.71-.67-8.21-2.02-.82-.48-1.22-1.15-1.22-2.02,0-.67,.28-1.36,.83-2.05,.55-.7,1.14-1.14,1.76-1.33,.62-.19,1.27-.29,1.94-.29,.77,0,1.94,.17,3.53,.5,1.58,.34,2.76,.5,3.53,.5,.82,0,1.56-.12,2.23-.36,.24,0,.59-.14,1.04-.43s.59-.5,.4-.65c-.62-1.68-2.98-3.34-7.06-4.97-3.7-1.49-5.54-3.07-5.54-4.75,0-.58,.12-1.18,.36-1.8,.58-1.01,1.78-1.94,3.6-2.81,2.5-1.25,3.93-1.99,4.32-2.23-.82-.48-2.1-.72-3.85-.72s-2.99-.28-3.71-.83c-.72-.55-1.08-1.28-1.08-2.2,0-1.01,.4-1.9,1.19-2.66s1.72-1.15,2.77-1.15c3.46,.29,5.47,.48,6.05,.58,2.26,.38,4.09,1.02,5.51,1.91,1.42,.89,2.12,1.91,2.12,3.06s-.86,2.69-2.59,4.46c-1.39,1.34-2.81,2.69-4.25,4.03,.24,.1,.54,.38,.9,.86,.36,.48,.66,.79,.9,.94,4.32,.86,6.98,2.91,7.99,6.12,.14,.48,.22,.96,.22,1.44,0,2.69-2.11,5.09-6.34,7.2Z"/></svg>