<?xml version="1.0" encoding="UTF-8"?><svg id="Layer_1" xmlns="http://www.w3.org/2000/svg" viewBox="0 0 405.63 197.69"><defs><style>.cls-1{fill:#fff;}</style></defs><path class="cls-1" d="M5.28,28.92c-1.14-1.32-2.31-2.66-3.5-4.03-1.19-1.36-1.78-2.57-1.78-3.63,0-.79,.35-1.58,1.06-2.38C5.89,12.81,13.15,8.41,22.84,5.69,31.46,3.84,40.04,1.99,48.58,.14c.53-.09,1.06-.13,1.58-.13,1.67,0,3.32,.59,4.95,1.78,1.63,1.19,2.44,2.57,2.44,4.16,0,2.82-2.03,4.71-6.07,5.68-2.82,1.06-7.97,2.11-15.44,3.17-6.42,.88-11.35,2.24-14.78,4.09-1.58,.88-2.38,1.8-2.38,2.77,0,.26,.04,.53,.13,.79,2.55,3.87,7.08,8.18,13.6,12.94,8.18,5.9,13.11,9.68,14.78,11.35,4.66,4.58,7,9.37,7,14.39,0,1.67-.26,3.43-.79,5.28-1.58,5.99-5.37,10.61-11.35,13.86-5.46,2.9-11.84,4.36-19.14,4.36-6.78,0-12.94-1.27-18.48-3.83-2.55-1.14-3.83-2.99-3.83-5.54,0-1.93,.73-3.89,2.18-5.87,1.45-1.98,3.19-3.45,5.21-4.42,1.32-.26,2.51,.4,3.56,1.98,1.14,1.85,2.11,2.9,2.9,3.17,1.93,0,4.84,.48,8.71,1.45,1.41,.71,2.9,1.06,4.49,1.06,1.67,0,3.61-.48,5.81-1.45,1.85-.88,3.7-1.72,5.54-2.51,1.58-1.23,2.38-2.86,2.38-4.88,0-1.23-.31-2.51-.92-3.83-3.35-4.31-9.22-9.46-17.62-15.44-8.4-5.98-14.32-11.17-17.75-15.58Z"/><path class="cls-1" d="M89.23,22.32c6.07,0,11.4,2.95,15.97,8.84,3.78,4.93,5.68,10.52,5.68,16.76,0,4.84-1.15,9.44-3.43,13.79-2.29,4.36-5.46,7.9-9.5,10.63-4.67,3.08-9.46,4.62-14.39,4.62-4.58,0-8.67-1.32-12.28-3.96-7.31-5.28-10.96-11.97-10.96-20.06,0-7.04,3.1-13.9,9.31-20.59,6.2-6.69,12.74-10.03,19.6-10.03Zm-14.39,32.74c1.67,7.74,4.88,11.62,9.64,11.62,1.06,0,2.2-.26,3.43-.79,6.69-3.08,10.03-8.8,10.03-17.16,0-2.02-.22-4-.66-5.94-1.06-4.05-4.58-6.07-10.56-6.07-.88,0-1.72,.09-2.51,.26-2.03,.44-4.2,3.01-6.53,7.72-2.33,4.71-3.28,8.16-2.84,10.36Z"/><path class="cls-1" d="M114.97,76.04c-.71-.88-1.06-1.8-1.06-2.77,.53-4.31,1.06-13.16,1.58-26.53,.44-10.91,1.36-19.75,2.77-26.53,.26-1.23,1.58-1.85,3.96-1.85,2.2,0,3.74,.44,4.62,1.32,2.73,3.61,5.54,9.66,8.45,18.15,2.9,8.49,5.72,14.54,8.45,18.15,.61-1.67,1.01-3.48,1.19-5.41,.09-1.41,.09-3.21,0-5.41-.09-2.99-.13-4.79-.13-5.41,0-2.99-.68-7.48-2.05-13.46-1.37-5.98-2.05-10.47-2.05-13.46,0-1.41,.09-2.73,.26-3.96,.35-2.11,2.16-3.17,5.41-3.17,2.38,0,3.83,.71,4.36,2.11,2.29,5.99,3.74,13.07,4.36,21.25,.35,4.05,.53,11.4,.53,22.04,0,9.07-1.8,15.4-5.41,19.01-1.23,1.5-3.04,2.24-5.41,2.24-1.94,0-3.39-.57-4.36-1.72-2.2-2.55-4.49-5.98-6.86-10.3-1.85-3.61-3.7-7.21-5.54-10.82-1.06,2.64-1.58,5.85-1.58,9.64,0,.97,.04,2.4,.13,4.29,.09,1.89,.13,3.32,.13,4.29,0,2.99-.29,5.52-.86,7.59-.57,2.07-2.36,3.1-5.35,3.1-2.29,0-4.14-.79-5.54-2.38Z"/><path class="cls-1" d="M159.32,67.2c-.97-5.02-1.45-9.72-1.45-14.12,0-15.75,5.54-27.54,16.63-35.38,4.57-3.25,9.59-4.88,15.05-4.88s10.56,1.63,15.31,4.88c1.06,.71,1.58,1.54,1.58,2.51,0,1.58-.92,2.86-2.77,3.83-1.5,.71-3.17,1.06-5.02,1.06-1.23,0-3.08-.24-5.54-.73-2.46-.48-4.31-.73-5.54-.73-1.06,0-2.03,.13-2.9,.4-3.87,.97-7.26,5.37-10.16,13.2-2.38,6.51-3.56,12.54-3.56,18.08,0,8.98,3.3,15,9.9,18.08,.97,.44,2.02,.66,3.17,.66,2.46,0,4.14-.84,5.02-2.51,2.02-4.14,3.04-6.86,3.04-8.18,0-1.41-.57-2.51-1.72-3.3-2.55-1.23-3.83-2.07-3.83-2.51-.62-.88-.92-1.76-.92-2.64,0-2.64,2.64-4.71,7.92-6.2,1.14-.35,2.42-.53,3.83-.53,2.73,0,5.13,.66,7.19,1.98,2.07,1.32,3.1,3.08,3.1,5.28,0,1.06-.26,2.2-.79,3.43,0,.18-.44,.49-1.32,.92-.88,.44-1.32,.75-1.32,.92,0,1.67-.31,3.78-.92,6.34-.88,3.43-1.41,5.54-1.58,6.34-.18,1.23-.97,2.46-2.38,3.7-1.94,1.85-3.04,2.95-3.3,3.3-.97,.71-2.33,1.23-4.09,1.58-2.2,.35-3.56,.66-4.09,.92-2.55,1.06-5.19,1.58-7.92,1.58-4.84,0-9.24-1.63-13.2-4.88-3.96-3.25-6.42-7.39-7.39-12.41Z"/><path class="cls-1" d="M212.12,52.54c-1.67-12.23-2.51-27.72-2.51-46.46,0-1.41,.86-2.75,2.57-4.03,1.72-1.28,3.54-1.96,5.48-2.05,4.14-.17,6.2,2.33,6.2,7.52,0,.88-.09,2.33-.26,4.36-.18,2.03-.26,3.52-.26,4.49,0,3.96,.75,5.94,2.25,5.94,1.32,0,2.92-.92,4.77-2.77,.53-.35,2.83-2.42,6.89-6.2,3.09-2.9,5.57-4.36,7.43-4.36,1.59,0,3.2,.59,4.84,1.78,1.64,1.19,2.46,2.4,2.46,3.63,0,.35-.09,.66-.26,.92-2.03,3.43-5.85,6.78-11.48,10.03-6.95,3.96-11.27,6.69-12.94,8.18-.18,.26-.26,.57-.26,.92,0,1.06,1.01,2.9,3.04,5.54,2.82,3.79,4.22,5.72,4.22,5.81,3.78,3.7,7.57,7.39,11.35,11.09,4.31,4.58,6.95,8.8,7.92,12.67,.26,1.06-.42,2.16-2.05,3.3-1.63,1.14-3.45,1.72-5.48,1.72-1.58,0-2.95-.48-4.09-1.45-2.11-1.67-5.15-5.1-9.11-10.3-5.1-6.69-7.83-10.25-8.18-10.69-.26,1.06-.4,2.24-.4,3.56,0,5.63,1.32,13.38,3.96,23.23,.97,3.61,.79,6.42-.53,8.45-1.23,2.46-3.12,3.7-5.68,3.7-1.15,0-2.33-.31-3.56-.92-2.03-.97-3.04-2.38-3.04-4.22,0-5.63-1.1-16.76-3.3-33.4Z"/><path class="cls-1" d="M256.74,41.59c0-2.64,.68-6.51,2.05-11.62,1.36-5.1,2.05-8.84,2.05-11.22,0-1.93-.31-3.65-.92-5.15-.79-3.87-1.19-5.89-1.19-6.07,0-1.58,.61-2.73,1.85-3.43C265.05,1.37,269.98,0,275.35,0c5.98,0,11.79,1.65,17.42,4.95,5.63,3.3,10.12,7.68,13.46,13.13,1.06,1.67,1.58,3.39,1.58,5.15,0,5.02-4.75,10.69-14.26,17.03,2.99,15.75,7.21,28.86,12.67,39.34,.26,.44,.4,.84,.4,1.19,0,1.06-.66,1.94-1.98,2.64-1.32,.71-2.77,1.06-4.36,1.06-1.5,0-2.69-.35-3.56-1.06-4.05-3.34-7.22-9.42-9.5-18.22-2.55-9.5-5.28-15.93-8.18-19.27-.88-.88-2.38-1.32-4.49-1.32-2.73,0-4.45,.66-5.15,1.98-.62,2.03-.92,4.22-.92,6.6,0,2.82,.66,6.91,1.98,12.28,1.32,5.72,2.02,9.81,2.11,12.28,.09,1.23-.88,2.27-2.9,3.1-2.03,.84-4,1.08-5.94,.73-1.5-.53-2.77-1.8-3.83-3.83-1.85-4.84-2.9-10.78-3.17-17.82,0,1.32,0-4.8,0-18.35Zm15.3-17.16c-1.4,4.14-2.1,6.56-2.1,7.26,0,1.85,2.19,2.77,6.57,2.77,6.57,0,12.21-2.07,16.94-6.2,1.93-.97,2.89-2.11,2.89-3.43,0-.35-.13-.7-.39-1.06-3.24-6.6-9.55-10.43-18.91-11.48-2.02-.17-3.33,1.32-3.94,4.49-.35,2.55-.7,5.1-1.05,7.66Z"/><path class="cls-1" d="M323.79,26.01c.44-1.32,1.41-5.5,2.9-12.54,1.06-4.93,2.51-8.67,4.36-11.22,.97-1.5,2.86-2.24,5.68-2.24,1.67,0,2.73,.53,3.17,1.58,2.9,6.25,5.54,13.99,7.92,23.23,1.93,8.1,3.87,16.24,5.81,24.42,0,.62,.59,1.23,1.78,1.85,1.19,.62,1.96,1.21,2.31,1.78,.35,.57,.53,1.21,.53,1.91s-.18,1.23-.53,1.58c-.71,1.67-1.06,3.39-1.06,5.15,0,2.03,.79,5.24,2.38,9.64,1.5,4.05,2.07,7.26,1.72,9.64-.35,2.46-2.29,3.7-5.81,3.7-1.94,0-3.39-.66-4.36-1.98-1.23-1.67-2.29-5.23-3.17-10.69-.71-4.58-2.2-7.57-4.49-8.98-1.94-1.06-4.18-1.58-6.73-1.58-4.14,0-7.66,1.15-10.56,3.43-1.32,1.06-2.77,4.84-4.36,11.35-1.32,5.63-3.48,8.45-6.47,8.45-1.32,0-2.86-.44-4.62-1.32-.26-1.23-.4-2.51-.4-3.83,0-2.73,.66-6.16,1.98-10.3,1.85-5.72,2.9-9.15,3.17-10.3,2.46-11.53,5.41-22.44,8.84-32.74Zm7.26,11.88c-.26,1.32-.97,3.48-2.11,6.47-1.06,2.64-1.58,4.49-1.58,5.54s.4,1.8,1.19,2.24c1.67,.88,3.74,1.32,6.2,1.32,3.61,0,5.72-1.01,6.34-3.04,.44-1.5,.66-3.08,.66-4.75,0-2.9-.75-6.25-2.24-10.03-.26-.79-1.72-4-4.36-9.64-1.94,2.38-3.3,6.34-4.09,11.88Z"/><path class="cls-1" d="M364.97,76.04c-.71-.88-1.06-1.8-1.06-2.77,.53-4.31,1.06-13.16,1.58-26.53,.44-10.91,1.36-19.75,2.77-26.53,.26-1.23,1.58-1.85,3.96-1.85,2.2,0,3.74,.44,4.62,1.32,2.73,3.61,5.54,9.66,8.45,18.15,2.9,8.49,5.72,14.54,8.45,18.15,.61-1.67,1.01-3.48,1.19-5.41,.09-1.41,.09-3.21,0-5.41-.09-2.99-.13-4.79-.13-5.41,0-2.99-.68-7.48-2.05-13.46-1.37-5.98-2.05-10.47-2.05-13.46,0-1.41,.09-2.73,.26-3.96,.35-2.11,2.15-3.17,5.41-3.17,2.38,0,3.83,.71,4.36,2.11,2.29,5.99,3.74,13.07,4.36,21.25,.35,4.05,.53,11.4,.53,22.04,0,9.07-1.8,15.4-5.41,19.01-1.23,1.5-3.04,2.24-5.41,2.24-1.94,0-3.39-.57-4.36-1.72-2.2-2.55-4.49-5.98-6.86-10.3-1.85-3.61-3.7-7.21-5.54-10.82-1.06,2.64-1.58,5.85-1.58,9.64,0,.97,.04,2.4,.13,4.29,.09,1.89,.13,3.32,.13,4.29,0,2.99-.29,5.52-.86,7.59-.57,2.07-2.36,3.1-5.35,3.1-2.29,0-4.14-.79-5.54-2.38Z"/><path class="cls-1" d="M87.71,140.1c-.58,0-1.07-.25-1.48-.76-.41-.5-.61-1-.61-1.48-.1-1.2-.14-2.45-.14-3.74,0-3.6,.37-8.95,1.12-16.06,.74-7.1,1.12-12.43,1.12-15.98,0-.58-.26-.86-.79-.86-.1,0-1.01,.29-2.74,.86-.48,.1-1.36,.46-2.63,1.08-1.27,.62-2.24,.94-2.92,.94-.77,0-1.42-.28-1.94-.83-.53-.55-.79-1.21-.79-1.98,0-1.39,.67-2.42,2.02-3.1,5.14-2.54,10.68-3.86,16.63-3.96h11.02c.14,0,.34,.22,.58,.65,.24,.43,.38,.67,.43,.72,.14,.34,.22,.65,.22,.93,0,1.67-1.1,2.9-3.31,3.66-.29,.05-2.86,.26-7.7,.65-1.73,8.23-2.78,20.1-3.17,35.6,0,.77-.61,1.57-1.84,2.41s-2.24,1.26-3.06,1.26Z"/><path class="cls-1" d="M124.07,106.19c3.31,0,6.22,1.61,8.71,4.82,2.06,2.69,3.1,5.74,3.1,9.14,0,2.64-.62,5.15-1.87,7.52-1.25,2.38-2.98,4.31-5.18,5.8-2.54,1.68-5.16,2.52-7.85,2.52-2.5,0-4.73-.72-6.7-2.16-3.98-2.88-5.98-6.53-5.98-10.94,0-3.84,1.69-7.58,5.08-11.23,3.38-3.65,6.95-5.47,10.69-5.47Zm-7.85,17.86c.91,4.22,2.66,6.34,5.26,6.34,.58,0,1.2-.14,1.87-.43,3.65-1.68,5.47-4.8,5.47-9.36,0-1.1-.12-2.18-.36-3.24-.58-2.21-2.5-3.31-5.76-3.31-.48,0-.94,.05-1.37,.14-1.1,.24-2.29,1.64-3.56,4.21-1.27,2.57-1.79,4.45-1.55,5.65Z"/><path class="cls-1" d="M144.23,134.99c-4.61-4.85-6.91-11.13-6.91-18.86,0-4.13,.67-8.38,2.02-12.74,.33-1.01,.96-1.85,1.87-2.52,.91-.67,1.92-1.01,3.02-1.01,.77,0,1.51,.17,2.23,.5,.82,.82,1.22,1.68,1.22,2.59,0,.24-.05,.5-.14,.79-1.68,3.84-2.52,7.92-2.52,12.24,0,7.06,2.21,11.91,6.62,14.54,.96,.58,1.9,.86,2.81,.86,1.97,0,3.7-1.3,5.18-3.89,1.25-2.16,2.06-4.63,2.45-7.42,.38-1.63,.58-3.43,.58-5.4,0-1.49-.16-3.74-.47-6.77-.31-3.02-.47-5.28-.47-6.77-.19-1.15,.43-2.06,1.87-2.74,.72-.38,2.21-.84,4.46-1.37,0,.38,.24,.67,.72,.86,.48,.19,.72,.38,.72,.58,.62,4.51,.94,8.35,.94,11.52,0,7.73-1.8,14.21-5.4,19.44-1.58,2.3-3.67,4.25-6.26,5.83-2.78,1.68-5.45,2.52-7.99,2.52s-4.82-.94-6.55-2.81Z"/><path class="cls-1" d="M172.1,116.7c0-1.44,.37-3.55,1.12-6.34,.74-2.78,1.12-4.82,1.12-6.12,0-1.05-.17-1.99-.5-2.81-.43-2.11-.65-3.22-.65-3.31,0-.86,.34-1.49,1.01-1.87,2.45-1.49,5.14-2.23,8.06-2.23,3.26,0,6.43,.9,9.5,2.7,3.07,1.8,5.52,4.19,7.34,7.16,.58,.91,.86,1.85,.86,2.81,0,2.74-2.59,5.83-7.78,9.29,1.63,8.59,3.94,15.74,6.91,21.46,.14,.24,.22,.46,.22,.65,0,.58-.36,1.06-1.08,1.44-.72,.38-1.51,.58-2.38,.58-.82,0-1.46-.19-1.94-.58-2.21-1.82-3.94-5.14-5.18-9.94-1.39-5.18-2.88-8.69-4.46-10.51-.48-.48-1.3-.72-2.45-.72-1.49,0-2.42,.36-2.81,1.08-.34,1.1-.5,2.3-.5,3.6,0,1.54,.36,3.77,1.08,6.7,.72,3.12,1.1,5.35,1.15,6.7,.05,.67-.48,1.24-1.58,1.69-1.1,.46-2.18,.59-3.24,.4-.82-.29-1.51-.98-2.09-2.09-1.01-2.64-1.58-5.88-1.73-9.72,0,.72,0-2.62,0-10.01Zm8.35-9.36c-.77,2.26-1.15,3.58-1.15,3.96,0,1.01,1.19,1.51,3.58,1.51,3.58,0,6.66-1.13,9.24-3.38,1.05-.53,1.58-1.15,1.58-1.87,0-.19-.07-.38-.21-.58-1.77-3.6-5.21-5.69-10.32-6.26-1.1-.1-1.82,.72-2.15,2.45-.19,1.39-.38,2.78-.57,4.18Z"/><path class="cls-1" d="M218.25,137.87c-1.54-.24-2.3-1.3-2.3-3.17,0-1.05,.22-1.97,.65-2.74,1.25-2.26,3.38-4.78,6.41-7.56,3.98-3.6,6.48-6,7.49-7.2,.05-.09,.07-.22,.07-.36,0-.29-.43-.86-1.3-1.73-.58-.29-1.5-.44-2.77-.47-1.27-.02-2.21-.17-2.81-.43-.6-.26-1.14-.4-1.62-.4-.58,0-1.27,.24-2.09,.72s-1.49,.72-2.02,.72c-.58,0-1.22-.19-1.94-.58-1.01-.77-1.51-2.02-1.51-3.74,0-.67,.07-1.39,.22-2.16,.53-1.63,1.82-2.45,3.89-2.45,.48,0,1.16,.05,2.05,.14,.89,.1,1.5,.14,1.84,.14,5.42,0,9.36,.72,11.81,2.16,1.92,1.06,3.02,1.71,3.31,1.94,1.3,1.01,1.94,2.09,1.94,3.24,0,.34-.07,.72-.22,1.15-1.39,4.42-5.33,9.05-11.81,13.9-.77,.77-1.15,1.34-1.15,1.73,0,.24,.24,.36,.72,.36,1.92,.29,4.32,.55,7.2,.79,1.63,.1,4.06,.55,7.27,1.37,.24,0,.58,.18,1.01,.54,.43,.36,.65,.73,.65,1.12,.19,1.01-.03,1.98-.65,2.92-.62,.94-1.39,1.52-2.3,1.76-2.98,.34-5.38,.5-7.2,.5s-3.89-.22-6.19-.65c-4.7-.86-7.58-1.39-8.64-1.58Z"/><path class="cls-1" d="M267.21,133.33c-2.98,2.93-6.05,4.39-9.22,4.39-1.63,0-3.14-.41-4.54-1.22-2.59-1.54-4.67-3.64-6.23-6.3-1.56-2.66-2.34-5.48-2.34-8.46,0-4.32,1.87-8.36,5.62-12.13,3.74-3.77,7.78-5.65,12.1-5.65,3.5,0,6.55,1.68,9.14,5.04,2.02,2.54,3.02,5.4,3.02,8.57,0,5.47-2.52,10.73-7.56,15.77Zm-3.74-6.34c2.35-3.22,3.53-5.98,3.53-8.28,0-1.2-.31-2.3-.94-3.31-1.3-2.06-2.71-3.1-4.25-3.1-2.06,0-3.95,.82-5.65,2.45-1.7,1.63-2.65,3.46-2.84,5.47-.24,1.92,.08,3.73,.97,5.44,.89,1.7,2.17,2.92,3.85,3.64,.43,.24,.91,.36,1.44,.36,1.34,0,2.64-.89,3.89-2.66Z"/><path class="cls-1" d="M279.73,137.87c-1.54-.24-2.3-1.3-2.3-3.17,0-1.05,.22-1.97,.65-2.74,1.25-2.26,3.38-4.78,6.41-7.56,3.98-3.6,6.48-6,7.49-7.2,.05-.09,.07-.22,.07-.36,0-.29-.43-.86-1.3-1.73-.58-.29-1.5-.44-2.77-.47-1.27-.02-2.21-.17-2.81-.43-.6-.26-1.14-.4-1.62-.4-.58,0-1.27,.24-2.09,.72s-1.49,.72-2.02,.72c-.58,0-1.22-.19-1.94-.58-1.01-.77-1.51-2.02-1.51-3.74,0-.67,.07-1.39,.22-2.16,.53-1.63,1.82-2.45,3.89-2.45,.48,0,1.16,.05,2.05,.14,.89,.1,1.5,.14,1.84,.14,5.42,0,9.36,.72,11.81,2.16,1.92,1.06,3.02,1.71,3.31,1.94,1.3,1.01,1.94,2.09,1.94,3.24,0,.34-.07,.72-.22,1.15-1.39,4.42-5.33,9.05-11.81,13.9-.77,.77-1.15,1.34-1.15,1.73,0,.24,.24,.36,.72,.36,1.92,.29,4.32,.55,7.2,.79,1.63,.1,4.06,.55,7.27,1.37,.24,0,.58,.18,1.01,.54,.43,.36,.65,.73,.65,1.12,.19,1.01-.03,1.98-.65,2.92-.62,.94-1.39,1.52-2.3,1.76-2.98,.34-5.38,.5-7.2,.5s-3.89-.22-6.19-.65c-4.7-.86-7.58-1.39-8.64-1.58Z"/><path class="cls-1" d="M322.93,134.99c-2.26,1.11-4.7,1.66-7.34,1.66-2.98,0-5.71-.67-8.21-2.02-.82-.48-1.22-1.15-1.22-2.02,0-.67,.28-1.36,.83-2.05,.55-.7,1.14-1.14,1.76-1.33,.62-.19,1.27-.29,1.94-.29,.77,0,1.94,.17,3.53,.5,1.58,.34,2.76,.5,3.53,.5,.82,0,1.56-.12,2.23-.36,.24,0,.59-.14,1.04-.43s.59-.5,.4-.65c-.62-1.68-2.98-3.34-7.06-4.97-3.7-1.49-5.54-3.07-5.54-4.75,0-.58,.12-1.18,.36-1.8,.58-1.01,1.78-1.94,3.6-2.81,2.5-1.25,3.93-1.99,4.32-2.23-.82-.48-2.1-.72-3.85-.72s-2.99-.28-3.71-.83c-.72-.55-1.08-1.28-1.08-2.2,0-1.01,.4-1.9,1.19-2.66s1.72-1.15,2.77-1.15c3.46,.29,5.47,.48,6.05,.58,2.26,.38,4.09,1.02,5.51,1.91,1.42,.89,2.12,1.91,2.12,3.06s-.86,2.69-2.59,4.46c-1.39,1.34-2.81,2.69-4.25,4.03,.24,.1,.54,.38,.9,.86,.36,.48,.66,.79,.9,.94,4.32,.86,6.98,2.91,7.99,6.12,.14,.48,.22,.96,.22,1.44,0,2.69-2.11,5.09-6.34,7.2Z"/><path class="cls-1" d="M154.77,182.59c-.05-.48-.28-1.14-.68-2s-.62-1.49-.67-1.91c-.07-.6,.11-1.17,.53-1.7,.55-.51,1.39-.83,2.53-.95,1.03,.08,1.58,.47,1.66,1.17,.13,.34,.27,1.15,.41,2.42,.11,1.02,.37,1.73,.76,2.14,.19,.24,.53,.33,1.04,.27,.16-.02,.42-.06,.78-.13s.64-.12,.83-.14c.45-.05,.82,0,1.12,.12,.59,.35,.78,.85,.6,1.48-.54,.64-1.66,1.16-3.35,1.57-.18,.12-.35,.23-.49,.34-.24,.15-.35,.31-.34,.47,.05,.41,.18,1.04,.4,1.89s.35,1.48,.4,1.89c.05,.48,.04,.92-.02,1.33-.07,.41-.44,.65-1.1,.72-.54,.06-.96-.04-1.24-.3-.72-.37-1.26-1.1-1.64-2.19-.43-1.24-.79-2.02-1.08-2.35-.29-.32-.73-.45-1.3-.39-.29,.03-.8,.15-1.53,.36s-1.31,.34-1.72,.38c-.25,.03-.5,.04-.72,.03-.56-.1-.86-.36-.91-.77-.05-.48,.18-.84,.7-1.09,1.74-.87,3.36-1.46,4.88-1.79,.16-.05,.2-.34,.14-.88h.01Z"/><path class="cls-1" d="M168.4,178.78c-1.28-3.43-1.96-6.3-2.05-8.61-.03-.25,.04-.54,.2-.87,.16-.32,.33-.5,.52-.52,1.68-.79,3.48-1.3,5.39-1.51,2.86-.31,5.61,.06,8.24,1.13,.47,.17,.72,.44,.76,.79,.07,.6-.44,1.32-1.5,2.14-.45,.28-.95,.44-1.49,.5-.64,.07-1.75-.13-3.35-.6-1.43-.42-2.57-.52-3.41-.3-.02,.68,0,1.38,.09,2.12,.15,1.4,.56,3.08,1.23,5.03,.59,1.61,1.19,3.23,1.79,4.88,.45-.02,1.21-.15,2.28-.39,1.23-.26,2.08-.42,2.55-.47,1.94-.21,2.95,.35,3.04,1.7,.06,.86-.85,1.46-2.75,1.8-2.05,.35-3.17,.77-3.34,1.26-.17,.49-.23,.98-.17,1.49,.08,.76,.52,1.79,1.3,3.09,.95,1.6,1.51,2.65,1.69,3.15,.12,.25,.2,.49,.23,.75,.07,.6-.14,1.13-.63,1.57-.48,.44-1.04,.69-1.68,.76-.54,.06-1-.04-1.38-.28-.99-.79-1.85-2.35-2.58-4.67-.74-2.32-1.54-3.88-2.4-4.69-.08-.12-.2-.17-.35-.15-.06,0-.32,.08-.77,.23s-.81,.2-1.07,.16c-.92-.12-1.41-.52-1.48-1.19-.02-.22,.04-.45,.19-.7,.15-.24,.6-.64,1.34-1.21,.62-.49,.96-.89,1-1.22s.05-.67,0-1.02c-.06-.57-.25-1.28-.57-2.11-.3-.67-.58-1.35-.85-2.03h-.02Z"/><path class="cls-1" d="M183.85,179.65c-.06-.83-.1-1.7-.11-2.6-.02-.9,.25-1.59,.81-2.07,.46-.24,.99-.4,1.59-.46,1.62-.18,2.5,.31,2.62,1.45l.32,4.7c.14,1.88,.38,3.44,.7,4.66,.38,1.09,.75,2.17,1.13,3.26,.57,1.36,1.14,2,1.71,1.94,.19-.02,.39-.11,.6-.26,2.44-2.1,3.46-4.98,3.06-8.64-.23-2.1-.96-3.94-2.19-5.51-.67-.86-1.05-1.66-1.13-2.39-.1-.92,.48-1.45,1.76-1.59,1.24-.14,2.41,.45,3.52,1.74,.99,1.15,1.6,2.4,1.81,3.76,.55,3.26,.49,6.26-.18,9-.78,3.21-2.32,5.47-4.62,6.78-.94,.52-1.84,.83-2.7,.92-2.42,.26-4.43-1.09-6.05-4.07-1.32-2.4-2.18-5.33-2.55-8.8-.07-.64-.1-1.24-.1-1.82h0Z"/><path class="cls-1" d="M202.89,177.09c-.07-.96-.38-2.37-.92-4.22-.54-1.86-.86-3.2-.95-4.03-.13-1.18-.02-2.23,.33-3.17,.4-1.07,1.22-1.68,2.46-1.81,1.27-.14,2.03,.45,2.27,1.78,.05,.19,.06,.53,0,1.01-.04,.49-.06,.79-.04,.92l1.12,10.21c.06,1.12,.24,2.6,.53,4.43,.37,2.18,.59,3.62,.66,4.32,.28,2.58,.12,4.77-.49,6.57-.26,.83-.86,1.3-1.78,1.4-.6,.07-1.22-.04-1.84-.3s-.99-.85-1.08-1.74c-.03-.25,0-.51,.07-.78,.38-2.04,.46-4.46,.26-7.27-.2-2.46-.4-4.9-.6-7.32h-.01Z"/><path class="cls-1" d="M212.34,176.06c-.07-.96-.38-2.37-.92-4.22-.54-1.86-.86-3.2-.95-4.03-.13-1.18-.02-2.24,.33-3.17,.4-1.07,1.22-1.68,2.46-1.81,1.27-.14,2.03,.45,2.27,1.78,.05,.19,.06,.53,0,1.01s-.06,.79-.04,.92l1.11,10.21c.06,1.12,.24,2.6,.53,4.43,.37,2.18,.59,3.62,.67,4.32,.28,2.58,.12,4.77-.49,6.57-.26,.83-.86,1.3-1.78,1.4-.6,.07-1.22-.04-1.84-.3-.63-.27-.99-.85-1.08-1.74-.03-.25,0-.51,.06-.78,.38-2.04,.46-4.46,.26-7.27-.2-2.46-.4-4.9-.6-7.32h0Z"/><path class="cls-1" d="M220.06,177.39c-.33-3.05,.55-4.7,2.65-4.92,.38-.04,.8-.02,1.26,.05,.92,.16,1.43,.71,1.53,1.67,.04,.32,.04,.83,0,1.54-.04,.71-.04,1.23,0,1.54,.07,.64,.25,1.13,.55,1.49,.57-.64,1.15-1.7,1.73-3.18,.68-1.68,1.21-2.79,1.57-3.31,.66-1.04,1.5-1.61,2.52-1.72,.51-.05,1.08,0,1.71,.2l1.05,.8c.18,.5,.41,1.42,.69,2.77,.25,1.13,.54,2,.86,2.61,.95-1.33,1.88-2.65,2.8-3.98,1.26-1.46,2.52-2.25,3.79-2.39,.6-.07,1.22-.02,1.85,.14,.51,.27,.86,.78,1.04,1.53,.1,.63,.2,1.28,.31,1.95,.63,2.54,1.06,4.83,1.28,6.86,.4,3.66,.19,7.03-.63,10.11-.18,1.02-.94,1.6-2.27,1.74-.73,.08-1.45-.03-2.16-.34-.13,0-.24-.15-.34-.49-.11-.41-.13-.77-.07-1.1,.67-2.68,.84-5.6,.49-8.75-.19-1.78-.56-3.64-1.09-5.58-.02-.22-.1-.33-.23-.31-.38,.04-.69,.35-.91,.92-1.33,2.82-2.48,6.21-3.43,10.18-.17,.5-.56,.98-1.17,1.43s-1.23,.71-1.87,.78c-.76,.08-1.35-.17-1.77-.75s-.67-1.3-.77-2.16c-.06-.57-.07-1.49,0-2.75,.05-1.26,.05-2.21-.02-2.85-.09-.79-.28-1.5-.57-2.11-.41,.95-1.04,2.72-1.88,5.32-.69,2.2-1.36,3.91-2,5.14-.43,.76-1.16,1.19-2.18,1.3-1.05,.11-1.77-.18-2.15-.9-.38-.71-.68-1.61-.9-2.68-.15-.79-.28-1.8-.38-3.05-.14-1.88-.22-2.94-.25-3.16-.04-.41-.15-1.02-.32-1.82-.17-.8-.27-1.39-.31-1.78h0Z"/><path class="cls-1" d="M254.18,182.94c-2.77-1.21-4.33-3.44-4.69-6.68-.09-.83-.07-1.65,.07-2.47,.18-1.05,.58-2.17,1.23-3.37,.75-1.34,1.17-2.12,1.24-2.36,.36-1.13,1.14-1.77,2.35-1.9,1.43-.16,2.74,.3,3.91,1.36,1.18,1.06,2.15,2.55,2.9,4.46,.27,.71,.44,1.42,.52,2.12,.27,2.48-.65,5.11-2.76,7.88-.51,.67-1.36,1.07-2.57,1.2-.86,.09-1.59,0-2.2-.24h0Zm1.01-4.89c.26,.04,.5,.04,.73,.02,1.43-.16,2.05-1.11,1.86-2.86-.16-1.49-.87-2.8-2.12-3.92-.1-.05-.22-.07-.34-.06-.51,.06-1.08,.62-1.72,1.71s-.91,2.1-.8,3.06c.13,1.21,.93,1.9,2.4,2.06h0Z"/><path class="cls-1" d="M267.63,181.47c-2.77-1.21-4.33-3.44-4.69-6.68-.09-.83-.07-1.65,.07-2.47,.18-1.05,.58-2.17,1.23-3.37,.75-1.34,1.17-2.12,1.24-2.36,.36-1.13,1.14-1.77,2.35-1.9,1.43-.16,2.74,.3,3.92,1.36,1.18,1.06,2.14,2.55,2.9,4.46,.27,.71,.44,1.42,.52,2.12,.27,2.48-.65,5.11-2.76,7.88-.51,.67-1.37,1.07-2.57,1.2-.86,.09-1.59,0-2.2-.24h0Zm1.01-4.89c.26,.04,.5,.04,.73,.02,1.43-.16,2.05-1.11,1.86-2.86-.16-1.5-.87-2.8-2.12-3.92-.1-.05-.22-.07-.35-.06-.51,.06-1.08,.62-1.72,1.71-.64,1.08-.91,2.1-.8,3.06,.13,1.21,.93,1.89,2.4,2.06h0Z"/><path class="cls-1" d="M277.73,176.21c-.05-.51-.18-1.32-.38-2.42-.2-1.1-.33-1.93-.39-2.47-.13-1.21-.1-2.21,.11-3,.21-.7,.78-1.1,1.7-1.2,1.05-.11,1.75,.23,2.09,1.03,.08,.19,.14,.4,.17,.66,.04,.32,0,.81-.1,1.48s-.14,1.18-.1,1.53c.31,.22,.48,.4,.49,.53,.89-1.9,1.48-3.06,1.79-3.48,.78-1.15,1.72-1.78,2.83-1.9,.41-.05,.85-.03,1.31,.05,1.32,1.72,2.3,3.95,2.95,6.68,.18,.79,.59,3.24,1.24,7.35,.5,1.36,.38,2.2-.35,2.5-.83,.35-1.49,.55-1.96,.6-.73,.08-1.17-.14-1.33-.68-.29-1.19-.65-3.15-1.08-5.87-.37-2.47-.77-4.38-1.2-5.71-.78,1.08-1.45,2.68-1.99,4.8-.71,2.65-1.23,4.36-1.57,5.12s-.92,1.19-1.74,1.28c-.86,.09-1.47-.34-1.83-1.3-.24-.68-.4-1.6-.49-2.75-.13-2.08-.19-3.02-.17-2.83h0Z"/><path class="cls-1" d="M302.05,164.14c-.03-1.45-.02-2.43,.02-2.95,.07-1.1,.29-2.03,.66-2.78-.17-.05-.48-.09-.93-.14-.46-.05-.77-.11-.94-.19-.38-.28-.61-.71-.67-1.28-.12-1.11,.15-1.85,.82-2.21,2.19-1.14,4.5-1.84,6.92-2.11,5.69-.62,10.62,.98,14.77,4.81,.08,.44,.14,.85,.18,1.24,.38,3.47-1.21,6.57-4.78,9.31-1.51,1.16-4.84,3.01-9.97,5.53,0,.81,.18,1.85,.58,3.12,.45,1.43,.7,2.42,.76,2.96,.05,.45,.05,.86,0,1.26-.15,.72-.52,1.36-1.12,1.91s-1.31,.87-2.14,.96c-.32,.04-.64,.04-.96,0l-1.17-.98c-.64-2.63-1.12-5.43-1.45-8.39-.31-2.86-.5-6.22-.57-10.08h0Zm5.13-1.66c.04,.41,.04,1.08-.02,2.01s-.07,1.56-.03,1.91c.09,.8,.39,1.25,.92,1.37s1.08,.15,1.65,.09c1.78-.2,3.49-1.09,5.11-2.68,1.63-1.59,2.57-3.3,2.82-5.14-4.03-2.39-7.19-3.46-9.48-3.21-.6,.07-1.2,.21-1.79,.44-.03,0,.13,.15,.48,.43,.46,.37,.71,.71,.74,1.03,.05,.45-.02,1.08-.2,1.91-.18,.83-.25,1.45-.21,1.86v-.02Z"/><path class="cls-1" d="M337.83,181.17c-.29-.15-.61-.47-.95-.98-.3-.42-.57-.62-.79-.59-1.72-.1-3.45-.2-5.2-.3-1.93-.27-3.37-1.05-4.31-2.33-.58-.61-.93-1.47-1.06-2.59-.18-1.62,.07-3,.75-4.14,1.63-2.79,4.29-4.38,7.98-4.78,1.59-.17,2.36-.21,2.31-.11,.21-.41,.28-.96,.21-1.66-.09-.83-.38-1.27-.87-1.33s-.97-.06-1.45,0c-.83,.09-1.72,.39-2.68,.89-.96,.51-1.9,.99-2.81,1.44-.15,.08-.29,.13-.42,.14-.51,.06-.96-.26-1.36-.96-.32-.54-.51-1.15-.58-1.82-.04-.41-.03-.67,.06-.78,1.94-1.66,4.23-2.63,6.88-2.92,2.77-.3,4.74,.48,5.91,2.35,.63,1.03,1.01,2.17,1.15,3.45,.12,1.05,.07,2.55-.14,4.5-.25,2.15-.37,3.71-.36,4.68,.1,2.4,.12,4.04,.05,4.92-.17,1.98-.67,3.02-1.5,3.11-.26,.03-.53-.03-.82-.18h0Zm-1.52-5.71c.05-.46,.17-1.27,.36-2.46,.19-.92,.25-1.67,.19-2.24-.07-.67-.29-1.32-.65-1.96-1.58,.53-3.15,1.04-4.71,1.53-1.82,.75-2.65,1.96-2.5,3.65,.05,.74,.82,1.28,2.3,1.63,1.29,.34,2.56,.44,3.8,.31,.73-.08,1.13-.24,1.2-.47h.01Z"/><path class="cls-1" d="M342.8,164.62c-.12-.5-.47-1.32-1.04-2.45-.53-1.04-.83-1.84-.89-2.41-.08-.76,.13-1.44,.65-2.03,.51-.59,1.09-.92,1.73-.99,.83-.09,1.58,.22,2.27,.93s1.09,1.59,1.21,2.64c.02,.22,.05,.45,.07,.67,.81-.22,1.73-.99,2.77-2.33,.95-1.26,1.87-1.94,2.75-2.04,.32-.04,.65-.02,1.01,.03,1.39,.4,2.11,.85,2.17,1.36,.03,.26-.05,.54-.25,.85-.51,.93-1.5,2.14-2.96,3.63-1.46,1.5-2.47,2.77-3.03,3.83-.18,.38-.26,.96-.22,1.76,.04,.8-.01,1.36-.15,1.68-.14,.32-.19,.69-.15,1.1,.07,.67,.4,1.31,.98,1.92,.47,.46,.75,1.09,.83,1.89,.13,1.18-.14,2.16-.79,2.94-.39,.82-1.07,1.28-2.02,1.38-.8,.09-1.46-.15-2.01-.7-.58-.29-.9-.98-.95-2.07-.18-2.84-.85-6.72-1.99-11.61v.02Z"/><path class="cls-1" d="M363.33,155.76c.04-1.1,.1-2.75,.18-4.95-.01-1.29,.75-2.01,2.27-2.18,.92-.1,1.81,.06,2.66,.48,.42,.34,.56,.87,.42,1.6-.95,2.81-1.22,6.12-.8,9.94,2.99-.62,4.42-.92,4.3-.9,1.65-.18,2.53,.19,2.63,1.11,.02,.19,.01,.4-.03,.63-.21,1.05-1.16,1.78-2.85,2.19-.59,.16-2.08,.37-4.47,.63-.03,.36,0,.89,.08,1.59,.17,1.53,.72,4.67,1.66,9.43,.84,4.45,1.28,7.12,1.31,8.02,.05,1.09-.44,1.69-1.49,1.8-.99,.11-1.71-.33-2.17-1.31-.37-.76-1.03-3.94-1.96-9.54-.87-5.34-1.61-8.45-2.22-9.32-1.2,1.13-2.43,1.76-3.7,1.9-.57,.06-1.1-.04-1.58-.31-.58-.29-.9-.71-.96-1.25-.07-.67,.27-1.32,1.04-1.95,.39-.24,1.36-.63,2.91-1.19,1.21-.39,2-.86,2.36-1.42,.36-.55,.53-1.35,.51-2.37-.03-.9-.07-1.78-.1-2.65v.02Z"/><path class="cls-1" d="M376.47,156.79l-.38-1.7c-.08-.73,0-1.27,.26-1.62,.42-.82,1.15-1.28,2.16-1.4,.96-.1,1.65,.21,2.08,.93,.55,.91,.9,2.2,1.05,3.89,.2,2.17,.38,3.51,.54,4.04,.09,.22,.2,.32,.32,.3,.1,0,.3-.22,.61-.65,.53-1.63,1.04-3.25,1.55-4.85,.7-1.81,1.62-3.14,2.75-3.97,.33-.23,.76-.37,1.3-.43,1.3-.14,2,.23,2.1,1.12,.03,.25-.02,.55-.14,.88-1.05,2.5-2.09,4.99-3.14,7.49-1.15,2.99-1.68,5.67-1.58,8.04,.06,2.63-.53,5.47-1.78,8.5-1.47,3.67-3.36,5.63-5.68,5.88-1.59,.17-2.72-.25-3.38-1.27s-1.03-1.9-1.11-2.63c-.09-.83,.18-1.47,.8-1.92,.24-.19,.48-.29,.74-.32,.54-.06,1.06,.1,1.55,.48s.82,.84,.97,1.37c1.34-1.3,2.14-2.47,2.42-3.5,.13-1.43,.28-2.88,.44-4.35,.03-.29,.03-.58,0-.87-.08-.76-.52-1.79-1.3-3.09-.79-1.3-1.25-2.26-1.38-2.89-.4-1.63-1-4.12-1.78-7.48v.02Z"/><path class="cls-1" d="M397.43,167.83c.24,.13,.57,.18,.98,.13-.02,.42,.08,1,.31,1.75s.35,1.25,.38,1.5c.09,.8-.2,1.42-.86,1.88-.47,.37-.93,.58-1.38,.63-1.4,.15-2.51-1.03-3.33-3.55-.07-.67,.12-1.26,.58-1.78s1.04-.81,1.74-.89c.57-.06,1.1,.04,1.58,.31v.02Zm-.91-2.12c-.89-.22-1.39-.81-1.5-1.77-.03-.32-.02-.79,.04-1.4,.08-.75,.11-1.22,.09-1.41,.14-6.97,.7-12.63,1.67-16.99,.22-.93,.86-1.45,1.91-1.56,.57-.06,1.09,.03,1.55,.29s.69,.61,.67,1.06c.07,2.44-.21,5.93-.84,10.47-.71,4.97-1.1,8.52-1.15,10.65,.06,.54-.18,.84-.72,.9-.38,.04-.95-.04-1.72-.25h0Z"/></svg>